<svg xmlns="http://www.w3.org/2000/svg" xmlns:xlink="http://www.w3.org/1999/xlink" width="435.822" height="246.826" viewBox="0 0 435.822 246.826"><defs><clipPath id="a"><rect width="192.833" height="246.826" fill="none"/></clipPath></defs><g transform="translate(0.572)"><g transform="translate(242.418)"><rect width="192.833" height="246.826" fill="none"/><g clip-path="url(#a)"><g transform="translate(0 0.255)"><path d="M1.3,25.094c-2.119,1.856-1.588,5.95,1.185,9.14s6.736,4.273,8.853,2.417L38.616,21.4,20.028,0Z" transform="translate(107.721 10.68)" fill="#f4f3fd"/><path d="M9.067,28.347C4.059,28.347,0,22,0,14.174S4.059,0,9.067,0s9.067,6.346,9.067,14.174S14.074,28.347,9.067,28.347Z" transform="translate(121.321 16.334) rotate(-41.244)" fill="#dadaf7"/><path d="M0,2.389a19.384,19.384,0,0,0,4.417,8.459,19.287,19.287,0,0,0,7.744,5.543l2.6-1.453A18.861,18.861,0,0,1,6.336,9.165,18.947,18.947,0,0,1,1.784,0Z" transform="translate(113.67 27.154)" fill="#dadaf7"/><path d="M1.87,8.972a22.174,22.174,0,0,0,2.2,2.2l7.216-5.178L6.084,0,0,6.481A21.907,21.907,0,0,0,1.87,8.972Z" transform="translate(128.784 18.014)" fill="#eae9ff"/><path d="M64.481.152c10.149,1.275,9.642,13,9.642,13s10.4,1.785,15.224,7.138,0,15.3,0,15.3,7.866-1.275,11.925,2.8,1.522,10.453-8.373,12.747S4.855,65.164,4.855,65.164s-5.328.765-4.821-4.589,9.388-9.943,9.388-9.943-6.343-3.314-5.075-9.943,9.9-13,13.448-15.552a86.375,86.375,0,0,1,8.373-5.1S25.691,6.888,33.78,3.212c10.657-4.844,15.985,2.8,15.985,2.8S54.332-1.122,64.481.152Z" transform="translate(23.563 72.252)" fill="#f99a3d"/><path d="M10.91,41.887c3.552-17.081,3.3-23.455,3.3-23.455a38.439,38.439,0,0,1-1.015-8.158,7.2,7.2,0,0,1,2.03-5.609c3.7-3.717,10.149-7.393,17.253-1.785s3.3,21.16,3.3,21.16.507,27.024-2.791,46.655-7.358,22.945-7.358,22.945L0,75.285A184.7,184.7,0,0,0,10.91,41.887Z" transform="translate(105.297 38.931)" fill="#da5742"/><path d="M2.55,7.974C1.142,7.974,0,6.189,0,3.987S1.142,0,2.55,0,5.1,1.785,5.1,3.987,3.959,7.974,2.55,7.974Z" transform="translate(133.149 19.509) rotate(-41.244)" fill="#f4f3fd"/><path d="M1.429,29.574C-2.63,43.851,2.952,53.08,5.869,55.731S34.921,0,34.921,0L10.31,2.295S5.489,15.3,1.429,29.574Z" transform="translate(6.69 182.286)" fill="#c43d28"/><path d="M2.426,0C.995,3.633,0,5.836,0,5.836L24.9,23.669l.873.385c.667-.709,3.567-4.426,6.272-17.706Z" transform="translate(105.297 108.38)" fill="#c43d28"/><path d="M24.1,44.87c9.134-8.158,20.3-12.747,35.776-14.277S81.954,20.4,85.252,16.826,95.655,0,95.655,0L126.1,12.492a124.5,124.5,0,0,1-6.343,23.71,79.12,79.12,0,0,1-11.671,20.141S112.4,74.7,115.446,96.37s3.486,31.613,3.486,31.613H29.524l2.953-38.242L0,77.249S14.97,53.029,24.1,44.87Z" transform="translate(9.896 109.627)" fill="#3d5cff"/><path d="M15.246,10.85,0,0,9.72,18.769A72.637,72.637,0,0,0,15.246,10.85Z" transform="translate(108.341 147.104)" fill="#224bf4"/><path d="M43.684,12.747,25.923,0,0,38.581l23.64,9.094L20.686,85.917H36.58Z" transform="translate(18.733 151.693)" fill="#224bf4"/><g transform="translate(10.656 112.686)"><path d="M0,0,37.044,12.237" transform="translate(0 68.071)" fill="none" stroke="#eaeaff" stroke-miterlimit="10" stroke-width="1.158" stroke-dasharray="0 0"/><path d="M0,0,40.089,18.1" transform="translate(88.551)" fill="none" stroke="#eaeaff" stroke-miterlimit="10" stroke-width="1.158" stroke-dasharray="0 0"/><path d="M.059,31.358S-2.225,53.284,21.626,56.343,56.894,47.93,51.058,43.086C40.762,34.54,21.88,55.833,31.014,65.521s38.422,1.6,42.372,13.512c2.791,8.413-9.642,12.747-23.089,6.629-16.987-7.73-3.045-24.73,19.03-17.591s20.552,24.475,9.9,29.574c-18.238,8.727-44.275-8.574-53.029,9.943-4.821,10.2,9.814,21.148,21.059,12.747,9.9-7.393,13.7-12.747,39.581-14.022S113.221,70.62,99.52,61.187,67.3,49.714,64.759,34.163s12.686-18.611,14.97-8.668S57.909,47.93,56.386,31.358c-1.8-19.618,15.477-21.67,29.432-19.376S110.43,9.178,102.565,0" transform="translate(22.776 7.648)" fill="none" stroke="#eaeaff" stroke-miterlimit="10" stroke-width="1.158" stroke-dasharray="0 0" opacity="0.55"/></g><path d="M3.167,16.571C-.385,18.356-.639,23.71.883,26.514s3.806,3.824,6.6,4.334a15.626,15.626,0,0,0,4.567.255s.254,6.884,0,13.767-1.269,8.158-1.269,8.158a25.172,25.172,0,0,0,13.448,2.295c7.866-.765,9.134-2.8,9.134-2.8s-.761-5.1-1.015-8.923-.507-5.864-.507-5.864S40.718,35.183,41.226,26s0-11.473,0-11.473-3.3-1.02-5.328-7.393S32.345,0,29.808,0s-3.045,3.059-3.045,3.059-2.04-3.852-6.851-2.04c-4.06,1.53-2.537,7.648-4.313,11.473a8.205,8.205,0,0,1-5.075,4.589S6.719,14.787,3.167,16.571Z" transform="translate(53.668 88.976)" fill="#da5742"/><path d="M4.06.679A4.952,4.952,0,0,0,1.378,0c-.01,1.675-.043,3.47-.109,5.267C1.015,12.152,0,13.426,0,13.426A22.369,22.369,0,0,0,6.209,15.42c.2-.829.454-2.1.733-3.967C7.541,7.438,6.6,2.209,4.06.679Z" transform="translate(64.447 128.578)" fill="#c43d28"/><path d="M.081,2.415S-.426.63,1.1.12a1.524,1.524,0,0,1,2.03.765" transform="translate(72.231 99.053)" fill="#fff"/><path d="M0,1.563A1.636,1.636,0,0,1,1.522.034a1.8,1.8,0,0,1,2.03,1.02" transform="translate(84.491 95.826)" fill="#fff"/><g transform="translate(79.924 100.194)"><path d="M1.936,1.285a7.854,7.854,0,0,1,.832.839,4.889,4.889,0,0,1,.65,1.027l.1.3a.99.99,0,0,1,.041.161,1.259,1.259,0,0,1,.025.171,1.3,1.3,0,0,1-.127.686,2.064,2.064,0,0,1-.931.859,5.439,5.439,0,0,1-2.273.533,9.075,9.075,0,0,0,2.078-.88,1.8,1.8,0,0,0,.7-.719A.834.834,0,0,0,3.1,3.824a.6.6,0,0,0-.018-.115.59.59,0,0,0-.033-.117l-.091-.245A6.57,6.57,0,0,0,1.67,1.568C1.144,1.027.581.512,0,0A8.887,8.887,0,0,1,1.936,1.285Z" fill="#1f1f39"/></g><path d="M1.4,3.569A1.626,1.626,0,0,1,0,1.784,1.626,1.626,0,0,1,1.4,0a1.626,1.626,0,0,1,1.4,1.784A1.626,1.626,0,0,1,1.4,3.569Z" transform="translate(73.372 103.697) rotate(-7.203)" fill="#1f1f39"/><path d="M1.4,3.569A1.626,1.626,0,0,1,0,1.784,1.626,1.626,0,0,1,1.4,0a1.626,1.626,0,0,1,1.4,1.784A1.626,1.626,0,0,1,1.4,3.569Z" transform="matrix(0.992, -0.125, 0.125, 0.992, 86.312, 102.167)" fill="#1f1f39"/><path d="M4.313,1.02A15.822,15.822,0,0,0,7.612,0s1.522,4.079,0,7.393a3.641,3.641,0,0,1-6.6.255C0,5.354,0,1.275,0,1.275A14.053,14.053,0,0,0,4.313,1.02Z" transform="translate(78.148 109.372)" fill="#fff"/><path d="M12.047,15.211s.005.125.013.354a17.327,17.327,0,0,0,.495-6.218,32.971,32.971,0,0,0-1.888-8.2l-.142.038S6.719-1.105,3.167.68-.639,7.818.883,10.622s3.806,3.824,6.6,4.334A15.627,15.627,0,0,0,12.047,15.211Z" transform="translate(53.668 104.868)" fill="#c43d28"/><path d="M0,0A22.734,22.734,0,0,1,5.328,3.314C8.119,5.609,8.373,7.138,8.373,7.138" transform="translate(57.85 110.137)" fill="none" stroke="#1f1f39" stroke-linecap="round" stroke-miterlimit="10" stroke-width="0.579" stroke-dasharray="0 0"/><path d="M10.5,2.88C6.706-.113,3.1-.462,0,.43c1.961,5.6,6.561,18.351,8.723,21.316a7.024,7.024,0,0,0,5.082,2.881c0-.38-.008-.586-.008-.586S17.6,8.489,10.5,2.88Z" transform="translate(127.275 38.931)" fill="#c43d28"/><path d="M3.9,3.824a19.091,19.091,0,0,0,6.894,3.154c-.015-.2-.03-.405-.043-.6-.218-3.271-.434-5.231-.492-5.731C9.9.676,9.5.714,9.069.765,6.886,1.02.089,0,.089,0S-.926.51,3.9,3.824Z" transform="translate(75.268 126.198)" fill="#c43d28"/><path d="M13.7,21.983A3.046,3.046,0,0,1,9.54,20.864L.405,4.968A3.077,3.077,0,0,1,1.519.79l.66-.382A3.046,3.046,0,0,1,6.338,1.527l9.134,15.9A3.077,3.077,0,0,1,14.358,21.6Z" transform="translate(127.932 38.01)" fill="#dadaf7"/><path d="M0,0A17.267,17.267,0,0,0,5.836,1.02,26.938,26.938,0,0,0,10.4.765" transform="translate(75.103 125.943)" fill="none" stroke="#1f1f39" stroke-linecap="round" stroke-miterlimit="10" stroke-width="0.579" stroke-dasharray="0 0"/><path d="M.122,4.118A4.169,4.169,0,0,0,2.406,8.962a6.066,6.066,0,0,0,.507,3.824,2.687,2.687,0,0,0,3.045,1.785S5.2,17.63,9,18.65s6.851-2.295,6.343-5.1A37.743,37.743,0,0,0,11.54,3.1,5.738,5.738,0,0,0,3.674.676C2.177,1.365.46,2.542.122,4.118Z" transform="translate(132.577 37.693)" fill="#da5742"/><path d="M0,2.6,5.689,0" transform="translate(135.13 44.106)" fill="#1f1f39" stroke="#1f1f39" stroke-linecap="round" stroke-miterlimit="10" stroke-width="0.579" stroke-dasharray="0 0"/><path d="M0,2.295,5.836,0" transform="translate(138.535 49.969)" fill="#1f1f39" stroke="#1f1f39" stroke-linecap="round" stroke-miterlimit="10" stroke-width="0.579" stroke-dasharray="0 0"/><path d="M0,4.589,2.03,0" transform="translate(140.058)" fill="#1f1f39" stroke="#1f1f39" stroke-linecap="round" stroke-miterlimit="10" stroke-width="0.579" stroke-dasharray="0 0"/><path d="M0,2.366,4.41,0" transform="translate(150.285 11.309)" fill="#1f1f39" stroke="#1f1f39" stroke-linecap="round" stroke-miterlimit="10" stroke-width="0.579" stroke-dasharray="0 0"/><path d="M0,0,5,.133" transform="translate(152.528 27.213)" fill="#1f1f39" stroke="#1f1f39" stroke-linecap="round" stroke-miterlimit="10" stroke-width="0.579" stroke-dasharray="0 0"/><path d="M0,0,1.824,3.569l7.817,15.3" transform="translate(108.341 147.104)" fill="none" stroke="#1f1f39" stroke-linecap="round" stroke-miterlimit="10" stroke-width="0.579" stroke-dasharray="0 0"/><path d="M0,5.846S4.544.5,7.523.087s4.5.607,4.245,3.921-5.075,6.629-5.075,6.629" transform="translate(119.155 39.333)" fill="#da5742" stroke="#1f1f39" stroke-linecap="round" stroke-miterlimit="10" stroke-width="0.579" stroke-dasharray="0 0"/><path d="M7.614.308A6.825,6.825,0,0,0,4.458.073,10.179,10.179,0,0,0,0,1.723,7.785,7.785,0,0,0,.4,2.878,3.641,3.641,0,0,0,7,2.623,7.544,7.544,0,0,0,7.614.308Z" transform="translate(78.764 114.142)" fill="#f9d2dd"/><g transform="translate(66.263 104.879)"><g transform="translate(0 0)"><path d="M5.458,6.751C2.444,6.751,0,5.24,0,3.375S2.444,0,5.458,0s5.458,1.511,5.458,3.375S8.472,6.751,5.458,6.751Z" transform="translate(21.395 0.882) rotate(-4.633)" fill="#c43d28"/><path d="M5.458,6.751C2.444,6.751,0,5.24,0,3.375S2.444,0,5.458,0s5.458,1.511,5.458,3.375S8.472,6.751,5.458,6.751Z" transform="translate(0 3.62) rotate(-4.633)" fill="#c43d28"/></g></g><path d="M0,0H154.012" transform="translate(0 237.61)" fill="#1f1f39" stroke="#1f1f39" stroke-miterlimit="10" stroke-width="0.579" stroke-dasharray="0 0"/><path d="M18.668,60.239c5.582-9.433,12.963-32.006,15.487-36.4A7.207,7.207,0,0,1,40.823,19.9S39.981,8.994,39.981,5.17,42.518-1.2,44.8.581s4.06,15.042,4.06,15.042S54.136,4.375,56.828,4.645s3.451,2.565,2.182,7.409a86.6,86.6,0,0,1-3.552,10.2S59.771,19.7,61.8,22s-1.522,7.9-4.313,11.728a46.782,46.782,0,0,0-3.806,5.864S44.294,88.283,39.22,101.54,24,119.9,15.623,119.131-3.153,111.993.907,95.421C.907,95.421,13.086,69.672,18.668,60.239Z" transform="translate(8.988 124.852)" fill="#da5742"/><path d="M0,4.334s.254,4.079,2.537,5.1,3.806-1.02,4.313-3.059S6.851,0,6.851,0" transform="translate(45.163 150.163)" fill="none" stroke="#1f1f39" stroke-linecap="round" stroke-miterlimit="10" stroke-width="0.579" stroke-dasharray="0 0"/><path d="M0,8.923s.761,2.8,3.045,2.04S5.836,7.9,6.089,5.354A22.466,22.466,0,0,0,5.836,0" transform="translate(52.014 148.888)" fill="none" stroke="#1f1f39" stroke-linecap="round" stroke-miterlimit="10" stroke-width="0.579" stroke-dasharray="0 0"/><path d="M0,3.569S1.776,2.04,2.791,1.275A15.554,15.554,0,0,0,4.313,0" transform="translate(60.133 147.104)" fill="none" stroke="#1f1f39" stroke-linecap="round" stroke-miterlimit="10" stroke-width="0.579" stroke-dasharray="0 0"/><path d="M0,2.437S.5.653,5.072.143a21.2,21.2,0,0,1,7.866.51" transform="translate(44.659 144.666)" fill="none" stroke="#1f1f39" stroke-linecap="round" stroke-miterlimit="10" stroke-width="0.579" stroke-dasharray="0 0"/></g></g></g><g transform="translate(0 15.427)"><rect width="196.917" height="175.249" transform="translate(22.038)" fill="none"/><path d="M169.006,140.629s15.834-15.566,20.933-32.742,9.393-35.426-16.1-44.819-60.921,7.515-91.784,17.981S17.911,85.075,6.639,66.02-2.486,16.1,20.326,0" fill="none" stroke="#fff" stroke-linecap="round" stroke-miterlimit="10" stroke-width="0.974" stroke-dasharray="2.923 2.923"/><path d="M28.716,0,0,34.62l31.668-16.1Z" transform="translate(135.191 140.629)" fill="#dadaf7"/><path d="M40.793,0,61.726,3.489,0,34.62Z" transform="translate(135.191 140.629)" fill="#f4f3fd"/><path d="M0,37.3,14.492,0,28.716,2.684Z" transform="translate(135.191 137.945)" fill="#f4f3fd"/></g><g transform="translate(44.076 81.541)"><text transform="translate(0 22)" fill="#1f1f39" font-size="21" font-family="SegoeUI, Segoe UI"><tspan x="0" y="0">Product</tspan><tspan x="0" y="28">Design v1.0</tspan></text></g><g transform="translate(44.076 39.668)"><path d="M88.791,0A4.408,4.408,0,0,1,91.57.987L103.776,10.9a4.408,4.408,0,0,1,0,6.842L91.57,27.663a4.408,4.408,0,0,1-2.779.987H4.408A4.408,4.408,0,0,1,0,24.242V4.408A4.408,4.408,0,0,1,4.408,0Z" transform="translate(0 0)" fill="#ffd301"/><text transform="translate(43.57 17.408)" fill="#1f1f39" font-size="12" font-family="SegoeUI, Segoe UI"><tspan x="-31.184" y="0">BESTSELLER</tspan></text></g></g></svg>