<svg xmlns="http://www.w3.org/2000/svg" width="36.792" height="36.792" viewBox="0 0 36.792 36.792"><rect width="36.792" height="36.792" fill="none"/><path d="M18.4,36.792a18.4,18.4,0,1,1,18.4-18.4A18.4,18.4,0,0,1,18.4,36.792Z" fill="#bfe3c6"/><path d="M0,.118A1.117,1.117,0,0,1,.682.011a1.239,1.239,0,0,1,.611.214" transform="translate(19.951 12.765)" fill="#fff"/><path d="M1.294.118A1.117,1.117,0,0,0,.611.011,1.239,1.239,0,0,0,0,.225" transform="translate(16.58 12.765)" fill="#fff"/><g transform="translate(6.522 21.837)"><path d="M0,0,1.751,4.676A18.422,18.422,0,0,0,5.958,1.929c-.309-.9-.576-1.584-.576-1.584Z" transform="translate(17.975 8.522)" fill="#da5742"/><path d="M4.225,4.89,6.053,0,.671.344C.665.35.344,1.175,0,2.208A18.285,18.285,0,0,0,4.225,4.89Z" transform="translate(0 8.398)" fill="#da5742"/><path d="M0,0,.605,1.59l5.341.332C5.655,1.086,5.382.344,5.382.344Z" transform="translate(17.975 8.522)" fill="#c43d28"/><path d="M6.029,0,5.424,1.59,0,2.119C.291,1.288.647.344.647.344Z" transform="translate(0.077 8.226)" fill="#c43d28"/><path d="M5.881,1.2C3.531,2.262.949,5.561,0,9.43H4.2l-.694,3.513a18.318,18.318,0,0,0,8.361,2.006,18.285,18.285,0,0,0,8.391-2.024l-.742-3.044,4.249-.38c.006.006-.973-5.454-5.454-8.035C14.723-.6,9.192-.29,5.881,1.2Z" transform="translate(0 0)" fill="#3d5cff"/><path d="M2.5,0,0,3.982l1.418-.006Z" transform="translate(2.854 5.454)" fill="#224bf4"/><path d="M1.555,4.931l1.264-.107L0,0Z" transform="translate(17.975 4.956)" fill="#224bf4"/><path d="M.043,4.517A.061.061,0,0,1,0,4.446L1.188.043A.061.061,0,0,1,1.259,0,.061.061,0,0,1,1.3.072L.114,4.476a.057.057,0,0,1-.053.042Z" transform="translate(4.218 4.979)" fill="#1f1f39"/><path d="M1.523,5.006,0,.075A.055.055,0,0,1,.039,0,.055.055,0,0,1,.111.039L1.63,4.971a.055.055,0,0,1-.036.071c-.006,0-.012.006-.018.006A.057.057,0,0,1,1.523,5.006Z" transform="translate(17.894 4.881)" fill="#1f1f39"/></g><path d="M2.062,7.953S.674,7.953.3,7.347A.791.791,0,0,1,.472,6.309,2.154,2.154,0,0,1,.116,4.4,1.423,1.423,0,0,1,1.682,3.55,2.233,2.233,0,0,1,1.86,1.069c1.2-1.306,3.2,0,3.2,0a1.01,1.01,0,0,1,1-.849c.866,0,.866.522.866.522A2,2,0,0,1,9.071.09,2.513,2.513,0,0,1,10.726,2.9a.9.9,0,0,1,1.068.718,1,1,0,0,1-.6,1.24S12,4.725,12.2,5.377a1.325,1.325,0,0,1-.534,1.5L11.2,9.163l-8.949.368Z" transform="translate(12.417 5.399)" fill="#1f1f39"/><g transform="translate(12.114 10.02)"><g transform="translate(0)"><path d="M.816.147A1.673,1.673,0,0,0,.478,2.776c.73.843,2.57.647,2.57.647L2.78.408A2.167,2.167,0,0,0,.816.147Z" transform="translate(0 2.983)" fill="#c43d28"/><g transform="translate(1.207)"><path d="M2.231.153A1.67,1.67,0,0,1,2.57,2.782C1.84,3.625,0,3.429,0,3.429L.493.373A1.682,1.682,0,0,1,2.231.153Z" transform="translate(8.974 2.977)" fill="#c43d28"/><path d="M0,1.807A2.035,2.035,0,0,1,.4.828,2.231,2.231,0,0,1,1.555,0a.07.07,0,0,1,.089.053A.07.07,0,0,1,1.59.145,2.11,2.11,0,0,0,.516.905a1.917,1.917,0,0,0-.374.9.072.072,0,0,1-.071.071A.072.072,0,0,1,0,1.807Z" transform="translate(9.496 3.976)" fill="#1f1f39"/><path d="M1.5,1.8A1.939,1.939,0,0,0,1.129.9,2.068,2.068,0,0,0,.055.143.078.078,0,0,1,0,.054.08.08,0,0,1,.09,0,2.192,2.192,0,0,1,1.247.826a1.978,1.978,0,0,1,.4.979.071.071,0,0,1-.142,0Z" transform="translate(0 3.978)" fill="#1f1f39"/><path d="M1.946,9.124,1.7,12.495s.338.742,2.13.742c1.94,0,2.475-.742,2.475-.742L6.213,9.177s1.211-.2,1.792-2.38A11.24,11.24,0,0,0,8.3,2.685s-2.86.445-3.828-.742S2.528-.436,1.122.157-.107,4.578.261,6.4A4.781,4.781,0,0,0,1.946,9.124Z" transform="translate(1.443)" fill="#da5742"/><path d="M.439,1.044A.486.486,0,0,1,0,.522.486.486,0,0,1,.439,0,.486.486,0,0,1,.878.522.486.486,0,0,1,.439,1.044Z" transform="translate(3.579 3.534)" fill="#1f1f39"/><path d="M.439,1.044A.486.486,0,0,1,0,.522.486.486,0,0,1,.439,0,.486.486,0,0,1,.878.522.486.486,0,0,1,.439,1.044Z" transform="translate(6.778 3.534)" fill="#1f1f39"/><path d="M.045,1.561c.148.3.534.148.534.148s-.386-.1-.386-.4S.164,0,.164,0A4.736,4.736,0,0,0,.045,1.561Z" transform="translate(5.238 3.213)" fill="#1f1f39"/><path d="M0,2.457A22.392,22.392,0,0,0,3.81.653c0-.344.012-.6.012-.6a3.961,3.961,0,0,1-1.988.3A4.2,4.2,0,0,1,.137,0C.142.3.03,2.338,0,2.457Z" transform="translate(3.253 9.124)" fill="#c43d28"/><g transform="translate(2.084 4.679)"><path d="M.944,1.187C.422,1.187,0,.921,0,.593S.422,0,.944,0s.944.266.944.593S1.465,1.187.944,1.187Z" transform="translate(4.991)" fill="#c43d28"/><path d="M.944,1.187C.422,1.187,0,.921,0,.593S.422,0,.944,0s.944.266.944.593S1.465,1.187.944,1.187Z" transform="translate(0 0)" fill="#c43d28"/></g></g></g><path d="M.719.442A3.177,3.177,0,0,0,1.431.026s.119-.059.178,0A1.311,1.311,0,0,1,.956.857a.784.784,0,0,1-.89-.3C-.112.323.126.382.126.382A1.332,1.332,0,0,0,.719.442Z" transform="translate(6.097 5.561)" fill="#fff"/><path d="M1.721,1.6c.89.237.724.653,1.11.475s.5-.534,1.282-.415.611.534,1.11.475A4.3,4.3,0,0,0,6.943,1.127c.386-.356.944-.949.944-.949S7.531,2.67,5.548,3.264C4.059,3.709,1.946,3.5,1,2.136A5.03,5.03,0,0,1,0,0S.831,1.365,1.721,1.6Z" transform="translate(2.84 6.299)" fill="#1f1f39"/><path d="M.032.489a.069.069,0,0,1-.018-.1L.252.032a.069.069,0,0,1,.1-.018.069.069,0,0,1,.018.1L.133.471A.073.073,0,0,1,.074.5.11.11,0,0,1,.032.489Z" transform="translate(5.437 7.116)" fill="#1f1f39"/><path d="M.013.351A.074.074,0,0,1,.03.25L.386.013a.074.074,0,0,1,.1.018.074.074,0,0,1-.018.1L.114.369A.086.086,0,0,1,.072.381.073.073,0,0,1,.013.351Z" transform="translate(4.192 7.005)" fill="#1f1f39"/><path d="M0,.368v-.3A.072.072,0,0,1,.071,0,.077.077,0,0,1,.142.071v.3A.069.069,0,0,1,.071.439.072.072,0,0,1,0,.368Z" transform="translate(6.744 7.296)" fill="#1f1f39"/><path d="M.125.4.006.1A.072.072,0,0,1,.048.006.072.072,0,0,1,.143.048l.119.3A.072.072,0,0,1,.22.439C.214.445.208.445.2.445A.077.077,0,0,1,.125.4Z" transform="translate(7.747 7.112)" fill="#1f1f39"/><path d="M.453.376.038.139a.076.076,0,0,1-.03-.1.076.076,0,0,1,.1-.03L.524.246A.076.076,0,0,1,.489.388.084.084,0,0,1,.453.376Z" transform="translate(8.76 7.051)" fill="#1f1f39"/></g><g transform="translate(6.739 24.512)" opacity="0.592"><g transform="translate(2.852 0)" opacity="0.592"><path d="M.161.383a.479.479,0,0,0,.374.03C.69.371.85.294,1,.377a.339.339,0,0,1,.166.38c-.012.053.071.077.083.024A.422.422,0,0,0,.79.259,2.465,2.465,0,0,1,.328.354C.155.342.114.187.084.039A.043.043,0,1,0,0,.057.492.492,0,0,0,.161.383Z" transform="translate(5.403 1.204)" fill="#bfe3c6" opacity="0.592"/><path d="M.048.461A.737.737,0,0,0,.356.77C.493.853.635.96.6,1.138s-.225.3-.38.386A.045.045,0,0,0,.267,1.6a.877.877,0,0,0,.392-.356A.37.37,0,0,0,.6.835C.493.722.338.669.232.562A.465.465,0,0,1,.137.046C.148,0,.059-.02.042.028A.549.549,0,0,0,.048.461Z" transform="translate(4.68 4.075)" fill="#bfe3c6" opacity="0.592"/><path d="M.087,1.095A.277.277,0,0,1,.206.8C.431.662.657.869.877.887c.2.018.332-.16.386-.338A.66.66,0,0,0,1.185.021a.045.045,0,0,0-.077.047A.555.555,0,0,1,1.12.65a.244.244,0,0,1-.3.131C.7.751.609.691.5.674a.412.412,0,0,0-.463.19A.581.581,0,0,0,0,1.148a1.721,1.721,0,0,0,.053.35c.012.053.095.03.083-.024A1.674,1.674,0,0,1,.087,1.095Z" transform="translate(0 1.893)" fill="#bfe3c6" opacity="0.592"/><path d="M.16.19A.167.167,0,0,1,.309.208,1.487,1.487,0,0,1,.546.4a1.093,1.093,0,0,0,.54.243A.577.577,0,0,0,1.751.03C1.739-.023,1.656,0,1.668.054a.46.46,0,0,1-.315.475A.73.73,0,0,1,.73.428,1.744,1.744,0,0,1,.469.22.45.45,0,0,0,.243.1C.1.078-.053.22.018.362.042.41.119.368.1.315S.119.214.16.19Z" transform="translate(2.93 8.874)" fill="#bfe3c6" opacity="0.592"/><path d="M0,.494A.518.518,0,0,0,.249.9c.148.113.362.214.4.415.036.226-.225.273-.392.255C.2,1.568.2,1.657.255,1.663a.45.45,0,0,0,.439-.154.379.379,0,0,0-.107-.463C.451.909.255.844.148.678A.517.517,0,0,1,.285.073C.32.037.255-.028.22.013A.74.74,0,0,0,0,.494Z" transform="translate(9.125 7.407)" fill="#bfe3c6" opacity="0.592"/><path d="M.553.243A.475.475,0,0,0,.571.736.818.818,0,0,1,.7,1.021.386.386,0,0,1,.619,1.3a.364.364,0,0,1-.54.03.046.046,0,0,0-.065.065.475.475,0,0,0,.51.089.464.464,0,0,0,.261-.439C.773.837.577.688.577.475A.394.394,0,0,1,.945.089.045.045,0,1,0,.945,0,.473.473,0,0,0,.553.243Z" transform="translate(13.545 8.702)" fill="#bfe3c6" opacity="0.592"/><path d="M.046.768a1.43,1.43,0,0,0,.309.421c.071.077.131.19.018.261a.569.569,0,0,1-.326.065.045.045,0,1,0,0,.089c.148.006.409-.024.469-.184S.419,1.13.324,1.029A.767.767,0,0,1,.087.5a.431.431,0,0,1,.285-.4A.046.046,0,1,0,.348,0,.566.566,0,0,0,.046.768Z" transform="translate(11.435 0)" fill="#bfe3c6" opacity="0.592"/><path d="M.569.145C.747.24.783.46.842.632a.562.562,0,0,0,.332.38.8.8,0,0,0,.54,0A.823.823,0,0,0,2.148.543C2.172.489,2.083.466,2.065.519a.724.724,0,0,1-.427.427.633.633,0,0,1-.57-.107C.925.709.914.5.842.323A.507.507,0,0,0,.51.015.521.521,0,0,0,.018.151C-.03.2.029.264.071.222A.414.414,0,0,1,.569.145Z" transform="translate(10.84 4.082)" fill="#bfe3c6" opacity="0.592"/><path d="M.594.171A.727.727,0,0,0,.6.633c.03.154.036.332-.119.421a.31.31,0,0,1-.4-.107C.054.9-.023.948.007,1a.409.409,0,0,0,.362.19A.374.374,0,0,0,.689.942a1.122,1.122,0,0,0-.036-.5A.353.353,0,0,1,.7.182.172.172,0,0,1,.885.105C.938.111.962.028.909.01A.276.276,0,0,0,.594.171Z" transform="translate(16.281 2.378)" fill="#bfe3c6" opacity="0.592"/></g><path d="M4.35,0V.059H0V0Z" transform="translate(19.01 6.438) rotate(-5.947)" fill="#bfe3c6" opacity="0.592"/><path d="M4.285,0V.059H0V0Z" transform="translate(0 5.857) rotate(-1.231)" fill="#bfe3c6" opacity="0.592"/></g></svg>