<svg id="Fill_1" data-name="Fill 1" xmlns="http://www.w3.org/2000/svg" width="25.272" height="16" viewBox="0 0 25.272 16">
  <g id="Fill_1-2" data-name="Fill 1" transform="translate(0)">
    <path id="Fill_1-3" data-name="Fill 1" d="M5.706,6.437l4.03-4.03a.67.67,0,0,0,0-.947L8.474.2a.67.67,0,0,0-.947,0L.2,7.526a.67.67,0,0,0,0,.947l7.33,7.33a.67.67,0,0,0,.947,0l1.263-1.263a.67.67,0,0,0,0-.947l-4.03-4.03H24.6a.67.67,0,0,0,.67-.67V7.107a.67.67,0,0,0-.67-.67Z" transform="translate(0)" fill="#1e253a"/>
  </g>
</svg>
