<svg xmlns="http://www.w3.org/2000/svg" width="19.283" height="24.103" viewBox="0 0 19.283 24.103">
  <g id="icon_footer_course_off" data-name="icon/footer/course/off" transform="translate(-4 -2.471)">
    <path id="Subtract" d="M18.078,24.1H3.615A3.619,3.619,0,0,1,0,20.488V3.615A3.619,3.619,0,0,1,3.615,0H16.873a2.413,2.413,0,0,1,2.41,2.41V18.066a1.238,1.238,0,0,1-.137.568l-.657,1.315a1.215,1.215,0,0,0,0,1.078l.655,1.31a1.187,1.187,0,0,1,.139.561A1.206,1.206,0,0,1,18.078,24.1ZM3.615,19.283a1.205,1.205,0,1,0,0,2.41H16.158a3.628,3.628,0,0,1,0-2.41ZM7.231,6.026a1.205,1.205,0,0,0,0,2.41h4.82a1.205,1.205,0,1,0,0-2.41Z" transform="translate(4 2.471)" fill="#f4f3fd"/>
  </g>
</svg>
