<svg xmlns="http://www.w3.org/2000/svg" width="141.403" height="140" viewBox="0 0 141.403 140"><g transform="translate(1.403)"><rect width="140" height="140" fill="none"/><rect width="67.171" height="67.171" rx="33.585" transform="translate(36.415 34.978)" fill="#3d5cff"/><path d="M0,10.1l9.695,9.695L29.488,0" transform="translate(55.256 58.752)" fill="none" stroke="#fff" stroke-linecap="round" stroke-linejoin="round" stroke-width="5" stroke-dasharray="0 0"/><path d="M0,0A13.026,13.026,0,0,1,7.271,4.6a20.242,20.242,0,0,1,2.542,8.1" transform="translate(104.097 107.24)" fill="none" stroke="#bae0db" stroke-linecap="round" stroke-linejoin="round" stroke-width="2" stroke-dasharray="0 0"/><path d="M30.979,3.555c-2.117,2.437-7.658,6.811-12.892,4.81-6.542-2.5-6.35-6.35-4.233-7.889s5,.962,5.58,3.079-.385,9.236-5.58,11.93S1.732,16.832,0,15.485" transform="translate(0 80.788)" fill="none" stroke="#efe0ff" stroke-linecap="round" stroke-linejoin="round" stroke-width="2" stroke-dasharray="0 0"/><path d="M20.588.04c-2.5-.321-7.735,1.154-8.659,9.621S3.592,19.859,0,19.666" transform="translate(93.803 16.188)" fill="none" stroke="#3d5cff" stroke-linecap="round" stroke-linejoin="round" stroke-width="2" stroke-dasharray="0 0"/><circle cx="4.618" cy="4.618" r="4.618" transform="translate(15.49 46.491)" fill="#f99a3d"/><circle cx="3.848" cy="3.848" r="3.848" transform="translate(44.184 11.033)" fill="#ffe7ee"/><circle cx="2.296" cy="2.296" r="2.296" transform="translate(57.473 19.884)" fill="#ffe7ee"/><circle cx="4.137" cy="4.137" r="4.137" transform="translate(116.989 61.622)" fill="#efe0ff"/><circle cx="4.137" cy="4.137" r="4.137" transform="translate(30.979 108.571)" fill="#ffe7ee"/><circle cx="4.137" cy="4.137" r="4.137" transform="translate(82.546 120.694)" fill="#f9d2dd"/><circle cx="2.296" cy="2.296" r="2.296" transform="translate(71.591 118.397)" fill="#3d5cff"/></g></svg>