<svg xmlns="http://www.w3.org/2000/svg" width="150.623" height="150.623" viewBox="0 0 150.623 150.623">
  <g id="Group_55" data-name="Group 55" transform="translate(-113.864 -226.261)">
    <g id="Avatar_03" data-name="Avatar 03" transform="translate(113.864 226.261)">
      <rect id="Avatar_03_Background_" data-name="Avatar 03 (Background)" width="150.623" height="150.623" fill="none"/>
      <path id="Vector" d="M75.312,150.623a75.312,75.312,0,1,1,75.312-75.312A75.312,75.312,0,0,1,75.312,150.623Z" fill="#b2b2b2"/>
      <path id="Vector-2" data-name="Vector" d="M0,.482A4.572,4.572,0,0,1,2.794.045,5.071,5.071,0,0,1,5.3.919" transform="translate(81.676 52.26)" fill="#fff"/>
      <path id="Vector-3" data-name="Vector" d="M5.3.482A4.572,4.572,0,0,0,2.5.045,5.072,5.072,0,0,0,0,.919" transform="translate(67.877 52.26)" fill="#fff"/>
      <g id="Group" transform="translate(26.699 89.399)">
        <path id="Vector-4" data-name="Vector" d="M0,0,7.167,19.144A75.419,75.419,0,0,0,24.391,7.9C23.128,4.2,22.035,1.409,22.035,1.409Z" transform="translate(73.587 34.89)" fill="#da5742"/>
        <path id="Vector-5" data-name="Vector" d="M17.3,20.018,24.78,0,2.745,1.409C2.721,1.433,1.409,4.81,0,9.037A74.857,74.857,0,0,0,17.3,20.018Z" transform="translate(0 34.38)" fill="#da5742"/>
        <path id="Vector-6" data-name="Vector" d="M0,0,2.478,6.511l21.865,1.36c-1.19-3.425-2.308-6.462-2.308-6.462Z" transform="translate(73.587 34.89)" fill="#c43d28"/>
        <path id="Vector-7" data-name="Vector" d="M24.683,0,22.2,6.511,0,8.673c1.19-3.4,2.648-7.264,2.648-7.264Z" transform="translate(0.316 33.675)" fill="#c43d28"/>
        <path id="Vector-8" data-name="Vector" d="M24.075,4.911C14.455,9.259,3.887,22.767,0,38.607H17.2L14.358,52.989A74.991,74.991,0,0,0,48.588,61.2,74.858,74.858,0,0,0,82.94,52.916L79.9,40.453,97.3,38.9c.024.024-3.984-22.326-22.326-32.894C60.274-2.45,37.632-1.187,24.075,4.911Z" transform="translate(0 0)" fill="#3d5cff"/>
        <path id="Vector-9" data-name="Vector" d="M10.228,0,0,16.3l5.806-.024Z" transform="translate(11.686 22.33)" fill="#224bf4"/>
        <path id="Vector-10" data-name="Vector" d="M6.365,20.188l5.175-.437L0,0Z" transform="translate(73.587 20.289)" fill="#224bf4"/>
        <path id="Vector-11" data-name="Vector" d="M.175,18.492A.25.25,0,0,1,0,18.2L4.863.175A.25.25,0,0,1,5.155,0,.25.25,0,0,1,5.325.3L.466,18.322a.233.233,0,0,1-.219.17Z" transform="translate(17.268 20.382)" fill="#1f1f39"/>
        <path id="Vector-12" data-name="Vector" d="M6.235,20.5.015.307A.226.226,0,0,1,.161.015.226.226,0,0,1,.452.161L6.672,20.349a.226.226,0,0,1-.146.292c-.024,0-.049.024-.073.024A.233.233,0,0,1,6.235,20.5Z" transform="translate(73.256 19.983)" fill="#1f1f39"/>
      </g>
      <path id="Vector-13" data-name="Vector" d="M8.443,32.558s-5.685,0-7.215-2.478a3.239,3.239,0,0,1,.7-4.251S-1.154,21.747.474,18.005a5.827,5.827,0,0,1,6.414-3.474s-3.28-5.806.729-10.155c4.907-5.345,13.119,0,13.119,0A4.136,4.136,0,0,1,24.841.9c3.547,0,3.547,2.138,3.547,2.138A8.178,8.178,0,0,1,37.134.368c8.187,2.405,6.778,11.491,6.778,11.491a3.679,3.679,0,0,1,4.373,2.94,4.094,4.094,0,0,1-2.454,5.077s3.3-.534,4.13,2.138a5.425,5.425,0,0,1-2.186,6.146l-1.919,9.353L9.22,39.02Z" transform="translate(50.835 22.104)" fill="#1f1f39"/>
      <g id="Group-2" data-name="Group" transform="translate(49.595 41.019)">
        <g id="Group-3" data-name="Group" transform="translate(0 0)">
          <path id="Vector-14" data-name="Vector" d="M3.342.6C-.618,2.425-1.031,7.915,1.957,11.365s10.519,2.648,10.519,2.648L11.383,1.672S7.3-1.219,3.342.6Z" transform="translate(0 12.213)" fill="#c43d28"/>
          <g id="Group-4" data-name="Group" transform="translate(4.94)">
            <path id="Vector-15" data-name="Vector" d="M9.134.628c3.984,1.822,4.373,7.312,1.385,10.762S0,14.039,0,14.039L2.016,1.527A6.886,6.886,0,0,1,9.134.628Z" transform="translate(36.737 12.187)" fill="#c43d28"/>
            <path id="Vector-16" data-name="Vector" d="M0,7.4A8.332,8.332,0,0,1,1.628,3.389,9.132,9.132,0,0,1,6.365.013.288.288,0,0,1,6.73.231.288.288,0,0,1,6.511.6a8.637,8.637,0,0,0-4.4,3.11A7.847,7.847,0,0,0,.583,7.4a.3.3,0,0,1-.291.292A.3.3,0,0,1,0,7.4Z" transform="translate(38.875 16.277)" fill="#1f1f39"/>
            <path id="Vector-17" data-name="Vector" d="M6.151,7.389A7.94,7.94,0,0,0,4.62,3.7,8.467,8.467,0,0,0,.223.587.318.318,0,0,1,0,.222.328.328,0,0,1,.369,0,8.972,8.972,0,0,1,5.106,3.381,8.1,8.1,0,0,1,6.734,7.389a.292.292,0,0,1-.583,0Z" transform="translate(0 16.286)" fill="#1f1f39"/>
            <path id="Vector-18" data-name="Vector" d="M7.969,37.352l-1,13.8s1.385,3.037,8.722,3.037c7.944,0,10.131-3.037,10.131-3.037l-.389-13.58s4.956-.8,7.337-9.742a46.017,46.017,0,0,0,1.19-16.836s-11.71,1.822-15.67-3.037S10.349-1.785,4.592.644-.437,18.743,1.069,26.2A19.574,19.574,0,0,0,7.969,37.352Z" transform="translate(5.908)" fill="#da5742"/>
            <path id="Vector-19" data-name="Vector" d="M1.8,4.276A1.99,1.99,0,0,1,0,2.138,1.99,1.99,0,0,1,1.8,0,1.99,1.99,0,0,1,3.6,2.138,1.99,1.99,0,0,1,1.8,4.276Z" transform="translate(14.654 14.467)" fill="#1f1f39"/>
            <path id="Vector-20" data-name="Vector" d="M1.8,4.276A1.99,1.99,0,0,1,0,2.138,1.99,1.99,0,0,1,1.8,0,1.99,1.99,0,0,1,3.6,2.138,1.99,1.99,0,0,1,1.8,4.276Z" transform="translate(27.748 14.467)" fill="#1f1f39"/>
            <path id="Vector-21" data-name="Vector" d="M.184,6.389C.791,7.6,2.37,7,2.37,7S.791,6.584.791,5.369.67,0,.67,0-.424,5.175.184,6.389Z" transform="translate(21.442 13.155)" fill="#1f1f39"/>
            <path id="Vector-22" data-name="Vector" d="M0,10.058c.121-.024,13.143-5.077,15.6-7.385,0-1.409.049-2.454.049-2.454S13.265,1.628,7.507,1.433C4.835,1.336,1.944.826.559,0,.583,1.239.121,9.572,0,10.058Z" transform="translate(13.318 37.352)" fill="#c43d28"/>
            <g id="Group-5" data-name="Group" transform="translate(8.532 19.156)">
              <path id="Vector-23" data-name="Vector" d="M3.863,4.859C1.729,4.859,0,3.771,0,2.429S1.729,0,3.863,0,7.725,1.088,7.725,2.429,6,4.859,3.863,4.859Z" transform="translate(20.431)" fill="#c43d28"/>
              <path id="Vector-24" data-name="Vector" d="M3.863,4.859C1.729,4.859,0,3.771,0,2.429S1.729,0,3.863,0,7.725,1.088,7.725,2.429,6,4.859,3.863,4.859Z" transform="translate(0 0)" fill="#c43d28"/>
            </g>
          </g>
        </g>
        <path id="Vector-25" data-name="Vector" d="M2.943,1.809A13.008,13.008,0,0,0,5.859.108s.486-.243.729,0S5.276,3.12,3.915,3.509A3.208,3.208,0,0,1,.271,2.294c-.729-.972.243-.729.243-.729A5.454,5.454,0,0,0,2.943,1.809Z" transform="translate(24.959 22.765)" fill="#fff"/>
        <path id="Vector-26" data-name="Vector" d="M7.045,6.559c3.644.972,2.964,2.672,4.543,1.944,1.6-.729,2.041-2.186,5.247-1.7,3.183.486,2.5,2.186,4.543,1.944s5.466-2.672,7.045-4.13S32.287.729,32.287.729s-1.458,10.2-9.572,12.633c-6.1,1.822-14.747.972-18.609-4.616S0,0,0,0,3.4,5.588,7.045,6.559Z" transform="translate(11.626 25.789)" fill="#1f1f39"/>
        <path id="Vector-27" data-name="Vector" d="M.131,2a.283.283,0,0,1-.073-.413L1.03.131A.283.283,0,0,1,1.443.058a.283.283,0,0,1,.073.413L.544,1.929A.3.3,0,0,1,.3,2.05.451.451,0,0,1,.131,2Z" transform="translate(22.257 29.132)" fill="#1f1f39"/>
        <path id="Vector-28" data-name="Vector" d="M.052,1.436a.3.3,0,0,1,.073-.413L1.582.052A.3.3,0,0,1,2,.125a.3.3,0,0,1-.073.413L.465,1.509a.351.351,0,0,1-.17.049A.3.3,0,0,1,.052,1.436Z" transform="translate(17.162 28.676)" fill="#1f1f39"/>
        <path id="Vector-29" data-name="Vector" d="M0,1.506V.292A.3.3,0,0,1,.292,0,.314.314,0,0,1,.583.292V1.506A.281.281,0,0,1,.292,1.8.3.3,0,0,1,0,1.506Z" transform="translate(27.611 29.87)" fill="#1f1f39"/>
        <path id="Vector-30" data-name="Vector" d="M.511,1.628.025.413A.3.3,0,0,1,.195.025a.3.3,0,0,1,.389.17L1.069,1.41A.3.3,0,0,1,.9,1.8c-.024.024-.049.024-.1.024A.316.316,0,0,1,.511,1.628Z" transform="translate(31.716 29.116)" fill="#1f1f39"/>
        <path id="Vector-31" data-name="Vector" d="M1.856,1.54.155.568A.311.311,0,0,1,.033.155.311.311,0,0,1,.447.033l1.7.972A.313.313,0,0,1,2,1.588.345.345,0,0,1,1.856,1.54Z" transform="translate(35.862 28.865)" fill="#1f1f39"/>
      </g>
      <g id="Group-6" data-name="Group" transform="translate(27.589 100.348)" opacity="0.592">
        <g id="Group-7" data-name="Group" transform="translate(11.677 0)" opacity="0.592">
          <path id="Vector-32" data-name="Vector" d="M.661,1.569a1.96,1.96,0,0,0,1.531.121c.632-.17,1.288-.486,1.919-.146A1.388,1.388,0,0,1,4.791,3.1c-.049.219.292.316.34.1A1.729,1.729,0,0,0,3.236,1.059a10.092,10.092,0,0,1-1.895.389C.636,1.4.466.767.345.16A.175.175,0,1,0,0,.233,2.013,2.013,0,0,0,.661,1.569Z" transform="translate(22.12 4.928)" fill="#bfe3c6" opacity="0.592"/>
          <path id="Vector-33" data-name="Vector" d="M.195,1.888A3.017,3.017,0,0,0,1.458,3.151c.559.34,1.142.777,1,1.506C2.284,5.435,1.531,5.872.9,6.236a.186.186,0,0,0,.194.316A3.592,3.592,0,0,0,2.7,5.095a1.514,1.514,0,0,0-.243-1.676C2.017,2.957,1.385,2.738.948,2.3A1.9,1.9,0,0,1,.559.187C.608-.007.243-.08.171.114A2.249,2.249,0,0,0,.195,1.888Z" transform="translate(19.16 16.683)" fill="#bfe3c6" opacity="0.592"/>
          <path id="Vector-34" data-name="Vector" d="M.357,4.482a1.135,1.135,0,0,1,.486-1.19c.923-.583,1.846.267,2.745.34.826.073,1.36-.656,1.579-1.385A2.7,2.7,0,0,0,4.852.085a.186.186,0,0,0-.316.194A2.271,2.271,0,0,1,4.584,2.66a1,1,0,0,1-1.239.535c-.462-.121-.85-.364-1.312-.437a1.685,1.685,0,0,0-1.895.777A2.377,2.377,0,0,0,.017,4.7,7.045,7.045,0,0,0,.236,6.134c.049.219.389.121.34-.1A6.854,6.854,0,0,1,.357,4.482Z" transform="translate(0 7.748)" fill="#bfe3c6" opacity="0.592"/>
          <path id="Vector-35" data-name="Vector" d="M.657.779a.682.682,0,0,1,.607.073,6.087,6.087,0,0,1,.972.8,4.474,4.474,0,0,0,2.211,1A2.362,2.362,0,0,0,7.167.123C7.119-.1,6.779,0,6.827.22A1.882,1.882,0,0,1,5.54,2.164a2.99,2.99,0,0,1-2.551-.413A7.141,7.141,0,0,1,1.92.9,1.843,1.843,0,0,0,1,.39C.414.318-.218.9.073,1.484c.1.194.413.024.316-.194S.487.876.657.779Z" transform="translate(11.993 36.328)" fill="#bfe3c6" opacity="0.592"/>
          <path id="Vector-36" data-name="Vector" d="M0,2.023A2.121,2.121,0,0,0,1.02,3.7c.607.462,1.482.875,1.628,1.7.146.923-.923,1.117-1.6,1.045-.243-.024-.219.34,0,.364a1.843,1.843,0,0,0,1.8-.632,1.55,1.55,0,0,0-.437-1.895c-.559-.559-1.36-.826-1.8-1.506A2.118,2.118,0,0,1,1.166.3C1.312.152,1.045-.115.9.055A3.028,3.028,0,0,0,0,2.023Z" transform="translate(37.357 30.323)" fill="#bfe3c6" opacity="0.592"/>
          <path id="Vector-37" data-name="Vector" d="M2.265,1a1.944,1.944,0,0,0,.073,2.016,3.348,3.348,0,0,1,.51,1.166A1.582,1.582,0,0,1,2.532,5.32a1.489,1.489,0,0,1-2.211.121.189.189,0,0,0-.267.267,1.945,1.945,0,0,0,2.089.364,1.9,1.9,0,0,0,1.069-1.8c-.049-.85-.85-1.458-.85-2.332A1.612,1.612,0,0,1,3.869.364a.182.182,0,1,0,0-.364A1.938,1.938,0,0,0,2.265,1Z" transform="translate(55.45 35.625)" fill="#bfe3c6" opacity="0.592"/>
          <path id="Vector-38" data-name="Vector" d="M.186,3.144A5.853,5.853,0,0,0,1.45,4.869c.292.316.535.777.073,1.069a2.33,2.33,0,0,1-1.336.267.182.182,0,1,0,0,.364c.607.024,1.676-.1,1.919-.753.243-.632-.389-1.19-.777-1.6A3.14,3.14,0,0,1,.356,2.027,1.763,1.763,0,0,1,1.523.375a.189.189,0,1,0-.1-.364A2.319,2.319,0,0,0,.186,3.144Z" transform="translate(46.815)" fill="#bfe3c6" opacity="0.592"/>
          <path id="Vector-39" data-name="Vector" d="M2.331.594c.729.389.875,1.288,1.118,1.992a2.3,2.3,0,0,0,1.36,1.555,3.289,3.289,0,0,0,2.211,0A3.369,3.369,0,0,0,8.793,2.222c.1-.219-.267-.316-.34-.1A2.962,2.962,0,0,1,6.7,3.874a2.591,2.591,0,0,1-2.332-.437C3.789,2.9,3.74,2.028,3.449,1.323A2.074,2.074,0,0,0,2.088.06,2.134,2.134,0,0,0,.072.619C-.122.837.12,1.08.291.91A1.7,1.7,0,0,1,2.331.594Z" transform="translate(44.379 16.713)" fill="#bfe3c6" opacity="0.592"/>
          <path id="Vector-40" data-name="Vector" d="M2.432.7a2.976,2.976,0,0,0,.024,1.895c.121.632.146,1.36-.486,1.725A1.268,1.268,0,0,1,.343,3.881c-.121-.194-.437,0-.316.194a1.675,1.675,0,0,0,1.482.777,1.53,1.53,0,0,0,1.312-1,4.593,4.593,0,0,0-.146-2.065A1.445,1.445,0,0,1,2.845.747.7.7,0,0,1,3.623.431c.219.024.316-.316.1-.389A1.131,1.131,0,0,0,2.432.7Z" transform="translate(66.653 9.734)" fill="#bfe3c6" opacity="0.592"/>
        </g>
        <path id="Vector-41" data-name="Vector" d="M17.808,0V.243H0V0Z" transform="translate(77.826 26.356) rotate(-5.947)" fill="#bfe3c6" opacity="0.592"/>
        <path id="Vector-42" data-name="Vector" d="M17.54,0V.243H0V0Z" transform="translate(0 23.98) rotate(-1.231)" fill="#bfe3c6" opacity="0.592"/>
      </g>
    </g>
    <g id="Icon" transform="translate(228.595 337.235)">
      <g id="Ellipse_72" data-name="Ellipse 72" fill="#3d5cff" stroke="#fff" stroke-width="1" stroke-dasharray="0 0">
        <circle cx="14.307" cy="14.307" r="14.307" stroke="none"/>
        <circle cx="14.307" cy="14.307" r="13.807" fill="none"/>
      </g>
      <g id="icon_camera" data-name="icon/camera" transform="translate(7.75 8.346)">
        <path id="Subtract" d="M11.625,11.922H1.49A1.492,1.492,0,0,1,0,10.433V3.278a1.492,1.492,0,0,1,1.49-1.49H3.506L4.236.33A.591.591,0,0,1,4.77,0H8.345A.6.6,0,0,1,8.88.33l.729,1.459h2.016a1.492,1.492,0,0,1,1.49,1.49v7.154A1.492,1.492,0,0,1,11.625,11.922ZM6.558,3.875a2.981,2.981,0,1,0,2.98,2.981A2.984,2.984,0,0,0,6.558,3.875Z" transform="translate(0 0)" fill="#fff"/>
      </g>
    </g>
  </g>
</svg>
