<svg xmlns="http://www.w3.org/2000/svg" xmlns:xlink="http://www.w3.org/1999/xlink" width="44.483" height="39.286" viewBox="0 0 44.483 39.286"><defs><clipPath id="a"><path d="M0,39.286H44.483V0H0Z" fill="none"/></clipPath></defs><path d="M43.733,36.321H.741a.741.741,0,1,1,0-1.482H42.992V.741a.741.741,0,0,1,1.482,0V35.58a.741.741,0,0,1-.741.741" transform="translate(0.009 2.965)" fill="#5a6470"/><path d="M0,39.286H44.483V0H0Z" fill="none"/><g clip-path="url(#a)"><path d="M0,16.307H8.895V0H0Z" transform="translate(4.457 19.272)" fill="#fdbd40"/><path d="M0,25.2H8.895V0H0Z" transform="translate(17.799 10.377)" fill="#e9686a"/><path d="M0,32.615H8.895V0H0Z" transform="translate(31.141 2.965)" fill="#238892"/><path d="M15.575.741l2.441,2.441L11.869,9.329l-1.7-1.7a.741.741,0,0,0-1.048,0L.226,16.524a.741.741,0,1,0,1.03,1.066l.018-.018L9.645,9.2l1.7,1.7a.741.741,0,0,0,1.048,0L19.064,4.23l2.441,2.441L22.246,0Z" transform="translate(0 0)" fill="#e9686a"/><path d="M.741,2.965A.741.741,0,0,1,0,2.224V.741a.741.741,0,0,1,1.482,0V2.224a.741.741,0,0,1-.741.741" transform="translate(6.68 30.391)" fill="#fff"/><path d="M.741,4.447A.741.741,0,0,1,0,3.706V.741a.741.741,0,0,1,1.482,0V3.706a.741.741,0,0,1-.741.741" transform="translate(6.68 24.461)" fill="#fff"/><path d="M.741,2.965A.741.741,0,0,1,0,2.224V.741a.741.741,0,0,1,1.482,0V2.224a.741.741,0,0,1-.741.741" transform="translate(20.023 30.391)" fill="#fff"/><path d="M.741,8.895A.741.741,0,0,1,0,8.154V.741a.741.741,0,0,1,1.482,0V8.154a.741.741,0,0,1-.741.741" transform="translate(20.023 20.013)" fill="#fff"/><path d="M.741,2.965A.741.741,0,0,1,0,2.224V.741a.741.741,0,0,1,1.482,0V2.224a.741.741,0,0,1-.741.741" transform="translate(33.365 30.391)" fill="#fff"/><path d="M.741,16.307A.741.741,0,0,1,0,15.566V.741a.741.741,0,0,1,1.482,0V15.566a.741.741,0,0,1-.741.741" transform="translate(33.365 12.601)" fill="#fff"/></g></svg>