<svg id="icon_filter" data-name="icon/filter" xmlns="http://www.w3.org/2000/svg" width="21" height="20" viewBox="0 0 21 20">
  <path id="Vector_Stroke_" data-name="Vector (Stroke)" d="M12,20a1,1,0,0,1-1-1V18H1a1,1,0,1,1,0-2H11V15a1,1,0,0,1,2,0v4A1,1,0,0,1,12,20Zm7-2H16a1,1,0,1,1,0-2h3a1,1,0,0,1,0,2ZM9,13a1,1,0,0,1-1-1V8a1,1,0,1,1,2,0V9H20a1,1,0,1,1,0,2H10v1A1,1,0,0,1,9,13ZM5,11H1A1,1,0,1,1,1,9H5a1,1,0,1,1,0,2Zm7-5a1,1,0,0,1-1-1V4H1A1,1,0,0,1,1,2H11V1a1,1,0,1,1,2,0V5A1,1,0,0,1,12,6Zm7-2H16a1,1,0,0,1,0-2h3a1,1,0,0,1,0,2Z" transform="translate(0 0)" fill="#b8b8d2"/>
</svg>
