<svg xmlns="http://www.w3.org/2000/svg" xmlns:xlink="http://www.w3.org/1999/xlink" width="51.197" height="39.173" viewBox="0 0 51.197 39.173"><defs><clipPath id="a"><path d="M0,0H10.689V10.689H0Z" fill="none"/></clipPath><clipPath id="b"><path d="M0,39.173H51.2V0H0Z" fill="none"/></clipPath></defs><g transform="translate(0 0)"><path d="M0,2.48V20.633l3.865,2.481V0Z" transform="translate(47.332 14.177)" fill="#6d7486"/><g transform="translate(0 0)"><path d="M0,2.429A2.429,2.429,0,0,1,2.429,0H9.717a2.429,2.429,0,0,1,0,4.858H2.429A2.429,2.429,0,0,1,0,2.429" transform="translate(36.146 4.858)" fill="#fb6771"/><path d="M32.72,0H4.014A4.015,4.015,0,0,0,0,4.015V22.861a4.015,4.015,0,0,0,4.014,4.015H32.72a4.015,4.015,0,0,0,4.014-4.015V4.015A4.015,4.015,0,0,0,32.72,0" transform="translate(2.614 12.297)" fill="#6d7486"/><g transform="translate(5.919 0)"><path d="M0,0H10.689V10.689H0Z" transform="translate(0)" fill="none"/><g transform="translate(0)" clip-path="url(#a)"><path d="M5.343,0A5.344,5.344,0,1,1,0,5.345H0A5.35,5.35,0,0,1,5.343,0" transform="translate(0 0)" fill="#5fa8ed"/></g></g><path d="M2.428,0A2.429,2.429,0,1,1,0,2.43H0A2.429,2.429,0,0,1,2.428,0" transform="translate(8.834 2.915)" fill="#4e6cca"/><path d="M14.575,2.429H0A2.429,2.429,0,0,1,2.429,0h9.717a2.429,2.429,0,0,1,2.429,2.429" transform="translate(18.275 4.858)" fill="#4a5160"/><path d="M7.984,0V18.153l-7.942-5.1H0V5.125Z" transform="translate(39.348 16.658)" fill="#4a5160"/><path d="M2.614,0V8.384H1.1A1.1,1.1,0,0,1,0,7.279V1.1A1.1,1.1,0,0,1,1.1,0Z" transform="translate(0 16.427)" fill="#fb6771"/><path d="M1.214,0A1.214,1.214,0,1,1,0,1.214,1.214,1.214,0,0,1,1.214,0" transform="translate(29.782 16.427)" fill="#fb6771"/><path d="M1.214,0A1.215,1.215,0,1,1,0,1.215H0A1.215,1.215,0,0,1,1.214,0" transform="translate(29.782 22.499)" fill="#d8ff33"/><path d="M0,39.173H51.2V0H0Z" transform="translate(0 0)" fill="none"/><g transform="translate(0 0)" clip-path="url(#b)"><path d="M0,8.5H15.79V0H0Z" transform="translate(8.228 16.427)" fill="#d4e1f4"/><path d="M3.134,22.861V4.015A4.015,4.015,0,0,1,7.149,0H4.014A4.015,4.015,0,0,0,0,4.015V22.861a4.015,4.015,0,0,0,4.014,4.015H7.149a4.015,4.015,0,0,1-4.014-4.015" transform="translate(2.614 12.297)" fill="#b0b5ca"/><path d="M0,8.5H3.134V0H0Z" transform="translate(8.228 16.427)" fill="#b4c4d6"/><path d="M0,1.254H18.219V0H0Z" transform="translate(18.275 6.661)" fill="#6d7486"/><path d="M20.408,1.254H.627A.627.627,0,0,1,.627,0H20.408a.627.627,0,1,1,0,1.254" transform="translate(7.601 30.834)" fill="#f4f8fc"/><path d="M2.232,1.254H.627A.627.627,0,0,1,.627,0H2.232a.627.627,0,1,1,0,1.254" transform="translate(29.979 30.834)" fill="#f4f8fc"/></g></g></g></svg>