<svg xmlns="http://www.w3.org/2000/svg" xmlns:xlink="http://www.w3.org/1999/xlink" width="193.156" height="94.488" viewBox="0 0 193.156 94.488"><defs><clipPath id="a"><path d="M0,94.489H71.125V0H0Z" fill="#3d5cff"/></clipPath><clipPath id="b"><path d="M0,94.488H94.488V0H0Z" fill="#3d5cff"/></clipPath></defs><g transform="translate(1.668)"><path d="M69.108,11.552H35.235A15.015,15.015,0,0,1,20.651,0L0,9.293,37.378,24.244Z" transform="translate(-1.668 19.821)" fill="#3d5cff"/><path d="M0,94.489H71.125V0H0Z" fill="none"/><g clip-path="url(#a)"><path d="M0,3.374H44.03V0H0Z" transform="translate(10.16 50.619)" fill="#3d5cff"/><path d="M16,5.722,3.244,0A11.782,11.782,0,0,1,0,5.722Z" transform="translate(42.15 21.275)" fill="#3d5cff"/><path d="M8.467,27h3.388a8.461,8.461,0,0,0,8.467-8.437V15.3a5.083,5.083,0,0,0-7.082-4.652l-1.385.591V7.966l3.921-1.3a1.69,1.69,0,1,0-1.07-3.206l-2.851.95V1.688a1.694,1.694,0,0,0-3.388,0v9.548l-1.385-.591A5.062,5.062,0,0,0,0,15.3V18.56A8.461,8.461,0,0,0,8.467,27" transform="translate(22.015 0)" fill="#3d5cff"/><path d="M44.03,0,22.645,8.524a1.72,1.72,0,0,1-1.26,0L0,0V12.019H44.03Z" transform="translate(10.16 35.226)" fill="#3d5cff"/><path d="M59.271,0H0V3.375H59.271a1.691,1.691,0,0,1,1.694,1.687v6.749A1.691,1.691,0,0,1,59.271,13.5H0v3.374H59.271a5.071,5.071,0,0,0,5.081-5.061V5.062A5.072,5.072,0,0,0,59.271,0" transform="translate(0 57.368)" fill="#3d5cff"/><path d="M0,3.374H57.577V0H0Z" transform="translate(0 64.117)" fill="#3d5cff"/><path d="M8.467,8.906V1.688A1.691,1.691,0,0,0,6.774,0H1.693a1.687,1.687,0,1,0,0,3.374H5.08V8.906a3.392,3.392,0,1,0,3.388,0" transform="translate(60.174 26.997)" fill="#3d5cff"/><path d="M0,3.374H57.578V0H0Z" transform="translate(6.774 84.365)" fill="#3d5cff"/><path d="M3.387,0A3.381,3.381,0,0,0,0,3.374V13.5a3.381,3.381,0,0,0,3.387,3.374H64.351V13.5H5.081a1.691,1.691,0,0,1-1.694-1.688V5.062A1.691,1.691,0,0,1,5.081,3.374H64.351V0Z" transform="translate(0 77.615)" fill="#3d5cff"/></g></g><g transform="translate(98.668)"><path d="M0,24.375H4.063V0H0Z" transform="translate(68.549 70.113)" fill="#3d5cff"/><path d="M0,24.375H4.063V0H0Z" transform="translate(18.281 70.113)" fill="#3d5cff"/><path d="M6.094,0H0V24.375H6.094a4.067,4.067,0,0,0,4.063-4.062V4.063A4.067,4.067,0,0,0,6.094,0" transform="translate(68.082 70.113)" fill="#3d5cff"/><path d="M10.156,0H4.063A4.067,4.067,0,0,0,0,4.063v16.25a4.067,4.067,0,0,0,4.063,4.063h6.094Z" transform="translate(4.063 70.113)" fill="#3d5cff"/><path d="M0,94.488H94.488V0H0Z" fill="none"/><g clip-path="url(#b)"><path d="M47.244,17.716H0V0H47.244V17.716ZM31,7.382v2.953H42.815V7.382Zm-26.575,0v2.953H28.051V7.382Z" transform="translate(19.193 76.772)" fill="#3d5cff"/><path d="M0,2.953H14.764V0H0Z" transform="translate(0 23.622)" fill="#3d5cff"/><path d="M14.764,10.335V0H2.953A2.956,2.956,0,0,0,0,2.953v7.382Z" transform="translate(0 10.335)" fill="#3d5cff"/><path d="M0,0V44.291H4.429V35.433a5.911,5.911,0,0,1,5.906-5.906h4.429V0Z" transform="translate(0 29.528)" fill="#3d5cff"/><path d="M23.622,2.953A2.956,2.956,0,0,0,20.669,0H2.953A2.956,2.956,0,0,0,0,2.953v7.382H23.622Z" transform="translate(17.717)" fill="#3d5cff"/><path d="M8.758,25.389l14.864-5.663V0H0V39.862H22.367L8.5,33.559a4.429,4.429,0,0,1,.257-8.17" transform="translate(17.717 19.193)" fill="#3d5cff"/><path d="M0,2.953H23.622V0H0Z" transform="translate(17.717 13.287)" fill="#3d5cff"/><path d="M0,2.953H14.764V0H0Z" transform="translate(44.291 23.622)" fill="#3d5cff"/><path d="M0,0V8.266L13.187,3.242a4.435,4.435,0,0,1,1.577-.289V0Z" transform="translate(44.291 29.528)" fill="#3d5cff"/><path d="M14.764,10.335V2.953A2.956,2.956,0,0,0,11.811,0H0V10.335Z" transform="translate(44.291 10.335)" fill="#3d5cff"/><path d="M62.01,15.58v5.089h2.953V13.286h0v-.045a1.478,1.478,0,0,0-.951-1.334L33.007.1a1.481,1.481,0,0,0-1.051,0l-31,11.811A1.475,1.475,0,0,0,.866,14.63L13.29,20.275V13.286a4.43,4.43,0,0,1,3.146-4.239L21.749,7.44a36.919,36.919,0,0,1,21.213-.049l5.547,1.651a4.428,4.428,0,0,1,3.167,4.245v6.989Z" transform="translate(26.573 35.434)" fill="#3d5cff"/><path d="M4.429,0A4.435,4.435,0,0,0,0,4.429v5.906H2.953V4.429a1.476,1.476,0,0,1,2.953,0v5.906H8.858V4.429A4.435,4.435,0,0,0,4.429,0" transform="translate(85.63 57.579)" fill="#3d5cff"/><path d="M0,2.953H2.953V0H0Z" transform="translate(88.583 32.48)" fill="#3d5cff"/><path d="M0,2.953H2.953V0H0Z" transform="translate(88.583 38.386)" fill="#3d5cff"/><path d="M0,2.953H2.953V0H0Z" transform="translate(85.63 35.433)" fill="#3d5cff"/><path d="M0,2.953H2.953V0H0Z" transform="translate(91.536 35.433)" fill="#3d5cff"/><path d="M0,2.953H2.953V0H0Z" transform="translate(73.819 17.717)" fill="#3d5cff"/><path d="M0,2.953H2.953V0H0Z" transform="translate(73.819 23.622)" fill="#3d5cff"/><path d="M0,2.953H2.953V0H0Z" transform="translate(70.866 20.669)" fill="#3d5cff"/><path d="M0,2.953H2.953V0H0Z" transform="translate(76.772 20.669)" fill="#3d5cff"/><path d="M0,11.811H2.953V0H0Z" transform="translate(26.575 62.008)" fill="#3d5cff"/><path d="M36.91,11.811H0V0H36.91V11.811Zm-31-7.382V7.382H31V4.429Z" transform="translate(32.48 62.008)" fill="#3d5cff"/><path d="M0,11.811H7.382V0H0Z" transform="translate(16.24 62.008)" fill="#3d5cff"/><path d="M5.906,0H2.953A2.956,2.956,0,0,0,0,2.953v8.858H5.906Z" transform="translate(7.382 62.008)" fill="#3d5cff"/><path d="M2.953,0H0V11.811H5.906V2.953A2.956,2.956,0,0,0,2.953,0" transform="translate(72.343 62.008)" fill="#3d5cff"/><path d="M31.425,3.033,25.878,1.382A33.928,33.928,0,0,0,17.722.005l-.006,10.348H14.764L14.77,0A33.993,33.993,0,0,0,6.362,1.428L1.048,3.036A1.473,1.473,0,0,0,0,4.447V14.11a1.486,1.486,0,0,0,.161.672H32.318a1.47,1.47,0,0,0,.162-.672V4.447a1.475,1.475,0,0,0-1.055-1.414" transform="translate(42.815 44.273)" fill="#3d5cff"/></g></g></svg>