<svg xmlns="http://www.w3.org/2000/svg" xmlns:xlink="http://www.w3.org/1999/xlink" width="37.58" height="39.286" viewBox="0 0 37.58 39.286"><defs><clipPath id="a"><path d="M0,0H29.593V14.511H0Z" fill="none"/></clipPath><clipPath id="b"><path d="M0,0H4.9V19.581H0Z" fill="none"/></clipPath></defs><path d="M23.359,23.33a22.033,22.033,0,0,0-10.67,2.964C8.983,23.305,2.507,22.626,0,24.137l6.2-8.166a10.057,10.057,0,0,0,1.741-5.1q0-.111,0-.221l0-.965,0-1.975,0-1.186,0-1.976,0-1.186L7.973,0H16l.024,10.647a9.993,9.993,0,0,0,1.748,5.324Z" transform="translate(2.92 2.756)" fill="#f9f7f8"/><path d="M0,6.483C8.169,7.6,12.3,4.556,15.276,1.7,11.57-1.29,5.1.272,2.588,1.782L1.58,3.108A9.693,9.693,0,0,0,0,6.483" transform="translate(0.332 25.111)" fill="#a1d4ff"/><g transform="translate(0 24.775)"><path d="M0,0H29.593V14.511H0Z" transform="translate(0 0)" fill="none"/><g transform="translate(0 0)" clip-path="url(#a)"><path d="M4.739,14.511H25.073a4.4,4.4,0,0,0,3.666-1.582c1.727-2.738.506-7.56-.769-9.391L26.278,1.311c-4.12-2.368-7.1-1.158-10.67.724C11.853,4.013,7.437,6.733.332,6.818-.6,10.4.3,14.511,4.739,14.511" transform="translate(0 0)" fill="#22a6fe"/></g></g><path d="M7.8,0V14.876a3.8,3.8,0,0,1-3.9,0,3.8,3.8,0,0,0-3.9,0V0Z" transform="translate(27.97 5.619)" fill="#f9f7f8"/><path d="M1.808,3.547H9.771a1.719,1.719,0,0,0,1.647-1.772A1.719,1.719,0,0,0,9.771,0H1.647A1.718,1.718,0,0,0,0,1.775,1.717,1.717,0,0,0,1.647,3.547Z" transform="translate(26.162 2.864)" fill="#a1d4ff"/><path d="M2.135,3.547h8.389a1.773,1.773,0,1,0,0-3.547H1.775a1.773,1.773,0,1,0,0,3.547Z" transform="translate(8.757)" fill="#a1d4ff"/><path d="M0,1.564A1.565,1.565,0,1,0,1.564,0,1.566,1.566,0,0,0,0,1.564" transform="translate(13.341 18.3)" fill="#a1d4ff"/><path d="M0,2.4A2.4,2.4,0,1,0,2.4,0,2.4,2.4,0,0,0,0,2.4" transform="translate(18.656 31.083)" fill="#a1d4ff"/><path d="M1.461,2.92A1.46,1.46,0,1,0,0,1.459,1.461,1.461,0,0,0,1.461,2.92" transform="translate(6.064 33.368)" fill="#a1d4ff"/><path d="M2.5,9.857,2.478,0H0L.025,9.857a9.989,9.989,0,0,0,1.748,5.324L6.417,21.3a9.442,9.442,0,0,1,3.419,1.239L4.25,15.181A9.991,9.991,0,0,1,2.5,9.857" transform="translate(16.442 3.547)" fill="#dddaec"/><path d="M6.433,3.372,4.81,1.239A9.444,9.444,0,0,0,1.391,0l.943,1.239C4.755,4.43,5.353,14.439,0,14.439H3.605a4.4,4.4,0,0,0,3.666-1.582A3.883,3.883,0,0,1,6.5,10.538V3.466Z" transform="translate(21.468 24.847)" fill="#0593fc"/><path d="M4.253,1.772A1.78,1.78,0,0,0,2.478,0H.007A1.778,1.778,0,0,1,1.775,1.772,1.779,1.779,0,0,1,0,3.547H2.478A1.779,1.779,0,0,0,4.253,1.772" transform="translate(16.803)" fill="#80b4fb"/><path d="M2,13.294V0H0V13.832a3.6,3.6,0,0,0,2-.538" transform="translate(33.769 6.411)" fill="#dddaec"/><path d="M3.65,1.775A1.719,1.719,0,0,0,2,0H0A1.72,1.72,0,0,1,1.647,1.775,1.719,1.719,0,0,1,0,3.547H2A1.719,1.719,0,0,0,3.65,1.775" transform="translate(33.93 2.864)" fill="#80b4fb"/><path d="M0,9.148V16.22a3.912,3.912,0,0,0,3.818,3.9h.166A3.915,3.915,0,0,0,7.8,16.22V.539a3.8,3.8,0,0,1-3.9,0,3.8,3.8,0,0,0-3.9,0V9.148Z" transform="translate(27.97 19.165)" fill="#eb5468"/><path d="M1.4,2.794A1.4,1.4,0,1,0,0,1.4a1.4,1.4,0,0,0,1.4,1.4" transform="translate(30.473 24)" fill="#a1d4ff"/><g transform="translate(30.869 19.704)"><path d="M0,0H4.9V19.581H0Z" transform="translate(0 0)" fill="none"/><g transform="translate(0 0)" clip-path="url(#b)"><path d="M4.9,15.68V0a3.6,3.6,0,0,1-2,.538V15.68A3.921,3.921,0,0,1,0,19.451a3.867,3.867,0,0,0,.919.13h.166A3.915,3.915,0,0,0,4.9,15.68" fill="#e5384f"/></g></g><path d="M.593,1.192A.593.593,0,0,1,.175.179L.182.172a.593.593,0,1,1,.836.841l-.007.007a.591.591,0,0,1-.418.172" transform="translate(11.308 31.417)" fill="#a1d4ff"/><path d="M.593,1.192A.593.593,0,0,1,.174.18L.18.174a.593.593,0,1,1,.838.838l-.007.007a.591.591,0,0,1-.419.174" transform="translate(16.147 29.52)" fill="#a1d4ff"/><path d="M.593,1.192A.593.593,0,0,1,.174.18L.18.174a.593.593,0,1,1,.838.838l-.007.007a.591.591,0,0,1-.419.174" transform="translate(30.362 29.84)" fill="#a1d4ff"/><path d="M.593,1.192A.593.593,0,0,1,.175.179L.182.172a.593.593,0,0,1,.836.841l-.007.007a.591.591,0,0,1-.418.172" transform="translate(31.625 34.368)" fill="#a1d4ff"/><path d="M3.18.593a.593.593,0,0,1-.593.593H0L0,0H2.587A.593.593,0,0,1,3.18.593" transform="translate(10.881 6.116)" fill="#2b4d66"/><path d="M3.187.593a.593.593,0,0,1-.593.593H0L0,0H2.594a.592.592,0,0,1,.593.593" transform="translate(10.874 9.278)" fill="#2b4d66"/><path d="M3.2.593a.592.592,0,0,1-.593.593H0q0-.111,0-.221L.007,0h2.6A.593.593,0,0,1,3.2.593" transform="translate(10.862 12.439)" fill="#2b4d66"/><path d="M3.17.593a.593.593,0,0,1-.593.593H0V0H2.577A.593.593,0,0,1,3.17.593" transform="translate(27.97 8.98)" fill="#2b4d66"/><path d="M3.17.593a.593.593,0,0,1-.593.593H0V0H2.577A.593.593,0,0,1,3.17.593" transform="translate(27.97 12.141)" fill="#2b4d66"/><path d="M3.17.593a.593.593,0,0,1-.593.593H0V0H2.577A.593.593,0,0,1,3.17.593" transform="translate(27.97 15.305)" fill="#2b4d66"/></svg>