<svg xmlns="http://www.w3.org/2000/svg" width="260" height="260" viewBox="0 0 260 260"><rect width="260" height="260" fill="none"/><path d="M200,0a60,60,0,0,1,60,60V200a60,60,0,0,1-60,60H60A60,60,0,0,1,0,200V60A60,60,0,0,1,60,0Z" fill="#cdecfe"/><g transform="translate(4.824 27.498)"><path d="M0,1.523C.229.584.406.025.406,0l.965.33c0,.025-.178.533-.381,1.422Z" transform="translate(25.264 0)" fill="#87c0f4"/><path d="M10.435,189.389h0l-.025-1.015a21.043,21.043,0,0,0,2.945-.329l.178.99a17.37,17.37,0,0,1-3.1.355Zm-3.123-.2h0a10.411,10.411,0,0,1-3-1.041l.482-.888a10.134,10.134,0,0,0,2.717.94l-.2.989Zm9.293-.888h-.1l-.28-.965.077-.026c.857-.27,1.728-.577,2.742-.965l.381.94c-.754.3-1.755.688-2.818,1.016ZM1.778,186.189h0A10.5,10.5,0,0,1,0,183.574l.914-.456A9.937,9.937,0,0,0,2.539,185.5l-.761.685Zm20.414-.254h0l-.482-.887a25.972,25.972,0,0,0,2.488-1.6l.609.813a25.235,25.235,0,0,1-2.615,1.675Zm4.977-3.656h0l-.71-.736c.736-.709,1.409-1.415,2.057-2.158l.761.661a29.779,29.779,0,0,1-2.106,2.234Zm4.037-4.622h0l-.811-.609c.48-.656,1.111-1.527,1.726-2.463l.838.559c-.553.841-1.148,1.726-1.752,2.513Zm3.428-5.078h0l-.862-.533c.465-.744.965-1.567,1.574-2.589l.863.508c-.523.9-1.023,1.734-1.574,2.615Zm3.1-5.231h0l-.888-.507c.334-.58.662-1.173,1.009-1.8q.229-.415.465-.839l.888.482c-.529.979-1,1.854-1.472,2.665Zm2.945-5.306h0l-.887-.482c.456-.862.943-1.759,1.447-2.667l.888.482c-.494.89-.981,1.786-1.447,2.666Zm2.869-5.333h0l-.887-.482q.312-.589.637-1.193c.242-.452.517-.964.785-1.473l.888.482c-.241.443-.479.895-.71,1.331s-.469.887-.712,1.334Zm2.894-5.306h0l-.862-.558a17.333,17.333,0,0,1,1.93-2.462l.736.685a18.507,18.507,0,0,0-1.8,2.336Zm3.961-4.393h0l-.659-.761.186-.16c.671-.575,1.364-1.17,2.175-1.8l.634.787c-.9.7-1.637,1.309-2.336,1.929Zm4.723-3.732h0l-.609-.812c.306-.218.625-.451.964-.7l.006,0c.442-.322.944-.686,1.492-1.075l.584.838c-.928.659-1.752,1.244-2.436,1.751Zm4.926-3.5h0l-.584-.837c.409-.294.827-.59,1.232-.877s.826-.585,1.231-.876l.583.838c-.416.3-.841.6-1.253.892l-.013.01c-.394.279-.8.567-1.2.85ZM65,136.22h0l-.609-.811c.745-.548,1.43-1.074,2.092-1.583l.32-.246.635.813c-.8.6-1.592,1.181-2.437,1.827Zm4.8-3.783h0l-.659-.787c.706-.592,1.384-1.2,2.039-1.783l.221-.2.685.736c-.763.736-1.532,1.419-2.284,2.031Zm4.495-4.139h0l-.735-.71c.788-.816,1.452-1.538,2.031-2.209l.761.66c-.706.82-1.378,1.558-2.056,2.259Zm3.961-4.672h0l-.812-.584c.551-.766,1.113-1.625,1.625-2.488l.863.508a27.569,27.569,0,0,1-1.675,2.563Zm119.31-4.646h-.686v-1.016h.372c.81,0,1.748,0,2.624-.05l.051,1.015h-.01C199.158,118.955,198.374,118.981,197.564,118.981Zm-3.732-.128h0c-.942-.048-1.892-.141-2.9-.239l-.149-.015.1-1.015c.857.086,1.712.153,2.538.218l.458.036-.05,1.014ZM203,118.7h0l-.1-1.014c.924-.093,1.9-.234,2.97-.432l.178.99A29.4,29.4,0,0,1,203,118.7ZM81.377,118.3h0l-.939-.406a26.062,26.062,0,0,0,1.066-2.768l.965.305c-.371,1.113-.729,2.051-1.091,2.868Zm106.361-.051h0c-1.011-.13-2.078-.317-3.019-.482l.176-.99c1,.175,2,.329,2.971.457l-.127,1.014Zm21.3-.634h0l-.254-.989c1-.255,1.95-.592,2.843-.914l.355.94c-1,.377-1.987.7-2.944.965Zm-27.32-.381h0c-1-.2-2-.436-2.965-.659h-.005l.229-.99c.917.212,1.955.452,2.946.634l-.2,1.015Zm-5.942-1.4h0l-.329-.086c-.854-.224-1.737-.456-2.615-.726l.279-.965.326.092c.892.253,1.734.491,2.593.7l-.254.989Zm39.026-.457h0l-.457-.887a20.984,20.984,0,0,0,2.539-1.549l.584.838a28.617,28.617,0,0,1-2.665,1.6Zm-44.891-1.219h0c-.889-.28-1.9-.6-2.893-.939l.33-.965c.96.329,1.934.637,2.894.914l-.33.989Zm-86.632-1.7h0l-.99-.228c.182-.839.359-1.774.559-2.945l1.016.152c-.165.988-.351,2.036-.584,3.02Zm80.869-.2h0c-.939-.329-1.919-.69-2.867-1.039l.354-.94c1.015.384,1.971.735,2.844,1.041l-.33.938Zm55.707-.431h0l-.685-.735a18.213,18.213,0,0,0,2.006-2.184l.788.635a22.694,22.694,0,0,1-2.107,2.284Zm-61.42-1.7h0l-2.818-1.143.381-.94.064.025c.9.366,1.831.744,2.729,1.118l-.355.939Zm-5.637-2.362h0c-.951-.411-1.865-.818-2.793-1.243l.432-.914c.461.2.931.417,1.385.622s.925.418,1.382.621l-.405.913ZM223.717,107h0l-.862-.508a28.456,28.456,0,0,0,1.346-2.641l.94.407c-.4.872-.866,1.769-1.422,2.741Zm-139.47-.584h0l-1.015-.1h0l0-.006c.1-1.021.2-2.078.279-3.015l1.015.1c-.068.816-.154,1.716-.245,2.669l-.034.352Zm63.019-1.168h0c-.888-.42-1.766-.858-2.74-1.345l.456-.914c.876.45,1.791.883,2.676,1.3l0,0,.036.017-.432.939Zm-5.459-2.717h0q-.481-.254-.954-.507c-.6-.318-1.16-.618-1.737-.915l.483-.888c.95.516,1.805.98,2.666,1.422l-.457.887Zm84.4-1.193h0l-.964-.3c.3-.949.555-1.914.761-2.869l.991.2c-.224,1.09-.538,2.159-.787,2.969Zm-141.4-.965h0l-1.014-.1c.14-1.286.265-2.225.406-3.047l.991.177c-.1.648-.239,1.659-.381,2.97Zm51.67-.761h0c-.943-.539-1.793-1.026-2.64-1.523l.508-.863c.814.493,1.689.994,2.535,1.478l.08.046-.482.862Zm-5.255-3.123h0c-.812-.5-1.674-1.057-2.564-1.65l.559-.838c.313.2.632.406.94.606.521.337,1.058.685,1.6,1.02l-.532.862Zm96.256-1.168h0l-1.015-.1c.085-.9.127-1.7.127-2.437v-.534l1.016-.025v.559c0,.744-.04,1.55-.127,2.538Zm-141.6-.838h0l-.964-.279A17.6,17.6,0,0,1,86.049,91.3l.914.456a16.484,16.484,0,0,0-1.091,2.716Zm40.244-1.345h0c-.932-.631-1.819-1.281-2.488-1.777l.609-.813c.788.584,1.639,1.178,2.463,1.752l-.583.838Zm-4.9-3.631h0c-.742-.585-1.492-1.206-2.361-1.955l.661-.761c.676.6,1.411,1.2,2.189,1.831l.121.1-.609.787Zm-32.627-.127h0l-.761-.66a13.748,13.748,0,0,1,1.98-1.853l.33-.255.609.813-.33.254a9.677,9.677,0,0,0-1.827,1.7ZM226.332,89.3h0A22.667,22.667,0,0,0,225.7,86.4l.965-.28a30.588,30.588,0,0,1,.685,3.022l-1.014.152ZM93.183,85.617h0l-.584-.837c.88-.632,1.805-1.254,2.514-1.726l.559.838c-.314.219-.633.438-.942.649-.511.35-1.038.711-1.546,1.076Zm23.411-.152h0c-.715-.715-1.465-1.484-2.107-2.259l.787-.66c.609.743,1.336,1.488,2.031,2.183l-.71.735Zm108.062-1.854h0a21.36,21.36,0,0,0-1.4-2.614l.864-.534a23.283,23.283,0,0,1,1.447,2.742l-.913.405ZM98.211,82.291h0l-.532-.862c.856-.528,1.75-1.04,2.615-1.534l.025-.015.508.889c-.916.523-1.816,1.053-2.61,1.52l0,0Zm14.448-1.6h0a11.616,11.616,0,0,1-.711-1.37c-.222-.527-.407-1.041-.559-1.473l.965-.329.042.114c.161.436.328.887.492,1.307a11.516,11.516,0,0,0,.634,1.245l-.862.507Zm-9.192-1.345h0l-.457-.888c.861-.442,1.7-.864,2.717-1.371l.432.914c-.861.417-1.766.869-2.691,1.345Zm118.092-.787h0a26.963,26.963,0,0,0-1.979-2.208l.711-.711a25.179,25.179,0,0,1,2.057,2.31l-.787.609ZM108.9,76.73h0l-.406-.939c.771-.348,1.555-.677,2.313-.995l.049-.021-.305.076c-.19-.9-.4-1.953-.533-3.021l1.015-.127c.154,1.029.333,2.02.534,2.946l-.229.05.355.863-.067.027c-.9.366-1.833.745-2.726,1.141Zm5.611-2.26h0l-.355-.964c.964-.365,1.975-.71,2.867-1.014l.332.964-.058.02c-.93.318-1.89.647-2.785.995Zm102.832-.1h0c-.717-.574-1.528-1.163-2.411-1.751l.559-.838c.917.62,1.753,1.235,2.488,1.828l-.634.761Zm-97.119-1.828h0l-.3-.964c.8-.252,1.623-.489,2.419-.719l.5-.145.279.99c-1.093.288-2.04.561-2.893.838Zm92.168-1.472h0c-.836-.443-1.741-.909-2.691-1.32l.407-.914c1.108.51,1.979.946,2.742,1.372l-.457.862Zm-86.354-.152h0l-.254-.99c.83-.218,1.707-.42,2.554-.615l.417-.1.229.991-.093.021c-.942.218-1.917.443-2.852.689Zm5.894-1.319h0l-.2-.991c1.034-.211,2.051-.393,3-.558l.177.99c-.989.152-1.994.358-2.966.558Zm-22.245-.814h0c-.076-.955-.127-1.98-.152-3.046l1.015-.025c.025,1.044.076,2.051.152,3l-1.014.076Zm97.246-.178h0c-1.111-.4-2.014-.7-2.843-.939l.28-.965.04.012c.96.3,1.953.6,2.879.952l-.355.939ZM137.9,68.53h0l-.152-1.015c.771-.118,1.572-.239,2.348-.356l.043-.007.63-.095.153,1.016q-.422.062-.839.119c-.76.107-1.479.208-2.182.338Zm5.992-.838h0l-.127-1.015c.523-.067,1.061-.128,1.582-.187.473-.054.96-.109,1.439-.169l.1,1.016c-1.011.1-2.014.23-2.984.354h-.012Zm6.017-.661h0l-.1-1.014c1.024-.105,2.085-.184,3.021-.254l.076,1.015c-.91.091-1.816.162-2.692.23l-.3.024ZM201.17,66.9h0c-.923-.219-1.914-.424-2.944-.609l.177-.99c1.078.188,2.085.394,3,.609l-.228.989Zm-45.221-.33h0l-.076-1.014c.987-.074,1.987-.125,2.955-.174l.092,0,.05,1.016-.05,0c-.969.049-1.97.1-2.971.175Zm6.043-.355h0l-.05-1.014c1.187-.06,2.1-.1,3.046-.127l.051,1.015c-.513.026-1.035.046-1.54.064h-.01c-.492.018-1,.037-1.5.062Zm6.069-.254h0l-.05-1.014c1.016-.051,2.048-.077,3.045-.1l.026,1.015c-.478.013-.969.031-1.444.049-.517.019-1.05.04-1.576.053Zm27.193-.127h0c-.942-.124-1.95-.226-3-.3l.076-1.016c.721.054,1.458.134,2.171.212l.022,0c.288.031.573.062.855.091l-.127,1.014Zm-21.125-.1h0l-.026-1.014c1.027-.025,2.04-.077,3.019-.127l.053,1.015-.112.007c-.9.045-1.926.1-2.933.12Zm6.068-.229h0l-.05-1.014c.532-.022,1.194-.048,1.828-.1.4-.025.812-.05,1.219-.05l.051,1.015c-.2.012-.4.019-.585.025s-.4.013-.609.026c-.691.027-1.266.052-1.853.1Zm9.065-.152h0c-.948-.025-1.927-.05-2.919-.05h-.1V64.289h.1c.982,0,1.966.026,2.917.051h.028l-.025,1.014ZM110.525,62.69H109.51c0-.837.02-1.693.042-2.685V60l.008-.356,1.015.025c-.012.524-.018,1.023-.024,1.506v.014c-.007.522-.013,1.016-.026,1.5Zm.177-6.069h0l-1.014-.05,0-.083c.025-.7.05-1.417.1-2.127l.025-.812,1.016.05-.026.813c-.049.71-.074,1.432-.1,2.13l0,.077Zm.255-6.068h0l-1.015-.026c.051-1.115.076-2.1.076-3.021l1.015.025c0,.567-.02,1.167-.04,1.8v.012c-.013.388-.026.788-.035,1.208Zm-.94-6.069h0c-.026-1.127-.052-2.063-.127-3l1.015-.076c.056,1.048.1,2,.127,3.047l-1.014.025Zm-.407-5.992h0a28.255,28.255,0,0,0-.558-2.919l.99-.254c.246,1.011.442,2.027.584,3.021l-1.015.152Zm-1.472-5.738h0a15.5,15.5,0,0,0-1.37-2.588l.838-.559a16.807,16.807,0,0,1,1.472,2.767l-.939.38ZM51.9,28.818h-.33c-.934,0-1.857-.025-2.742-.076l.051-1.016c.861.051,1.741.076,2.691.076h.33v1.014Zm3.073-.1h0L54.92,27.7c.875-.046,1.764-.133,2.706-.225l.29-.028.1,1.015-.31.03c-.961.092-1.866.179-2.735.225Zm-9.192-.305h0a27.616,27.616,0,0,1-3.02-.609l.254-.99c.99.241,1.972.438,2.92.584l-.152,1.014Zm15.26-.33h0l-.127-1.014c.872-.118,1.852-.267,3-.457l.152.99c-.982.183-1.97.34-3.02.482Zm43.85-.1h0a13.279,13.279,0,0,0-2.361-1.675l.482-.888a13.257,13.257,0,0,1,2.565,1.8l-.685.761Zm-37.858-.863h0l-.177-.989,1.485-.267,1.485-.267.178.991c-1.089.2-2.061.374-2.97.533Zm-27.244-.229h0a25.956,25.956,0,0,1-2.818-1.269l.482-.889a25.679,25.679,0,0,0,2.692,1.219l-.355.939Zm33.236-.863h0l-.177-.989,1.521-.271h.006l1.47-.262.177.991c-.882.154-1.758.311-2.606.463h-.007l-.382.069Zm26.788-.838h0a24.264,24.264,0,0,0-2.894-.711l.178-.99a25.922,25.922,0,0,1,3,.761l-.279.939Zm-20.821-.2h0l-.152-1.014c.62-.1,1.216-.19,1.792-.274l.01,0c.421-.061.818-.119,1.219-.182l.127,1.016c-1.057.139-2.107.309-3,.456Zm5.992-.787h0l-.1-1.015c1.078-.1,2.1-.178,3.047-.229l.051,1.016c-.942.049-1.921.124-3,.229Zm8.988-.152h0c-.966-.077-1.946-.127-3-.153V22.877a29.807,29.807,0,0,1,3.073.152l-.076,1.015Zm-59.643-.026h0c-.842-.57-1.671-1.193-2.462-1.853l.66-.788a28.589,28.589,0,0,0,2.387,1.8l-.583.837Zm-4.7-3.986h0a24.214,24.214,0,0,1-1.954-2.386l.838-.584a19.825,19.825,0,0,0,1.879,2.285l-.762.685Zm-3.605-5.027h0a22.964,22.964,0,0,1-1.269-2.817l.965-.356a18.427,18.427,0,0,0,1.219,2.716l-.913.457ZM23.892,9.217h0a23.654,23.654,0,0,1-.507-3.046l1.016-.1a21.8,21.8,0,0,0,.482,2.92l-.99.228Zm.355-6.144H23.233A30.66,30.66,0,0,1,23.41,0l1.016.127c-.091.865-.15,1.828-.178,2.945Z" transform="translate(1.32 4.596)" fill="#87c0f4"/><path d="M0,.051,1.016,0a8.2,8.2,0,0,0,.229,1.422l-.99.2C.051.686.025.076,0,.051Z" transform="translate(0 183.498)" fill="#87c0f4"/></g><path d="M58.687,2.531c-11.68,5.84-13.2,18.535-14.219,26.152S39.136,46.711,32.535,52.3,20.347,63.977,17.808,77.434s1.016,22.852-2.793,35.039S-.727,141.418.035,155.129s12.441,12.188,12.441,12.188H167.359a65.13,65.13,0,0,0,1.016-39.863c-5.586-19.043-22.344-21.836-26.914-46.719-2.361-12.848-2.031-16.5-11.426-28.437-9.674-12.289-16.25-12.441-20.566-23.613s-6.855-32.246-32.5-25.9C76.968,2.785,70.367-3.309,58.687,2.531Z" transform="translate(59.887 64.754)" fill="#1f1f39"/><path d="M49.74,45.145H9.9L0,6.678,42.225,0Z" transform="translate(159.199 186.799)" fill="#f9d2dd"/><path d="M19.926,138.527C11.8,137-1.4,128.624.121,110.851S34.906,40.773,34.906,40.773s-5.332-6.094-3.047-13.457S42.27,17.921,47.6,17.667a27.552,27.552,0,0,1,9.141,1.016l11.68-16.5S70.961-1.122,74.008.4s-3.047,11.426-3.047,11.426L65.375,23.253s-1.016,9.9-3.3,15.488S58.52,45.6,58.52,45.6L46.332,85.714,60.3,81.906,47.6,134.464S28.051,140.05,19.926,138.527Z" transform="translate(14.352 68.407)" fill="#ffebf0"/><path d="M12.188,52.559,24.883,0,12.391,3.4,0,55.352C8.557,54.234,12.188,52.559,12.188,52.559Z" transform="translate(49.766 150.313)" fill="#f9acc0"/><path d="M0,6.678l3.5,13.66,43.291,7.186L42.225,0Z" transform="translate(159.199 186.799)" fill="#f9acc0"/><path d="M149.551,72.556s-5.84-57.637-34.785-66.523-49-6.094-58.145-3.3S8.379,17.966,8.379,17.966L0,73.571l22.6-2.285L18.789,98.454h100.09s-2.082-16-4.621-25.9Z" transform="translate(56.367 133.616)" fill="#3d5cff"/><path d="M149.551,72.556s-5.84-57.637-34.785-66.523-49-6.094-58.145-3.3S8.379,17.966,8.379,17.966L0,73.571l22.6-2.285L18.789,98.454h100.09s-2.082-16-4.621-25.9Z" transform="translate(56.367 133.616)" fill="#3d5cff"/><path d="M92.871,43.969C88.987,39.6,78.653,29.42,66.237,28.836c-10.258-.482-12.8-6.779-15.057-12.314-1.447-3.555-2.793-6.932-5.916-8.836-5.662-3.453-11.477-1.6-18.789.736a89.834,89.834,0,0,1-10.359,2.844C9.539,12.561,5.528,9.59,3.293,6.873A18.366,18.366,0,0,1,.018.627.489.489,0,0,1,.373.018.489.489,0,0,1,.983.373a17.218,17.218,0,0,0,3.1,5.865c3,3.631,6.957,4.977,11.832,4.037A96.633,96.633,0,0,0,26.17,7.457C33.457,5.121,39.754,3.115,45.8,6.822c3.4,2.082,4.9,5.764,6.348,9.318,2.234,5.535,4.545,11.248,14.168,11.68C79.11,28.4,89.7,38.84,93.658,43.283a.492.492,0,0,1-.051.711.605.605,0,0,1-.355.152A.457.457,0,0,1,92.871,43.969Z" transform="translate(107.486 137.98)" fill="#eaeaff"/><path d="M55.937,77.67c-.457-11.68-6.5-13.381-13.482-15.336-3.25-.914-6.627-1.854-9.547-3.91-6.424-4.494-5.662-9.242-4.773-14.752a39.945,39.945,0,0,0,.686-8.506c-.432-8.125-6.982-10.309-16.021-13.3-1.7-.559-3.479-1.168-5.307-1.828C2.642,18.281.052,14.219,0,8.328A26.915,26.915,0,0,1,1.347,0l.965.33a25.475,25.475,0,0,0-1.295,8c.076,5.484,2.361,9.115,6.83,10.74,1.8.66,3.58,1.244,5.281,1.8,9.09,3.021,16.25,5.408,16.732,14.219a40,40,0,0,1-.686,8.709c-.889,5.586-1.523,9.648,4.367,13.762,2.793,1.955,6.068,2.869,9.242,3.758C49.843,63.3,56.521,65.152,57,77.594a37.99,37.99,0,0,0,.406,4.418l-1.066.178A39.314,39.314,0,0,1,55.937,77.67Z" transform="translate(68.934 149.855)" fill="#eaeaff"/><path d="M62.689,37.553c-1.193-.178-2.412-.381-3.758-.609-7.109-1.27-8.074-5.891-9.09-10.766a24.9,24.9,0,0,0-3.148-8.912c-3.021-4.646-8.125-3.479-15.184-1.854-4.545,1.041-9.674,2.209-15.387,2.057A15.113,15.113,0,0,1,2.412,8.582,24.342,24.342,0,0,1,0,.076L1.016,0A24.031,24.031,0,0,0,3.352,8.15c2.691,5.357,7.008,8.15,12.822,8.3,5.586.152,10.639-1.016,15.133-2.031,7.186-1.65,12.848-2.945,16.275,2.285a25.75,25.75,0,0,1,3.3,9.242c1.041,4.926,1.854,8.836,8.277,9.979,1.32.229,2.539.432,3.732.609,6.932,1.092,11.527,1.8,17.951,8.709l-.787.711C73.861,39.3,69.418,38.619,62.689,37.553Z" transform="translate(85.592 144.828)" fill="#eaeaff"/><path d="M149.551,72.556s-5.84-57.637-34.785-66.523-49-6.094-58.145-3.3S8.379,17.966,8.379,17.966L0,73.571l22.6-2.285L18.789,98.454h100.09s-2.082-16-4.621-25.9Z" transform="translate(56.367 133.616)" fill="none"/><path d="M1.8,1.5C-1.755,4.547.276,10.894,5.1,12.672s6.094.508,6.094.508L8.909.992A5.821,5.821,0,0,0,1.8,1.5Z" transform="translate(107.38 93.461)" fill="#f9acc0"/><path d="M1.957,30.977A15.174,15.174,0,0,0,10.59,39.1a31.661,31.661,0,0,1-.508,9.141A33.749,33.749,0,0,1,7.8,55.352s1.523,3.3,12.188,3.809,12.188-3.809,12.188-3.809a66.984,66.984,0,0,1-1.016-12.187,118.865,118.865,0,0,1,1.777-12.949s6.855,2.285,11.172-2.031,3.3-12.441-2.031-12.949S33.95,19.3,33.95,19.3,26.332,15.742,23.286,9.9s-3.3-9.9-3.3-9.9S5.258,2.031.18,13.965C.18,13.965-.836,24.629,1.957,30.977Z" transform="translate(115.855 80.488)" fill="#f9d2dd"/><path d="M1.65,4.063A1.871,1.871,0,0,1,0,2.031,1.871,1.871,0,0,1,1.65,0,1.871,1.871,0,0,1,3.3,2.031,1.871,1.871,0,0,1,1.65,4.063Z" transform="translate(122.129 96.992)" fill="#1f1f39"/><path d="M1.65,4.063A1.871,1.871,0,0,1,0,2.031,1.871,1.871,0,0,1,1.65,0,1.871,1.871,0,0,1,3.3,2.031,1.871,1.871,0,0,1,1.65,4.063Z" transform="translate(135.078 97.754)" fill="#1f1f39"/><path d="M3.076,1.89A13.6,13.6,0,0,0,6.123.113s.508-.254.762,0S5.514,3.261,4.092,3.668A3.353,3.353,0,0,1,.283,2.4c-.762-1.016.254-.762.254-.762A5.7,5.7,0,0,0,3.076,1.89Z" transform="translate(130.986 105.258)" fill="#f95368"/><path d="M1.377,1.6A8.769,8.769,0,0,0,.616,3.25a2.3,2.3,0,0,0-.1.813c0,.076.025.127.025.178l.076.2a2.775,2.775,0,0,0,.2.381,1.947,1.947,0,0,0,1.523.762,1.774,1.774,0,0,1-.965.025,1.559,1.559,0,0,1-.863-.533,2.636,2.636,0,0,1-.3-.432l-.1-.229C.082,4.342.057,4.24.032,4.139A2.39,2.39,0,0,1,.108,3.1a6.256,6.256,0,0,1,.914-1.727A8.593,8.593,0,0,1,2.367,0Z" transform="translate(127.633 97.5)" fill="#1f1f39"/><g transform="translate(157.168 162.246)"><path d="M23.816,43.926C22.623,40.143,18.205,26.66,13.2,17.773A90.612,90.612,0,0,0,0,0S6.3,18.23,8.125,24.375c1.8,6.018,6.424,24.324,6.424,24.324-.355-1.676-.711-3.3-1.092-4.773Z" fill="#224bf4"/></g><path d="M1.371.336A5.447,5.447,0,0,1,2.92.006a4.272,4.272,0,0,1,1.6.2,2.312,2.312,0,0,1,1.295.939A6.026,6.026,0,0,0,4.367.793,8.917,8.917,0,0,0,2.945.768,13.987,13.987,0,0,0,1.5.92L0,1.149A4.665,4.665,0,0,1,1.371.336Z" transform="translate(135.078 92.543)" fill="#1f1f39"/><path d="M1.854.042A5.8,5.8,0,0,1,5.662.9a3.746,3.746,0,0,1,.762.66,1.721,1.721,0,0,1,.432.889,2.24,2.24,0,0,0-.686-.609,8.08,8.08,0,0,0-.812-.406,14.779,14.779,0,0,0-1.7-.559A10.338,10.338,0,0,0,1.879.626C1.27.626.635.626,0,.676A4.736,4.736,0,0,1,1.854.042Z" transform="translate(119.336 91.237)" fill="#1f1f39"/><g transform="translate(25.898 231.816)"><path d="M0,0H208.2" transform="translate(0 0.254)" fill="#1f1f39"/><path d="M208.2,0V.84H0V0Z" fill="#1f1f39"/></g><path d="M4.568,16.936A14.464,14.464,0,0,1,.175,8.658C-.206,6.17-.053,2.641,1.521.787A2,2,0,0,1,2.968,0c1.32,0,1.8.99,2.615,2.641.254.533.559,1.117.914,1.8C8,7.16,12.261,11.451,12.286,11.5a.251.251,0,1,1-.355.355C11.753,11.68,7.564,7.49,6.04,4.7,5.66,4.012,5.38,3.4,5.1,2.869,4.288,1.193,3.908.508,2.943.508a1.616,1.616,0,0,0-1.066.609C.962,2.184.074,4.8.632,8.582a14.066,14.066,0,0,0,4.24,7.973.247.247,0,0,1,.025.355.2.2,0,0,1-.178.076A.272.272,0,0,1,4.568,16.936Z" transform="translate(62.565 93.717)" fill="#1f1f39"/><path d="M3.986,3.529C.051,2.209,0,.33,0,.254A.24.24,0,0,1,.254,0,.254.254,0,0,1,.508.254c0,.025.1,1.625,3.631,2.818a8.077,8.077,0,0,0,6.576-.736.257.257,0,0,1,.279.432A9.525,9.525,0,0,1,6.627,3.961,8.549,8.549,0,0,1,3.986,3.529Z" transform="translate(51.924 97.906)" fill="#1f1f39"/><path d="M13.939.762A26.141,26.141,0,0,1,.787.711,30.983,30.983,0,0,1,.229,9.395q-.114.533-.229.99a20.358,20.358,0,0,0,9.623-2.26C15.971,4.824,16.986,0,16.986,0A27.917,27.917,0,0,0,13.939.762Z" transform="translate(125.709 119.336)" fill="#f9acc0"/><path d="M0,3.712a.257.257,0,0,1,.2-.3L16.915,0a.257.257,0,0,1,.3.2.257.257,0,0,1-.2.3L.309,3.915H.259A.247.247,0,0,1,0,3.712Z" transform="translate(47.603 152.872)" fill="#1f1f39"/><path d="M5.7,1.793a17.884,17.884,0,0,1-3.961-.635A16.26,16.26,0,0,1,.168.651.264.264,0,0,1,.016.321.264.264,0,0,1,.346.168,15.665,15.665,0,0,0,1.895.651a16.746,16.746,0,0,0,3.859.609A27.149,27.149,0,0,0,15.3.016a.264.264,0,0,1,.33.152.264.264,0,0,1-.152.33,26.993,26.993,0,0,1-8.531,1.32C6.541,1.819,6.11,1.819,5.7,1.793Z" transform="translate(126.201 119.447)" fill="#1f1f39"/><path d="M4.321,7.887A10.182,10.182,0,0,0,2.823,3.7C1.376,1.057.157.524.157.5A.233.233,0,0,1,.03.168.275.275,0,0,1,.36.016C.411.041,1.732.6,3.28,3.418A10.137,10.137,0,0,1,4.829,7.862a.248.248,0,0,1-.254.279A.24.24,0,0,1,4.321,7.887Z" transform="translate(111.333 97.357)" fill="#1f1f39"/><path d="M13.3,43.942c-.939-3.2-2.311-8.15-3.631-13.66C7.151,19.744.092.549.016.346A.264.264,0,0,1,.168.016.264.264,0,0,1,.5.168c.076.2,7.135,19.424,9.648,29.986,1.32,5.51,2.691,10.461,3.605,13.635a.241.241,0,0,1-.178.3c.025,0,0,.025-.025.025A.306.306,0,0,1,13.3,43.942Z" transform="translate(156.873 162.002)" fill="#1f1f39"/><path d="M.011,0a2.589,2.589,0,0,0,0,.508Z" transform="translate(96.727 43.672)" fill="#eaeaff"/><g transform="translate(75.029 19.373)"><path d="M15.091,36.184a1.584,1.584,0,0,1-.289-.027H14.4a1.306,1.306,0,0,1-1.32-1.32V25.67H5.231A5.222,5.222,0,0,1,0,20.44V5.231A5.223,5.223,0,0,1,5.231,0H39.2a5.261,5.261,0,0,1,5.256,5.231V20.465a5.223,5.223,0,0,1-5.231,5.23H26.762L16,35.826A1.254,1.254,0,0,1,15.091,36.184ZM13.326,5.218a6.453,6.453,0,0,0-.757.038,5.325,5.325,0,0,0-.311,2.03,12.192,12.192,0,0,0,1.58,5.586,16.55,16.55,0,0,0,7.618,6.856c5.232-.761,8.794-2.523,10.588-5.238a7.278,7.278,0,0,0,1.092-5.426,6.327,6.327,0,0,0-1.689-.2,8.844,8.844,0,0,0-5.166,1.724C23,12.922,22.327,14.931,22.217,15.92A14.249,14.249,0,0,0,19.678,8.3,7.649,7.649,0,0,0,13.326,5.218Z" fill="#fff"/><path d="M5.078,4.824C8.125,2.285,10.41,0,10.41,0A20.672,20.672,0,0,0,6.348,2.539,70.574,70.574,0,0,0,0,8.887S2.031,7.363,5.078,4.824Z" transform="translate(21.455 10.334)" fill="#fff"/><path d="M2.539,5.586a28.481,28.481,0,0,0,4.316,6.348s-1.27-2.793-2.793-5.84A37.346,37.346,0,0,0,0,0S.254,1.27,2.539,5.586Z" transform="translate(14.6 7.287)" fill="#fff"/></g><path d="M29.367,36.158h0a1.257,1.257,0,0,1-.9-.357L17.7,25.67H5.231A5.223,5.223,0,0,1,0,20.439V5.231A5.223,5.223,0,0,1,5.231,0H39.2a5.256,5.256,0,0,1,5.256,5.2V20.414a5.224,5.224,0,0,1-5.231,5.231H31.383V34.81a1.306,1.306,0,0,1-1.32,1.32h-.407A1.566,1.566,0,0,1,29.367,36.158ZM28.523,5.964a.952.952,0,0,0-.314.054L23.435,7.643a.931.931,0,0,0-.609.863V19.094a.315.315,0,0,0,.026.153.448.448,0,0,0,.421.3.43.43,0,0,0,.137-.022l5.408-1.854a.945.945,0,0,0,.635-.939V6.907a1.249,1.249,0,0,0-.049-.295l0-.01A.915.915,0,0,0,28.523,5.964Zm-12.6,0a.963.963,0,0,0-.94.965v9.826a.932.932,0,0,0,.635.888L21.023,19.5a.232.232,0,0,0,.127.025.435.435,0,0,0,.457-.432V8.506A.931.931,0,0,0,21,7.643L16.224,6.017A1.272,1.272,0,0,0,15.92,5.967Z" transform="translate(173.672 60.76)" fill="#fff"/><path d="M4.951,6.094C2.217,6.094,0,4.73,0,3.047S2.217,0,4.951,0,9.9,1.364,9.9,3.047,7.686,6.094,4.951,6.094Z" transform="translate(138.379 101.816)" fill="#f9acc0"/><path d="M0,.889A35.923,35.923,0,0,0,.584,5.51a7.257,7.257,0,0,0,2.895.584c2.742,0,4.951-1.371,4.951-3.047S6.221,0,3.479,0A6.6,6.6,0,0,0,0,.889Z" transform="translate(115.984 101.816)" fill="#f9acc0"/><path d="M0,9.09a1.15,1.15,0,0,0,.025-.2,14.269,14.269,0,0,0,3.428.584c-.025-.178-.076-.355-.127-.584C2.311,5.84,5.611,0,5.611,0S2.057.762.533,5.84A11.873,11.873,0,0,0,0,9.09Z" transform="translate(148.764 101.816)" fill="#f9acc0"/><path d="M.168,8.12a.254.254,0,0,1-.152-.33A17.709,17.709,0,0,1,2.326,3.651,11.327,11.327,0,0,1,6.237.02a.267.267,0,0,1,.33.1.267.267,0,0,1-.1.33A11,11,0,0,0,2.758,3.93,19.34,19.34,0,0,0,.5,7.916a.288.288,0,0,1-.254.229A.093.093,0,0,1,.168,8.12Z" transform="translate(148.672 100.4)" fill="#1f1f39"/><path d="M28.717,0S25.645,11.705,18.535,21.1C13.609,27.625,4.9,31.332,0,32.982l21.912-2.234Z" transform="translate(56.875 174.18)" fill="#224bf4"/><path d="M.229,38.345A.3.3,0,0,1,0,38.065c0-.076,1.041-8.227,2.793-16.021S8.607.335,8.633.183A.276.276,0,0,1,8.938,0a.276.276,0,0,1,.178.3C9.064.437,5.027,14.351,3.275,22.12S.508,38.015.482,38.091a.234.234,0,0,1-.229.254Z" transform="translate(78.711 166.812)" fill="#1f1f39"/></svg>