<svg xmlns="http://www.w3.org/2000/svg" xmlns:xlink="http://www.w3.org/1999/xlink" width="260" height="260" viewBox="0 0 260 260"><defs><clipPath id="a"><rect width="260" height="260" fill="none"/></clipPath></defs><rect width="260" height="260" fill="none"/><g clip-path="url(#a)"><path d="M200,0a60,60,0,0,1,60,60V200a60,60,0,0,1-60,60H60A60,60,0,0,1,0,200V60A60,60,0,0,1,60,0Z" fill="#d9f4f1"/><g transform="translate(24.629 24.832)"><path d="M46.719,0,0,3.555,49.258,17.012Z" transform="translate(0 7.617)" fill="#dadaf7"/><path d="M184.412,180.783a.756.756,0,0,1-.228-.05.508.508,0,0,1-.228-.686,24.158,24.158,0,0,0,.99-2.59.52.52,0,0,1,.47-.336.44.44,0,0,1,.165.032.5.5,0,0,1,.305.634c-.545,1.553-.885,2.329-1,2.584a1.052,1.052,0,0,0-.045.108A.455.455,0,0,1,184.412,180.783Zm1.981-5.535a.32.32,0,0,1-.152-.025.466.466,0,0,1-.3-.241.552.552,0,0,1-.031-.393c.222-.728.444-1.488.679-2.293l0-.007.182-.621a.5.5,0,0,1,.491-.375.547.547,0,0,1,.143.019.5.5,0,0,1,.311.241.521.521,0,0,1,.044.393l-.113.388c-.26.891-.505,1.732-.75,2.532A.559.559,0,0,1,186.393,175.248Zm1.651-5.865a.229.229,0,0,1-.127-.025.508.508,0,0,1-.315-.244.469.469,0,0,1-.041-.365c.1-.405.206-.806.316-1.23s.228-.874.344-1.335l.1-.381a.532.532,0,0,1,.512-.39.5.5,0,0,1,.1.01.528.528,0,0,1,.381.609l-.1.381c-.231.925-.462,1.8-.685,2.59A.489.489,0,0,1,188.043,169.383Zm1.472-5.916h-.1a.487.487,0,0,1-.381-.609c.132-.625.265-1.279.393-1.911.072-.354.144-.708.216-1.06a.5.5,0,0,1,.49-.415.528.528,0,0,1,.094.009.5.5,0,0,1,.327.216.49.49,0,0,1,.079.368c-.2.983-.4,2.024-.609,3A.515.515,0,0,1,189.516,163.467Zm1.142-5.967h-.076a.535.535,0,0,1-.432-.584c.076-.5.153-1,.23-1.5s.152-1,.228-1.492a.519.519,0,0,1,.5-.44.477.477,0,0,1,.085.008.548.548,0,0,1,.339.207.476.476,0,0,1,.092.377c-.14.935-.3,2-.456,3.022A.518.518,0,0,1,190.658,157.5Zm.838-6.043h-.05a.512.512,0,0,1-.457-.559c.036-.356.074-.712.112-1.056.071-.649.143-1.319.193-1.965a.493.493,0,0,1,.507-.459l.051,0a.5.5,0,0,1,.342.183.517.517,0,0,1,.115.376c-.051.681-.126,1.372-.2,2.04v.009c-.035.327-.072.665-.105,1A.521.521,0,0,1,191.5,151.457Zm.534-6.069H192a.524.524,0,0,1-.482-.534c.05-1,.1-2.03.127-3.021a.49.49,0,0,1,.508-.482h.025a.482.482,0,0,1,.353.16.492.492,0,0,1,.129.374c-.025,1.019-.075,2.024-.152,3.072A.5.5,0,0,1,192.029,145.389Zm.177-6.094a.508.508,0,0,1-.508-.508c0-1.042-.027-2.093-.05-3.021a.524.524,0,0,1,.482-.534.53.53,0,0,1,.533.482c.024.945.051,2.017.051,3.073A.509.509,0,0,1,192.207,139.295Zm-175.373-3.5a23.834,23.834,0,0,1-3.1-.2.487.487,0,0,1-.343-.188.468.468,0,0,1-.089-.371.474.474,0,0,1,.559-.431,22.133,22.133,0,0,0,2.97.177.508.508,0,1,1,0,1.016Zm3.1-.127h-.05a.52.52,0,0,1-.508-.457.515.515,0,0,1,.114-.374.5.5,0,0,1,.343-.185c.968-.078,1.976-.206,3-.381a.487.487,0,0,1,.086-.008.515.515,0,0,1,.067,1.024C21.917,135.46,20.892,135.588,19.931,135.664ZM10.841,135a.327.327,0,0,1-.152-.025,14.853,14.853,0,0,1-2.92-1.193.5.5,0,0,1-.2-.686A.474.474,0,0,1,8,132.836a.566.566,0,0,1,.251.06,13.837,13.837,0,0,0,2.716,1.117.487.487,0,0,1,.31.245.481.481,0,0,1,.02.39A.488.488,0,0,1,10.841,135Zm15.057-.279a.515.515,0,0,1-.508-.406.537.537,0,0,1,.381-.609c1.165-.252,2.073-.471,2.946-.711a.5.5,0,0,1,.133-.018.486.486,0,0,1,.477.373.5.5,0,0,1-.058.4.463.463,0,0,1-.3.214c-1.1.3-2.181.539-3,.711C25.975,134.725,25.949,134.725,25.9,134.725Zm166.08-1.524a.523.523,0,0,1-.508-.482c-.076-1.025-.18-2.054-.279-3.021a.511.511,0,0,1,.431-.559l.052,0a.487.487,0,0,1,.506.434c.126.984.229,2.009.305,3.046a.507.507,0,0,1-.128.387.442.442,0,0,1-.329.147C192,133.2,192,133.2,191.978,133.2Zm-160.189,0a.494.494,0,0,1-.482-.355.517.517,0,0,1,.33-.634c.928-.276,1.9-.583,2.894-.914a.522.522,0,0,1,.149-.022.49.49,0,0,1,.485.352.531.531,0,0,1-.044.409.464.464,0,0,1-.285.226c-.872.291-1.827.59-2.92.914A.189.189,0,0,1,31.789,133.2ZM5.56,132.084a.6.6,0,0,1-.356-.127,13.3,13.3,0,0,1-2.031-2.412.517.517,0,0,1-.073-.4.486.486,0,0,1,.226-.313.513.513,0,0,1,.285-.086.492.492,0,0,1,.426.238,13.389,13.389,0,0,0,1.878,2.235.491.491,0,0,1,.166.353.478.478,0,0,1-.139.358A.817.817,0,0,1,5.56,132.084Zm32.018-.813a.523.523,0,0,1-.482-.33.529.529,0,0,1,.305-.66c.554-.195,1.12-.412,1.668-.622.385-.148.779-.3,1.176-.445a.492.492,0,0,1,.184-.035.5.5,0,0,1,.47.7.5.5,0,0,1-.273.273c-.7.277-1.41.543-2.095.8l-.774.292A.436.436,0,0,1,37.578,131.271Zm5.688-2.209a.5.5,0,0,1-.457-.305.513.513,0,0,1,.006-.387.5.5,0,0,1,.273-.273c.985-.41,1.925-.82,2.794-1.219a.542.542,0,0,1,.2-.039.483.483,0,0,1,.457.293.545.545,0,0,1,.006.387.459.459,0,0,1-.26.273c-.3.131-.612.268-.911.4l-.011,0c-.623.275-1.265.559-1.9.815A.758.758,0,0,1,43.266,129.063Zm147.976-1.9a.515.515,0,0,1-.508-.432c-.149-.824-.3-1.675-.482-2.462l-.1-.508a.517.517,0,0,1,.381-.609.6.6,0,0,1,.105-.01.513.513,0,0,1,.5.391l.1.508c.162.741.35,1.619.509,2.514a.5.5,0,0,1-.407.584C191.318,127.158,191.293,127.158,191.242,127.158Zm-189.058-.1a.549.549,0,0,1-.482-.33,19.274,19.274,0,0,1-.94-2.971.487.487,0,0,1,.382-.609.5.5,0,0,1,.13-.018.487.487,0,0,1,.479.4,17.534,17.534,0,0,0,.888,2.818.514.514,0,0,1-.006.387.5.5,0,0,1-.273.273A.245.245,0,0,1,2.183,127.057Zm46.642-.482a.493.493,0,0,1-.481-.647.555.555,0,0,1,.278-.318l.13-.061c.856-.4,1.741-.823,2.611-1.259a.511.511,0,1,1,.457.914c-.69.344-1.4.679-2.091,1l-.676.318A.739.739,0,0,1,48.826,126.574Zm5.485-2.691a.536.536,0,0,1-.457-.28.507.507,0,0,1,.229-.686c.888-.456,1.794-.934,2.692-1.421a.565.565,0,0,1,.251-.06.474.474,0,0,1,.434.263.544.544,0,0,1,.041.391.468.468,0,0,1-.244.3c-.888.482-1.794.96-2.692,1.422A.562.562,0,0,1,54.311,123.883Zm135.738-2.692h-.1a.489.489,0,0,1-.483-.381l-.112-.46-.019-.08c-.2-.838-.4-1.63-.6-2.405a.5.5,0,0,1,.058-.4.463.463,0,0,1,.3-.214.506.506,0,0,1,.132-.018.485.485,0,0,1,.477.373c.236.9.5,1.91.737,2.971a.487.487,0,0,1-.381.609ZM.736,121.166a.5.5,0,0,1-.508-.457A28.942,28.942,0,0,1,0,117.636a.53.53,0,0,1,.482-.533l.042,0a.516.516,0,0,1,.491.484,27.724,27.724,0,0,0,.229,3,.51.51,0,0,1-.431.559A.094.094,0,0,1,.736,121.166Zm58.932-.2a.5.5,0,0,1-.432-.254.543.543,0,0,1-.041-.39.469.469,0,0,1,.244-.3c.437-.25.874-.5,1.3-.748s.889-.515,1.344-.775a.5.5,0,0,1,.258-.073.5.5,0,0,1,.25.936l-.452.266c-.715.422-1.454.858-2.189,1.257A.771.771,0,0,1,59.668,120.963Zm5.23-3.1a.5.5,0,0,1-.431-.229.479.479,0,0,1-.066-.374.531.531,0,0,1,.243-.337l.032-.02c.841-.519,1.707-1.053,2.533-1.6a.483.483,0,0,1,.269-.079.536.536,0,0,1,.442.231.5.5,0,0,1,.066.384.531.531,0,0,1-.219.327c-.65.434-1.34.857-2.007,1.267l-.011.007-.571.351A.514.514,0,0,1,64.9,117.865ZM188.4,115.3a.492.492,0,0,1-.482-.355c-.278-.958-.585-1.959-.889-2.894a.5.5,0,0,1,.33-.634.6.6,0,0,1,.16-.022.475.475,0,0,1,.475.351c.342,1.081.633,2.036.889,2.921a.51.51,0,0,1-.355.634.048.048,0,0,0-.034-.011.249.249,0,0,0-.041.005A.3.3,0,0,1,188.4,115.3ZM.508,115.072A.516.516,0,0,1,0,114.539q.038-.763.077-1.6a10.335,10.335,0,0,1,.177-1.5.53.53,0,0,1,.532-.434l.053,0a.537.537,0,0,1,.432.584c-.072.457-.125.94-.153,1.4l0,.053v.031c-.024.505-.048,1.01-.072,1.491A.529.529,0,0,1,.508,115.072Zm69.52-.508a.518.518,0,0,1-.508-.627.484.484,0,0,1,.2-.312c.807-.538,1.628-1.109,2.421-1.662l.006,0,.086-.06a.521.521,0,0,1,.292-.087.5.5,0,0,1,.419.214.519.519,0,0,1-.128.711l-.086.06-.006,0c-.794.552-1.614,1.124-2.422,1.662A.376.376,0,0,1,70.027,114.565Zm5-3.53a.526.526,0,0,1-.406-.2.49.49,0,0,1-.1-.364.523.523,0,0,1,.2-.347l2.438-1.829a.492.492,0,0,1,.3-.107.519.519,0,0,1,.408.208.5.5,0,0,1-.1.711c-.721.558-1.542,1.182-2.438,1.854A.678.678,0,0,1,75.029,111.035Zm111.515-1.549a.523.523,0,0,1-.482-.329c-.33-.965-.692-1.92-1.041-2.843a.5.5,0,0,1,.01-.388.512.512,0,0,1,.295-.273.486.486,0,0,1,.18-.034.513.513,0,0,1,.479.339c.423,1.118.754,2.03,1.041,2.869a.49.49,0,0,1-.3.635.467.467,0,0,0-.107.014A.334.334,0,0,1,186.545,109.486ZM1.472,109.08a.324.324,0,0,1-.152-.025.466.466,0,0,1-.285-.226.533.533,0,0,1-.045-.408c.333-1.024.69-1.971,1.092-2.9a.489.489,0,0,1,.45-.3.466.466,0,0,1,.21.05.486.486,0,0,1,.272.279.47.47,0,0,1-.018.382,25.763,25.763,0,0,0-1.066,2.793A.461.461,0,0,1,1.472,109.08Zm78.381-1.752a.6.6,0,0,1-.406-.177.5.5,0,0,1,.076-.711c.676-.545,1.354-1.11,2.01-1.657l.326-.272a.493.493,0,0,1,.326-.119.511.511,0,0,1,.385.169.5.5,0,0,1,.116.365.509.509,0,0,1-.168.346c-.856.742-1.628,1.382-2.361,1.956A.628.628,0,0,1,79.853,107.328Zm104.508-3.554a.5.5,0,0,1-.457-.305c-.4-.994-.813-1.933-1.219-2.793a.47.47,0,0,1-.018-.382.486.486,0,0,1,.272-.279.466.466,0,0,1,.21-.05.489.489,0,0,1,.451.3l.093.208c.381.856.774,1.741,1.126,2.61a.514.514,0,0,1-.008.39.5.5,0,0,1-.272.27A.376.376,0,0,1,184.361,103.774Zm-180.5-.28a.756.756,0,0,1-.228-.05.468.468,0,0,1-.244-.3.544.544,0,0,1,.041-.391c.543-1.026,1.041-1.9,1.523-2.666a.536.536,0,0,1,.446-.239.5.5,0,0,1,.24.061.525.525,0,0,1,.178.685c-.521.869-1.026,1.749-1.5,2.615A.535.535,0,0,1,3.859,103.494Zm80.641-.127a.49.49,0,0,1-.381-.177.517.517,0,0,1-.126-.389.458.458,0,0,1,.176-.322c.756-.681,1.488-1.361,2.235-2.057a.477.477,0,0,1,.34-.141.491.491,0,0,1,.37.166.478.478,0,0,1,.139.357.493.493,0,0,1-.166.354q-.282.262-.564.529c-.547.514-1.11,1.043-1.695,1.553A.449.449,0,0,1,84.5,103.367Zm4.393-4.189a.5.5,0,0,1-.356-.152.492.492,0,0,1,0-.711c.72-.721,1.429-1.455,2.107-2.183a.5.5,0,0,1,.736.686c-.682.733-1.4,1.476-2.133,2.209A.425.425,0,0,1,88.893,99.177Zm-81.86-.888a.507.507,0,0,1-.28-.076.518.518,0,0,1-.127-.711c.669-.971,1.25-1.785,1.778-2.488a.519.519,0,0,1,.408-.209.491.491,0,0,1,.3.107.526.526,0,0,1,.2.336.489.489,0,0,1-.1.375c-.739.986-1.3,1.769-1.752,2.462A.579.579,0,0,1,7.034,98.289Zm174.814-.076a.5.5,0,0,1-.457-.279c-.311-.659-.652-1.313-.983-1.945l0,0q-.194-.371-.385-.741a.505.505,0,0,1,.888-.482c.384.707.756,1.455,1.117,2.179l.018.036.262.526a.506.506,0,0,1-.229.686A.7.7,0,0,1,181.848,98.213ZM93.056,94.734a.527.527,0,0,1-.329-.127.517.517,0,0,1-.051-.711c.622-.717,1.231-1.442,1.955-2.31a.5.5,0,0,1,.4-.193.478.478,0,0,1,.316.116.5.5,0,0,1,.191.348.483.483,0,0,1-.114.363c-.7.874-1.352,1.639-1.981,2.336A.457.457,0,0,1,93.056,94.734ZM10.664,93.389a.559.559,0,0,1-.33-.1.493.493,0,0,1-.19-.346.484.484,0,0,1,.115-.365c.623-.773,1.28-1.557,1.955-2.361a.508.508,0,0,1,.385-.17.5.5,0,0,1,.326.119.517.517,0,0,1,.05.711c-.785.907-1.4,1.649-1.93,2.336A.425.425,0,0,1,10.664,93.389ZM179,92.83a.491.491,0,0,1-.431-.254q-.213-.361-.426-.728l0-.005c-.362-.62-.736-1.261-1.119-1.881a.479.479,0,0,1-.066-.375.529.529,0,0,1,.243-.336.471.471,0,0,1,.263-.079.526.526,0,0,1,.448.256c.57.922,1.1,1.81,1.574,2.641a.512.512,0,0,1-.177.686A.887.887,0,0,1,179,92.83ZM96.916,90.012a.489.489,0,0,1-.3-.1.5.5,0,0,1-.1-.711c.425-.567.843-1.153,1.247-1.72l.006-.008q.263-.369.525-.734a.5.5,0,0,1,.418-.214A.524.524,0,0,1,99,86.61a.483.483,0,0,1,.206.327.537.537,0,0,1-.079.384c-.547.82-1.153,1.657-1.8,2.488A.531.531,0,0,1,96.916,90.012ZM14.65,88.768a.607.607,0,0,1-.355-.127.494.494,0,0,1-.165-.356.475.475,0,0,1,.14-.355c.67-.72,1.385-1.486,2.108-2.235a.491.491,0,0,1,.711,0,.493.493,0,0,1,0,.711c-.7.724-1.422,1.472-2.083,2.209A.426.426,0,0,1,14.65,88.768ZM175.805,87.65a.53.53,0,0,1-.432-.229c-.525-.786-1.105-1.623-1.726-2.488a.525.525,0,0,1,.127-.711.51.51,0,0,1,.285-.087.54.54,0,0,1,.426.214c.385.537.777,1.105,1.157,1.655q.3.432.595.859a.517.517,0,0,1,.073.4.486.486,0,0,1-.225.313A.512.512,0,0,1,175.805,87.65Zm-75.436-2.666a.573.573,0,0,1-.279-.076.52.52,0,0,1-.152-.711l.027-.044c.515-.834,1.048-1.7,1.522-2.546a.508.508,0,0,1,.685-.2.474.474,0,0,1,.24.289.51.51,0,0,1-.036.4c-.468.862-1,1.751-1.574,2.641A.5.5,0,0,1,100.369,84.984ZM18.891,84.4a.5.5,0,0,1-.356-.152.518.518,0,0,1-.152-.382.45.45,0,0,1,.152-.329c.737-.737,1.553-1.5,2.209-2.108a.479.479,0,0,1,.34-.14.492.492,0,0,1,.371.166.475.475,0,0,1,.14.355.494.494,0,0,1-.165.356c-.374.348-.754.709-1.122,1.057-.339.321-.721.683-1.087,1.024A.407.407,0,0,1,18.891,84.4ZM172.25,82.7a.53.53,0,0,1-.407-.2c-.568-.733-1.228-1.58-1.878-2.361a.525.525,0,0,1-.114-.375.486.486,0,0,1,.19-.336.48.48,0,0,1,.317-.117.5.5,0,0,1,.394.193c.728.868,1.351,1.649,1.9,2.387a.489.489,0,0,1,.1.363.524.524,0,0,1-.205.348A.4.4,0,0,1,172.25,82.7ZM23.36,80.262a.459.459,0,0,1-.381-.178.517.517,0,0,1-.126-.388.46.46,0,0,1,.176-.323l1.151-1,0,0,.026-.023,1.129-.98a.494.494,0,0,1,.327-.119.507.507,0,0,1,.384.17.517.517,0,0,1-.05.711c-.381.33-.774.665-1.155.989l-.008.007c-.378.323-.77.656-1.148.984A.411.411,0,0,1,23.36,80.262Zm79.955-.584a.731.731,0,0,1-.229-.051.511.511,0,0,1-.229-.685c.446-.892.85-1.8,1.24-2.675l.03-.067a.513.513,0,0,1,.477-.315.489.489,0,0,1,.456.307.507.507,0,0,1,.006.388c-.361.836-.765,1.724-1.269,2.793A.564.564,0,0,1,103.315,79.678ZM168.365,78a.459.459,0,0,1-.381-.178c-.494-.57-1.024-1.133-1.536-1.678q-.262-.278-.521-.556a.477.477,0,0,1-.14-.357.492.492,0,0,1,.165-.354.479.479,0,0,1,.341-.141.489.489,0,0,1,.37.166c.724.749,1.415,1.517,2.083,2.26a.518.518,0,0,1,.125.388.461.461,0,0,1-.176.323A.378.378,0,0,1,168.365,78ZM28.031,76.326a.6.6,0,0,1-.407-.178.5.5,0,0,1,.076-.711c.829-.668,1.64-1.3,2.412-1.878a.491.491,0,0,1,.3-.107.518.518,0,0,1,.408.209.487.487,0,0,1,.1.361.526.526,0,0,1-.205.35c-.813.61-1.613,1.255-2.387,1.878l-.04.014A.882.882,0,0,1,28.031,76.326Zm77.7-2.26a.439.439,0,0,1-.178-.025.514.514,0,0,1-.279-.661c.388-1.025.738-1.981,1.041-2.843a.52.52,0,0,1,.47-.337.44.44,0,0,1,.164.032.552.552,0,0,1,.286.26.451.451,0,0,1,.019.374c-.287.839-.618,1.751-1.041,2.869A.523.523,0,0,1,105.727,74.066Zm58.424-.457a.5.5,0,0,1-.355-.152c-.74-.713-1.5-1.424-2.209-2.057a.517.517,0,0,1-.05-.711.508.508,0,0,1,.385-.17.492.492,0,0,1,.325.119c.745.67,1.5,1.371,2.235,2.083a.491.491,0,0,1,0,.711A.369.369,0,0,1,164.15,73.609ZM32.855,72.594a.53.53,0,0,1-.406-.2.487.487,0,0,1-.1-.374.529.529,0,0,1,.2-.337c.811-.609,1.663-1.2,2.486-1.776a.528.528,0,0,1,.294-.088.5.5,0,0,1,.418.214.518.518,0,0,1-.127.711c-.89.62-1.7,1.2-2.462,1.777A.614.614,0,0,1,32.855,72.594Zm126.776-3.047a.526.526,0,0,1-.33-.127c-.5-.419-1.037-.845-1.553-1.257q-.407-.325-.809-.648a.517.517,0,0,1-.1-.711.5.5,0,0,1,.4-.2.558.558,0,0,1,.311.1c.831.623,1.657,1.317,2.387,1.93a.551.551,0,0,1,.181.346.462.462,0,0,1-.1.365A.52.52,0,0,1,159.631,69.547ZM37.858,69.116a.532.532,0,0,1-.432-.229.518.518,0,0,1-.073-.4.484.484,0,0,1,.225-.312c.778-.519,1.588-1.043,2.37-1.55l.195-.126a.483.483,0,0,1,.269-.079.534.534,0,0,1,.442.231.528.528,0,0,1-.152.711c-.882.545-1.762,1.132-2.539,1.65A.5.5,0,0,1,37.858,69.116Zm69.875-.787a.325.325,0,0,1-.153-.025.467.467,0,0,1-.294-.237.547.547,0,0,1-.035-.4c.312-.99.6-2,.863-2.9a.5.5,0,0,1,.491-.375.549.549,0,0,1,.143.019.51.51,0,0,1,.355.635c-.316,1.12-.59,2.056-.863,2.945A.608.608,0,0,1,107.733,68.328ZM43.012,65.839a.47.47,0,0,1-.432-.254.477.477,0,0,1-.061-.387.465.465,0,0,1,.24-.3c.872-.539,1.769-1.051,2.637-1.547a.5.5,0,0,1,.261-.075.5.5,0,0,1,.25.936l-.681.4-.021.012c-.63.368-1.282.748-1.914,1.138A.667.667,0,0,1,43.012,65.839Zm111.794-.025a.489.489,0,0,1-.3-.1c-.852-.612-1.689-1.193-2.488-1.726a.529.529,0,0,1-.219-.327.5.5,0,0,1,.067-.384.517.517,0,0,1,.431-.232.544.544,0,0,1,.28.08c.825.55,1.7,1.142,2.514,1.751a.519.519,0,0,1,.127.711A.487.487,0,0,1,154.806,65.814ZM48.293,62.793a.569.569,0,0,1-.457-.254.5.5,0,0,1,.2-.686c.447-.243.9-.487,1.344-.723l.017-.009c.438-.235.891-.477,1.331-.716a.511.511,0,0,1,.457.914c-.919.472-1.825.951-2.691,1.422A.488.488,0,0,1,48.293,62.793Zm101.435-.356a.425.425,0,0,1-.254-.076c-.787-.486-1.618-.978-2.615-1.549a.474.474,0,0,1-.24-.289.509.509,0,0,1,.036-.4.509.509,0,0,1,.686-.2c.868.5,1.766,1.008,2.641,1.549a.554.554,0,0,1,.178.711A.447.447,0,0,1,149.729,62.438Zm-40.371,0a.232.232,0,0,1-.127-.025.517.517,0,0,1-.381-.609l.007-.032c.222-.964.452-1.96.653-2.914a.514.514,0,0,1,.513-.415.537.537,0,0,1,.1.009.519.519,0,0,1,.406.609c-.174.848-.378,1.772-.661,3A.541.541,0,0,1,109.357,62.438ZM53.7,60a.509.509,0,0,1-.229-.965c.7-.35,1.423-.689,2.121-1.017l.646-.3a.467.467,0,0,1,.211-.05.541.541,0,0,1,.475.3.478.478,0,0,1,.016.39.559.559,0,0,1-.27.295c-.6.267-1.212.561-1.8.846l-.005,0c-.306.148-.623.3-.935.447l-.01,0A.718.718,0,0,1,53.7,60Zm90.746-.559a.732.732,0,0,1-.226-.049c-1-.516-1.894-.957-2.72-1.347a.511.511,0,1,1,.457-.913c.611.288,1.232.6,1.832.91l0,0h0c.3.151.6.307.905.458a.5.5,0,0,1,.256.3.479.479,0,0,1-.053.384A.569.569,0,0,1,144.447,59.441ZM59.236,57.461a.5.5,0,0,1-.457-.3.546.546,0,0,1-.006-.387.459.459,0,0,1,.26-.273c.936-.4,1.887-.79,2.807-1.163l.008,0a.5.5,0,0,1,.188-.037A.5.5,0,0,1,62.5,56a.5.5,0,0,1-.271.269l-.069.028c-.9.366-1.832.744-2.723,1.14a.5.5,0,0,0-.1.013A.5.5,0,0,1,59.236,57.461Zm79.7-.66a.436.436,0,0,1-.158-.035l-.046-.016c-.913-.407-1.867-.793-2.79-1.167a.5.5,0,0,1-.276-.274.5.5,0,0,1,.47-.7.491.491,0,0,1,.184.035c.991.4,1.939.8,2.819,1.193a.486.486,0,0,1,.272.279.47.47,0,0,1-.018.381A.462.462,0,0,1,138.938,56.8Zm-28.387-.33h-.076a.5.5,0,0,1-.407-.584c.169-.937.292-1.9.411-2.836l.021-.16a.473.473,0,0,1,.558-.431.487.487,0,0,1,.343.188.466.466,0,0,1,.089.37c-.142,1.106-.3,2.123-.457,3.022A.475.475,0,0,1,110.551,56.471ZM64.9,55.2a.523.523,0,0,1-.482-.33.5.5,0,0,1,.01-.388.512.512,0,0,1,.295-.273c.949-.35,1.93-.711,2.869-1.015a.448.448,0,0,1,.167-.032.492.492,0,0,1,.467.336.491.491,0,0,1-.3.635l-.532.186c-.761.266-1.549.54-2.312.829l-.06.021A.354.354,0,0,1,64.9,55.2Zm68.4-.661a.439.439,0,0,1-.178-.025c-.9-.339-1.861-.673-2.868-.99a.492.492,0,0,1-.289-.251.494.494,0,0,1,.456-.733.476.476,0,0,1,.137.02c.891.3,1.9.648,2.894,1.015a.521.521,0,0,1,.305.661A.474.474,0,0,1,133.3,54.541Zm-62.511-1.32h-.153a.488.488,0,0,1-.482-.355.516.516,0,0,1,.33-.635c.885-.28,1.923-.6,2.92-.863a.549.549,0,0,1,.145-.02.5.5,0,0,1,.49.375.51.51,0,0,1-.355.635l-.006,0c-.887.257-1.893.547-2.889.861Zm56.748-.609a.32.32,0,0,1-.152-.025c-.922-.267-1.907-.552-2.92-.838a.51.51,0,0,1-.355-.635.5.5,0,0,1,.49-.375.549.549,0,0,1,.145.02c.971.274,1.974.556,2.945.838a.476.476,0,0,1,.33.634A.534.534,0,0,1,127.537,52.611ZM76.477,51.57a.488.488,0,0,1-.482-.381.5.5,0,0,1,.057-.4.461.461,0,0,1,.3-.213c1-.255,2-.487,2.967-.71a.591.591,0,0,1,.109-.01.506.506,0,0,1,.123,1l-.567.134-.009,0c-.774.183-1.575.371-2.369.575a.047.047,0,0,0-.033-.011.253.253,0,0,0-.041.005A.3.3,0,0,1,76.477,51.57Zm45.17-.558a.222.222,0,0,1-.127-.026c-.928-.219-1.895-.442-2.829-.658l-.116-.027a.511.511,0,0,1,.1-1.008.5.5,0,0,1,.13.017c1.1.227,2.1.457,2.971.686a.517.517,0,0,1,.381.609A.537.537,0,0,1,121.647,51.012Zm-10.309-.584h-.051a.5.5,0,0,1-.338-.179.515.515,0,0,1-.118-.38c.1-1.007.151-2.018.2-3v-.025a.531.531,0,0,1,.534-.482.51.51,0,0,1,.482.533c-.053,1.05-.133,2.111-.2,3.047A.523.523,0,0,1,111.338,50.428ZM82.494,50.25h0a.093.093,0,0,0-.075-.025.545.545,0,0,1-.508-.406.5.5,0,0,1,.407-.584c.924-.19,1.932-.369,3-.534a.48.48,0,0,1,.085-.008.515.515,0,0,1,.067,1.024c-.975.15-1.975.329-2.97.533Zm33.186-.508h-.1c-.892-.16-1.812-.3-2.7-.437l-.294-.045a.548.548,0,0,1-.352-.224.478.478,0,0,1-.079-.36.517.517,0,0,1,.5-.439.477.477,0,0,1,.087.008c1,.149,2.026.3,3.022.482a.5.5,0,0,1,.406.583A.475.475,0,0,1,115.68,49.742ZM88.461,49.26h0c0-.024-.026-.024-.05-.024A.516.516,0,0,1,87.9,48.8a.539.539,0,0,1,.1-.374.46.46,0,0,1,.33-.184l.1-.012c.967-.121,1.965-.246,2.923-.343l.048,0a.51.51,0,0,1,.053,1.017c-.93.1-1.87.211-3,.355Zm21.2-.356h-.051c-1.071-.11-2.037-.2-3.021-.254a.53.53,0,0,1-.482-.533.525.525,0,0,1,.534-.483l.193.015c.947.071,1.926.145,2.853.24a.5.5,0,0,1,.342.182.516.516,0,0,1,.115.376A.477.477,0,0,1,109.662,48.9ZM94.5,48.65h-.05a.523.523,0,0,1-.508-.482.49.49,0,0,1,.128-.373.482.482,0,0,1,.354-.16c1.022-.076,2.047-.127,3.047-.152a.532.532,0,0,1,.534.482.526.526,0,0,1-.482.534C96.522,48.524,95.5,48.575,94.5,48.65Zm9.09-.178h-.01c-.97-.025-1.973-.05-2.961-.05h-.076a.508.508,0,0,1,0-1.015h.076c.992,0,2,.026,2.971.05a.482.482,0,0,1,.353.16.491.491,0,0,1,.129.373A.483.483,0,0,1,103.594,48.472Zm8.023-4.113a.508.508,0,0,1-.508-.508V43.5c0-.919-.027-1.847-.051-2.665a.509.509,0,1,1,1.016-.052c.024.834.05,1.778.05,2.692v.355A.515.515,0,0,1,111.617,44.359Zm-.177-6.094h-.076a.52.52,0,0,1-.508-.456c-.1-1-.2-2.027-.33-3a.48.48,0,0,1,.092-.378.545.545,0,0,1,.34-.206.482.482,0,0,1,.086-.008.517.517,0,0,1,.5.439c.149.964.25,1.982.347,2.965l.008.082a.513.513,0,0,1-.117.379A.5.5,0,0,1,111.44,38.265Zm-.914-6.017a.543.543,0,0,1-.508-.406c-.213-1.04-.454-2.073-.661-2.946a.5.5,0,0,1,.058-.4.463.463,0,0,1,.3-.214.5.5,0,0,1,.133-.018.485.485,0,0,1,.477.373c.238.905.469,1.913.686,3a.5.5,0,0,1-.406.584.092.092,0,0,0-.039.013A.089.089,0,0,1,110.525,32.248Zm-1.549-5.916a.512.512,0,0,1-.482-.355c-.281-.891-.621-1.813-1.041-2.819a.515.515,0,0,1,.28-.66.492.492,0,0,1,.184-.035.513.513,0,0,1,.476.314c.379.935.738,1.909,1.066,2.894a.531.531,0,0,1-.044.408.467.467,0,0,1-.286.227A.324.324,0,0,1,108.977,26.332Zm-2.285-5.611a.536.536,0,0,1-.457-.279c-.488-.949-.975-1.837-1.447-2.641a.479.479,0,0,1-.062-.389.5.5,0,0,1,.925-.12,30.839,30.839,0,0,1,1.473,2.717.512.512,0,0,1-.229.686.5.5,0,0,0-.082.011A.685.685,0,0,1,106.691,20.721Zm-3.123-5.231a.526.526,0,0,1-.406-.2c-.633-.881-1.323-1.725-1.854-2.362a.518.518,0,0,1,.051-.711.493.493,0,0,1,.326-.119.509.509,0,0,1,.384.169c.565.652,1.153,1.4,1.9,2.438a.526.526,0,0,1-.127.711A.508.508,0,0,1,103.568,15.49Zm-3.961-4.621a.505.505,0,0,1-.356-.152c-.733-.707-1.485-1.382-2.235-2.006a.5.5,0,0,1-.19-.347A.484.484,0,0,1,96.942,8a.5.5,0,0,1,.395-.193.48.48,0,0,1,.316.116c.959.805,1.672,1.44,2.31,2.057a.491.491,0,0,1,0,.711A.446.446,0,0,1,99.608,10.869ZM39.432,9.4a.536.536,0,0,1-.457-.28.507.507,0,0,1,.229-.686l.013-.007c.26-.132,1.23-.614,2.78-1.288a.542.542,0,0,1,.2-.039.483.483,0,0,1,.458.293.535.535,0,0,1,.005.392.461.461,0,0,1-.259.267C40.715,8.8,39.7,9.3,39.66,9.32A.411.411,0,0,1,39.432,9.4ZM94.885,7.035a.507.507,0,0,1-.28-.077c-.566-.377-1.154-.748-1.853-1.168-.116-.064-.243-.138-.355-.2s-.242-.14-.355-.2A.474.474,0,0,1,91.8,5.1a.51.51,0,0,1,.036-.4.49.49,0,0,1,.446-.263.5.5,0,0,1,.24.06c.127.064.25.134.368.2s.242.14.368.2c.776.466,1.381.845,1.9,1.193a.509.509,0,0,1,.218.342.471.471,0,0,1-.091.369A.458.458,0,0,1,94.885,7.035ZM45.018,6.959a.521.521,0,0,1-.482-.33.513.513,0,0,1,.279-.66c.89-.361,1.855-.719,2.869-1.066a.448.448,0,0,1,.167-.032.543.543,0,0,1,.492.337.488.488,0,0,1-.017.383.544.544,0,0,1-.287.276c-.679.232-1.355.493-2.008.746-.28.108-.558.216-.836.321a.333.333,0,0,0-.07.011A.467.467,0,0,1,45.018,6.959ZM50.934,4.9h-.152a.511.511,0,0,1-.482-.355.544.544,0,0,1,.044-.417.459.459,0,0,1,.285-.217c1.079-.341,2.035-.632,2.921-.889A.549.549,0,0,1,53.693,3a.5.5,0,0,1,.491.375.51.51,0,0,1-.355.635c-1,.289-2.005.607-2.894.888ZM89.553,4.09a.435.435,0,0,1-.158-.035l-.046-.016c-.845-.352-1.827-.754-2.793-1.067a.527.527,0,0,1-.33-.635.521.521,0,0,1,.5-.35.475.475,0,0,1,.137.02c1.085.362,2.032.719,2.894,1.092a.486.486,0,0,1,.272.279.47.47,0,0,1-.018.381A.486.486,0,0,1,89.553,4.09ZM56.621,3.227a.5.5,0,0,1-.1-.99c.92-.236,1.928-.466,3-.686a.539.539,0,0,1,.1-.009.545.545,0,0,1,.515.389.539.539,0,0,1-.382.609c-1.007.212-2,.443-2.945.686a.221.221,0,0,0-.069-.011.378.378,0,0,0-.06.006A.317.317,0,0,1,56.621,3.227ZM83.789,2.16a.229.229,0,0,1-.127-.025c-1.064-.252-2.028-.443-2.946-.584a.535.535,0,0,1-.431-.584.527.527,0,0,1,.53-.434l.054,0c1.134.2,2.151.4,3.021.609a.516.516,0,0,1,.381.609A.486.486,0,0,1,83.789,2.16Zm-21.2-.2a.514.514,0,0,1-.508-.431.5.5,0,0,1,.406-.584c1.007-.177,2.033-.33,3.047-.457l.053,0a.486.486,0,0,1,.505.434.539.539,0,0,1-.116.393.461.461,0,0,1-.315.165c-.955.122-1.935.272-3,.457C62.664,1.957,62.613,1.957,62.588,1.957ZM77.772,1.2H77.72c-.965-.075-1.963-.152-3.021-.177a.482.482,0,0,1-.353-.16.492.492,0,0,1-.129-.374A.481.481,0,0,1,74.7,0l.046,0c1.029.025,2.04.1,3.072.178a.5.5,0,0,1,.343.184.516.516,0,0,1,.114.374A.52.52,0,0,1,77.772,1.2Zm-9.09,0h-.05a.521.521,0,0,1-.508-.457.516.516,0,0,1,.115-.374A.5.5,0,0,1,68.58.18l.112-.008C69.711.1,70.673.026,71.653,0h.025a.5.5,0,0,1,.508.482.532.532,0,0,1-.482.534C70.574,1.047,69.585,1.1,68.682,1.2Z" transform="translate(17.189 2.537)" fill="#eaeaff"/><path d="M21.582,9.648,0,3.758,14.98,0Z" transform="translate(27.676 14.98)" fill="#eae9ff"/><path d="M42.656,3.809l-12.7,11.68L0,0Z" transform="translate(0 11.172)" fill="#f4f3fd"/><path d="M55.352,0,0,11.172,46.719,7.617Z" fill="#f4f3fd"/></g><path d="M1.574,20.439C.457,29.123,0,39.076,0,39.076H33.871L40.32,7.846,6.348,0S2.717,11.756,1.574,20.439Z" transform="translate(34.506 195.584)" fill="#f9d2dd"/><path d="M1.574,20.439C.457,29.123,0,39.076,0,39.076H33.871L40.32,7.846,6.348,0S2.717,11.756,1.574,20.439Z" transform="translate(34.506 195.584)" fill="#da5742"/><g transform="translate(38.264 195.584)"><path d="M0,9.42,33.719,21.557,36.537,7.846,2.59,0S1.295,4.189,0,9.42Z" fill="#c43d28"/></g><path d="M32.7,80.635,0,72.79s.559-2.437,1.676-6.373C5.053,54.585,13.711,29.321,28.311,18c25.9-20.059,51.111-19.373,71.348-16.5,25.137,3.555,42.707,27.168,47.734,34.277,6.7,9.5,14.219,24.959,14.219,24.959L127.156,75.3l5.053,30.52H29.91v.025Z" transform="translate(38.467 128.939)" fill="#3d5cff"/><path d="M4.992,54.631A5.849,5.849,0,0,1,.066,47.978L6.49,4.992A5.849,5.849,0,0,1,13.142.066L31.2,2.758A5.849,5.849,0,0,1,36.121,9.41L29.7,52.4a5.836,5.836,0,0,1-6.652,4.926Z" transform="translate(152.43 71.231)" fill="#b7b8d1"/><path d="M237.5,0V.838H0V0Z" transform="translate(11.248 234.229)" fill="#1f1f39"/><path d="M4.992,54.631A5.849,5.849,0,0,1,.066,47.978L6.49,4.992A5.849,5.849,0,0,1,13.142.066L31.2,2.758A5.849,5.849,0,0,1,36.121,9.41L29.7,52.4a5.836,5.836,0,0,1-6.652,4.926Z" transform="translate(152.43 71.231)" fill="#1f1f39"/><path d="M13.339,119.659a45.491,45.491,0,0,0,23.029,27.5c18.764,9.521,41.387-2.285,43.088-18.814C80.878,114.48,76.663,83.249,67.7,62.251S45.305,18.275,35.479,8.474,11.663-.21,8.311.349,2.141,3.421,4.122,5.681C6.077,7.915,17.553,9.032,17.553,9.032S8.768,7.839,3.36,10.835c-3.834,2.133-3.605,4.7-3.047,6.094S3.106,18.96,3.106,18.96a4.189,4.189,0,0,0-1.777,4.063A4.13,4.13,0,0,0,5.518,26.4a3.143,3.143,0,0,0,0,3.072c.838,1.955,3.631,2.793,7.008,3.352,3.352.559,6.729-.559,9.242,2.793s18.281,72.744,18.281,72.744Z" transform="translate(152.31 84.608)" fill="#da5742"/><path d="M.1,3.872a.368.368,0,0,1,.025-.533,10.233,10.233,0,0,1,1.8-1.27A20.389,20.389,0,0,1,11.223.013a32.529,32.529,0,0,1,5.129.229.394.394,0,0,1,.33.432.394.394,0,0,1-.432.33C16.175,1,7.516-.139,2.286,2.755A7.862,7.862,0,0,0,.636,3.923.967.967,0,0,1,.382,4,.408.408,0,0,1,.1,3.872Z" transform="translate(153.536 93.018)" fill="#1f1f39"/><path d="M8.415,33.3.011.519a.415.415,0,0,1,.3-.508.415.415,0,0,1,.508.3L9.228,33.1a.415.415,0,0,1-.3.508h-.1A.435.435,0,0,1,8.415,33.3Z" transform="translate(156.954 171.503)" fill="#1f1f39"/><path d="M.34,32.764a.406.406,0,0,1-.33-.482L5.621.34a.413.413,0,0,1,.813.152L.822,32.434a.389.389,0,0,1-.406.33Z" transform="translate(70.906 177.09)" fill="#1f1f39"/><path d="M237.5,0V.838H0V0Z" transform="translate(11.248 234.229)" fill="#1f1f39"/><g transform="translate(154.279 89.892)"><path d="M.045,3.627A.378.378,0,0,1,.2,3.119,30.223,30.223,0,0,1,9.948.225c5.1-.508,6.7,0,6.754.025a.367.367,0,0,1,.229.482.367.367,0,0,1-.482.229S14.874.479,10,.986A30.958,30.958,0,0,0,.5,3.779c0,.051-.076.051-.127.051A.366.366,0,0,1,.045,3.627Z" transform="translate(0 9.998)" fill="#1f1f39"/><path d="M.045,3.627A.378.378,0,0,1,.2,3.119,30.223,30.223,0,0,1,9.948.225c5.1-.508,6.7,0,6.754.025a.367.367,0,0,1,.229.482.367.367,0,0,1-.482.229S14.874.479,10,.986A30.958,30.958,0,0,0,.5,3.779c0,.051-.076.051-.127.051A.366.366,0,0,1,.045,3.627Z" transform="translate(1.523 17.869)" fill="#1f1f39"/><path d="M.045,5.7A.378.378,0,0,1,.2,5.2a19.43,19.43,0,0,1,7.9-2.006C5.047,2.606,1.848,1.768.858.625A.391.391,0,0,1,.883.092a.391.391,0,0,1,.533.025c1.4,1.6,8.557,2.717,12.213,3.123.559.051.914.1.99.1l-.076.762q-.114,0-.762-.076c-2.209-.2-8.887-.559-13.2,1.828a.785.785,0,0,1-.2.051A.4.4,0,0,1,.045,5.7Z" transform="translate(0.99)" fill="#1f1f39"/></g><path d="M26.711,0,0,11.3A40.837,40.837,0,0,0,5.256,22.75L27.523,3.631Z" transform="translate(165.623 192.969)" fill="#c43d28"/><path d="M2.8,12.705.01.518A.436.436,0,0,1,.315.01a.436.436,0,0,1,.508.3L3.615,12.5a.436.436,0,0,1-.3.508c-.051,0-.076.025-.1.025A.407.407,0,0,1,2.8,12.705Z" transform="translate(191.918 192.629)" fill="#1f1f39"/><path d="M0,26.559l9.979,2.387-.66,6.043L15.184,0Z" transform="translate(61.191 180.629)" fill="#224bf4"/><path d="M8.455,31.688l-.2-1.117,9.064-3.834L0,0Z" transform="translate(157.371 173.697)" fill="#224bf4"/><path d="M1.016,0V32.982H0V0Z" transform="translate(40.528 194.186) rotate(-77.983)" fill="#eaeaff"/><path d="M29.352,0V1.016H0V0Z" transform="translate(163.024 195.096) rotate(-21.881)" fill="#eaeaff"/><path d="M0,59.77c.051-.254,5.484-24.654,16.1-38.289C26.711,7.82,45.068.076,45.246,0l.381.939c-.178.076-18.281,7.719-28.742,21.176C6.4,35.572,1.041,59.77.99,60Z" transform="translate(54.107 136.83)" fill="#eaeaff"/><path d="M.508,61.217h0L0,61.115s.006-.028.016-.075c.2-.9.438-1.88.695-2.921l.482.127c-.445,1.805-.676,2.923-.686,2.97Zm1.5-5.917h0l-.481-.127c.248-.857.5-1.749.744-2.612l.094-.333.482.152c-.278.878-.552,1.832-.838,2.919Zm1.751-5.839h0l-.481-.153c.321-1.04.668-2.047.965-2.894l.482.178c-.4,1.148-.7,2.032-.964,2.868Zm1.981-5.738h0l-.481-.178c.295-.8.606-1.6.907-2.369l.185-.474.482.177-.195.5c-.3.764-.606,1.553-.9,2.343ZM8,38.06H8l-.456-.2c.259-.6.532-1.207.8-1.794q.228-.506.448-1l.457.229-.131.287c-.369.808-.75,1.642-1.112,2.48Zm2.589-5.484h0l-.455-.228c.439-.856.9-1.711,1.447-2.692l.431.255c-.452.826-.937,1.72-1.422,2.665ZM13.61,27.3h0l-.431-.279c.527-.837,1.1-1.691,1.7-2.539l.407.305c-.52.732-1.122,1.589-1.675,2.513Zm3.529-4.926h0l-.405-.33c.708-.878,1.356-1.642,1.98-2.336l.381.33q-.32.382-.639.757c-.437.516-.887,1.047-1.315,1.579Zm4.011-4.545h0l-.355-.355.024-.025c.692-.716,1.406-1.456,2.134-2.133l.355.356c-.732.707-1.438,1.412-2.157,2.157Zm4.393-4.215h0l-.33-.381c.712-.64,1.477-1.287,2.336-1.98l.33.406a28.7,28.7,0,0,0-2.336,1.955Zm4.7-3.834h0l-.3-.406c.812-.609,1.664-1.2,2.487-1.777l.28.432c-.753.518-1.634,1.13-2.462,1.752Zm5.027-3.428h0l-.278-.431c.779-.481,1.7-1.039,2.641-1.549l.254.432c-.884.48-1.757,1.019-2.6,1.541l-.013.008Zm5.281-2.971h0L40.32,2.92l.415-.2c.81-.395,1.574-.768,2.352-1.092l.2.456c-.793.363-1.779.814-2.741,1.295ZM46.11.965h0L45.932.482C46.877.15,47.381,0,47.4,0l.128.482A1.167,1.167,0,0,1,47.4.527c-.215.069-.66.21-1.289.438Z" transform="translate(51.035 134.291)" fill="#eaeaff"/><path d="M66.625,50.655h0c-.426-.878-.91-1.795-1.378-2.682l-.018-.034.457-.229.018.034c.468.887.952,1.8,1.379,2.683l-.456.228Zm-2.844-5.383h0c-.443-.817-.933-1.68-1.5-2.64l.431-.255.754,1.32.008.014.762,1.333-.456.228Zm-3.073-5.256h0l-.348-.565c-.413-.673-.839-1.368-1.276-2.024l.431-.279c.6.934,1.141,1.805,1.625,2.589l-.431.279Zm-3.275-5.154h0c-.513-.769-1.119-1.669-1.726-2.513l.406-.305c.632.88,1.255,1.805,1.726,2.514l-.405.3Zm-3.5-4.977h0l-.026-.035c-.591-.787-1.2-1.6-1.827-2.376l.407-.3.183.237c.551.711,1.121,1.446,1.67,2.2l-.405.278Zm-3.757-4.774h0l-.071-.085c-.626-.745-1.272-1.515-1.909-2.225l.381-.33c.705.787,1.38,1.565,2.006,2.311l-.405.329Zm-4.037-4.544h0c-.693-.718-1.409-1.461-2.132-2.157l.355-.355c.723.7,1.449,1.423,2.158,2.158l-.38.355Zm-4.368-4.216h0c-.774-.7-1.559-1.353-2.335-1.954l.3-.406c.786.608,1.571,1.266,2.336,1.955l-.3.405Zm-4.773-3.783h0c-.64-.46-1.319-.91-1.977-1.345L35,11.214l-.523-.347.279-.432.039.025c.835.541,1.7,1.1,2.5,1.676l-.3.431Zm-5.1-3.25h0c-.908-.535-1.857-1.032-2.665-1.447l.229-.457c.864.433,1.744.906,2.691,1.447l-.253.456ZM26.483,6.551h0c-1.04-.463-1.953-.853-2.792-1.193l.177-.482c1.023.415,1.971.816,2.819,1.193l-.2.481ZM20.846,4.316h0c-.776-.273-1.6-.531-2.388-.78l-.505-.159.152-.482.6.189c.764.24,1.555.489,2.321.751l-.177.481ZM15.031,2.564h0c-.991-.254-1.99-.484-2.969-.685l.1-.509c1.106.227,2.1.458,2.971.686l-.1.507ZM9.09,1.32h0l-.473-.071C7.749,1.119,6.93,1,6.094.888l.05-.508L6.314.4c.931.119,1.894.242,2.851.41l-.075.507ZM3.047.609h0C1.418.515.575.508.356.508H.025L0,0H.356C.82,0,1.778.027,3.073.1L3.047.608Z" transform="translate(121.367 132.006)" fill="#eaeaff"/><path d="M37.273,13.332A67.73,67.73,0,0,0,.025,1.017L0,0A68.783,68.783,0,0,1,37.883,12.494C55.809,25.367,68.4,52.789,68.529,53.068l-.939.432C67.463,53.22,54.971,26.052,37.273,13.332Z" transform="translate(117.813 133.274)" fill="#eaeaff"/><path d="M32.7,80.635,0,72.79s.559-2.437,1.676-6.373C5.053,54.585,13.711,29.321,28.311,18c25.9-20.059,51.111-19.373,71.348-16.5,25.137,3.555,42.707,27.168,47.734,34.277,6.7,9.5,14.219,24.959,14.219,24.959L127.156,75.3l5.053,30.52H29.91v.025Z" transform="translate(38.467 128.939)" fill="none"/><path d="M.34,32.764a.406.406,0,0,1-.33-.482L5.621.34a.413.413,0,0,1,.813.152L.822,32.434a.389.389,0,0,1-.406.33Z" transform="translate(70.906 177.09)" fill="#1f1f39"/><path d="M8.415,33.3.011.519a.415.415,0,0,1,.3-.508.415.415,0,0,1,.508.3L9.228,33.1a.415.415,0,0,1-.3.508h-.1A.435.435,0,0,1,8.415,33.3Z" transform="translate(156.954 171.503)" fill="#1f1f39"/><path d="M19.863,13.922C30.5,13.135,38.83,8.767,38.5,4.146A5.076,5.076,0,0,0,36.062.465C25.423-.475,13.693-.221,1.455,3.41A4.9,4.9,0,0,0,.007,6.965C.338,11.586,9.224,14.683,19.863,13.922Z" transform="translate(93.227 128.951)" fill="#224bf4"/><g transform="translate(63.838 42.613)"><path d="M68.168,33.382s8.684-7.846,2.514-17.088-17.646-5.611-17.646-5.611S49.658-.794,36.226.044,23.633,16.573,23.633,16.573s-2.615-3.809-8.4-1.117c-4.189,1.955-1.955,8.963-1.955,8.963S3.193,25.257.679,35.057C-2.088,45.8,4.31,51.028,7.129,52.425a8.759,8.759,0,0,0,5.332.838s-5.332,3.072-3.352,8.963c1.955,5.891,10.359,5.332,10.359,5.332L36.4,81.9,70.681,45.417Z" fill="#ff7f2d"/><path d="M6.779.112c3.885.736,5.078,5.561,3.4,10.41-1.7,4.85-8.709,6.3-8.709,6.3L0,2.524S2.895-.625,6.779.112Z" transform="translate(63.953 44.848)" fill="#f9acc0"/><path d="M4.45,21.049c-4.469.559-5.891,6.729-2.793,11.2S12.3,36.156,12.3,36.156A96.474,96.474,0,0,1,14.53,51.568c.559,8.684.559,7.287.559,7.287s4.773,4.189,14.295,2.234,8.963-6.449,8.963-6.449-.279-1.4-1.4-5.053a57.7,57.7,0,0,1-1.676-7.566A17.912,17.912,0,0,0,45.913,23.537,69.7,69.7,0,0,0,40.022,0H36.95s-.279,4.189-3.631,5.332-7.846-1.955-7.846-1.955a9.041,9.041,0,0,1-5.611,7.008A18.13,18.13,0,0,1,10.62,11.5s1.98,9.268-.559,12.061C10.062,23.562,8.944,20.49,4.45,21.049Z" transform="translate(22.229 35.007)" fill="#f9d2dd"/><path d="M0,8.62A16.754,16.754,0,0,1,.736,3.9,10.862,10.862,0,0,1,3,.114a.339.339,0,0,1,.508,0,.339.339,0,0,1,0,.508,9.865,9.865,0,0,0-2.082,3.5A16.064,16.064,0,0,0,.711,8.62a.347.347,0,0,1-.355.355A.347.347,0,0,1,0,8.62Z" transform="translate(67.228 47.359)" fill="#1f1f39"/><path d="M9.321,6.807A15.791,15.791,0,0,0,5.386,2.593,14.581,14.581,0,0,0,.358.841.429.429,0,0,1,0,.358.429.429,0,0,1,.485,0,15.948,15.948,0,0,1,5.817,1.882,16.192,16.192,0,0,1,10.007,6.35a.438.438,0,0,1-.127.584.288.288,0,0,1-.2.076A.405.405,0,0,1,9.321,6.807Z" transform="translate(24.036 60.395)" fill="#1f1f39"/><path d="M.711,1.555A4.062,4.062,0,0,1,2.539.209a3.492,3.492,0,0,1,1.143-.2A2.9,2.9,0,0,1,4.824.159,2.45,2.45,0,0,1,6.449,1.606a4.543,4.543,0,0,0-1.828-.381c-.127,0-.279.025-.406.025a2.286,2.286,0,0,0-.406.076.559.559,0,0,1-.2.025L3.4,1.4A2.5,2.5,0,0,0,3,1.53a5.671,5.671,0,0,0-1.5.787A15.386,15.386,0,0,0,0,3.586,3.52,3.52,0,0,1,.711,1.555Z" transform="translate(40.136 51.631)" fill="#1f1f39"/><path d="M.662,1.306A3.363,3.363,0,0,1,2.49.113c.178-.025.381-.076.559-.1a3.737,3.737,0,0,1,.533,0A3.581,3.581,0,0,1,4.623.189,2.824,2.824,0,0,1,5.562.7a4.874,4.874,0,0,1,.355.381,1.206,1.206,0,0,1,.229.482,3.062,3.062,0,0,0-.889-.229,4.643,4.643,0,0,0-.838-.051c-.279.025-.533.025-.813.076-.127,0-.279.051-.406.051l-.381.076a4.582,4.582,0,0,0-1.4.635A10.038,10.038,0,0,0,0,3.236,3.017,3.017,0,0,1,.662,1.306Z" transform="translate(56.664 46.929)" fill="#1f1f39"/><path d="M1.98,1.625a7.913,7.913,0,0,1,.813,1.016A4.807,4.807,0,0,1,3.4,3.834c.025.127.076.2.1.33a1.973,1.973,0,0,1,.051.406,1.7,1.7,0,0,1-.178.787,2.774,2.774,0,0,1-.939,1.066A5.465,5.465,0,0,1,0,7.313a10.8,10.8,0,0,0,2.006-1.4,2.53,2.53,0,0,0,.635-.863,1.408,1.408,0,0,0,.076-.432.7.7,0,0,0-.025-.229.967.967,0,0,0-.076-.254A5.633,5.633,0,0,0,2.107,3.1a8.68,8.68,0,0,0-.66-1.016C1.016,1.371.508.711,0,0A8.672,8.672,0,0,1,1.98,1.625Z" transform="translate(51.334 51.003)" fill="#1f1f39"/><path d="M12.117,0s2.234,7.287-.279,9.8S2.85,12.721,1.2,8.125.082,2.514.082,2.514Z" transform="translate(47.062 60.55)" fill="#f95368"/><path d="M5.129.333A10.338,10.338,0,0,0,0,3.558c2.184,3.529,7.846,3.021,10.156.686A5.165,5.165,0,0,0,11.35.79,9.351,9.351,0,0,0,5.129.333Z" transform="translate(48.744 66.082)" fill="#f9acc0"/><g transform="translate(35.672 50.329)"><path d="M5.459,6.7C2.444,6.7,0,5.2,0,3.352S2.444,0,5.459,0s5.459,1.5,5.459,3.352S8.474,6.7,5.459,6.7Z" transform="translate(22.907 2.274) rotate(-12.022)" fill="#f9acc0"/><path d="M5.459,6.7C2.444,6.7,0,5.2,0,3.352S2.444,0,5.459,0s5.459,1.5,5.459,3.352S8.474,6.7,5.459,6.7Z" transform="translate(0 7.989) rotate(-12.022)" fill="#f9acc0"/><path d="M.214,2.05a.422.422,0,0,1-.152-.584.4.4,0,0,1,.559-.152c.025.025,1.98,1.041,6.906.635A14.58,14.58,0,0,0,13.773.069.415.415,0,0,1,14.357.2.415.415,0,0,1,14.23.78,14.828,14.828,0,0,1,7.578,2.811c-.812.051-1.574.076-2.234.076C1.738,2.888.291,2.075.214,2.05Z" transform="translate(10.217 25.894)" fill="#1f1f39"/></g><path d="M3.021,3.707C1.353,3.707,0,2.877,0,1.854S1.353,0,3.021,0,6.043.83,6.043,1.854,4.69,3.707,3.021,3.707Z" transform="translate(38.395 47.506) rotate(-30.001)" fill="#1f1f39"/><path d="M1.854,6.043C.83,6.043,0,4.69,0,3.021S.83,0,1.854,0,3.707,1.353,3.707,3.021,2.877,6.043,1.854,6.043Z" transform="translate(55.06 44.248) rotate(-86.901)" fill="#1f1f39"/><path d="M68.168,33.382s8.684-7.846,2.514-17.088-17.646-5.611-17.646-5.611S49.658-.794,36.226.044,23.633,16.573,23.633,16.573s-2.615-3.809-8.4-1.117c-4.189,1.955-1.955,8.963-1.955,8.963S3.193,25.257.679,35.057C-2.088,45.8,4.31,51.028,7.129,52.425a8.759,8.759,0,0,0,5.332.838s-5.332,3.072-3.352,8.963c1.955,5.891,10.359,5.332,10.359,5.332L36.4,81.9,70.681,45.417Z" fill="#f99a3d"/><path d="M6.779.112c3.885.736,5,5.053,3.3,9.9s-8.633,6.83-8.633,6.83L0,2.524S2.895-.625,6.779.112Z" transform="translate(63.953 44.848)" fill="#c43d28"/><path d="M4.45,23.334c-4.469.559-5.891,6.729-2.793,11.2S12.3,38.441,12.3,38.441A96.474,96.474,0,0,1,14.53,53.853c.559,8.684.559,7.287.559,7.287s4.773,4.189,14.295,2.234,8.963-6.449,8.963-6.449-.279-1.4-1.4-5.053a57.7,57.7,0,0,1-1.676-7.566A17.912,17.912,0,0,0,45.913,25.822,87.973,87.973,0,0,0,39.515,0H36.442s-.279,4.189-3.631,5.332-7.846-1.955-7.846-1.955a9.041,9.041,0,0,1-5.611,7.008A18.13,18.13,0,0,1,10.112,11.5s2.488,11.553-.051,14.346C10.062,25.848,8.944,22.775,4.45,23.334Z" transform="translate(22.229 32.722)" fill="#da5742"/><path d="M10.918.1C2.539,3.4,0,.863,0,.863,3.072,9.242,8.2,10.842,14.016,11.68c-.2-.787-.559-2.107-1.193-4.113A56.782,56.782,0,0,1,11.146,0" transform="translate(46.357 77.079)" fill="#c43d28"/><g transform="translate(22.255 56.013)"><path d="M10.062,2.582S8.944-.491,4.45.068C-.019.626-1.44,6.8,1.657,11.265c2.869,4.189,10.664,8.2,11.553,8.15.229-1.6-1.93-14.9-2.844-17.266C10.265,2.3,10.163,2.455,10.062,2.582Z" fill="#c43d28"/></g><path d="M0,8.62A16.754,16.754,0,0,1,.736,3.9,10.862,10.862,0,0,1,3,.114a.339.339,0,0,1,.508,0,.339.339,0,0,1,0,.508,9.865,9.865,0,0,0-2.082,3.5A16.064,16.064,0,0,0,.711,8.62a.347.347,0,0,1-.355.355A.347.347,0,0,1,0,8.62Z" transform="translate(67.228 47.359)" fill="#1f1f39"/><path d="M9.321,6.807A15.791,15.791,0,0,0,5.386,2.593,14.581,14.581,0,0,0,.358.841.429.429,0,0,1,0,.358.429.429,0,0,1,.485,0,15.948,15.948,0,0,1,5.817,1.882,16.192,16.192,0,0,1,10.007,6.35a.438.438,0,0,1-.127.584.288.288,0,0,1-.2.076A.405.405,0,0,1,9.321,6.807Z" transform="translate(24.036 60.395)" fill="#1f1f39"/><path d="M.711,1.555A4.062,4.062,0,0,1,2.539.209a3.492,3.492,0,0,1,1.143-.2A2.9,2.9,0,0,1,4.824.159,2.45,2.45,0,0,1,6.449,1.606a4.543,4.543,0,0,0-1.828-.381c-.127,0-.279.025-.406.025a2.286,2.286,0,0,0-.406.076.559.559,0,0,1-.2.025L3.4,1.4A2.5,2.5,0,0,0,3,1.53a5.671,5.671,0,0,0-1.5.787A15.386,15.386,0,0,0,0,3.586,3.52,3.52,0,0,1,.711,1.555Z" transform="translate(40.136 51.631)" fill="#1f1f39"/><path d="M.662,1.306A3.363,3.363,0,0,1,2.49.113c.178-.025.381-.076.559-.1a3.737,3.737,0,0,1,.533,0A3.581,3.581,0,0,1,4.623.189,2.824,2.824,0,0,1,5.562.7a4.874,4.874,0,0,1,.355.381,1.206,1.206,0,0,1,.229.482,3.062,3.062,0,0,0-.889-.229,4.643,4.643,0,0,0-.838-.051c-.279.025-.533.025-.813.076-.127,0-.279.051-.406.051l-.381.076a4.582,4.582,0,0,0-1.4.635A10.038,10.038,0,0,0,0,3.236,3.017,3.017,0,0,1,.662,1.306Z" transform="translate(56.664 46.929)" fill="#1f1f39"/><path d="M1.98,1.625a7.913,7.913,0,0,1,.813,1.016A4.807,4.807,0,0,1,3.4,3.834c.025.127.076.2.1.33a1.973,1.973,0,0,1,.051.406,1.7,1.7,0,0,1-.178.787,2.774,2.774,0,0,1-.939,1.066A5.465,5.465,0,0,1,0,7.313a10.8,10.8,0,0,0,2.006-1.4,2.53,2.53,0,0,0,.635-.863,1.408,1.408,0,0,0,.076-.432.7.7,0,0,0-.025-.229.967.967,0,0,0-.076-.254A5.633,5.633,0,0,0,2.107,3.1a8.68,8.68,0,0,0-.66-1.016C1.016,1.371.508.711,0,0A8.672,8.672,0,0,1,1.98,1.625Z" transform="translate(51.334 51.003)" fill="#1f1f39"/><path d="M12.117,0s2.234,7.287-.279,9.8S2.85,12.721,1.2,8.125.082,2.514.082,2.514Z" transform="translate(47.062 60.55)" fill="#fff"/><path d="M5.129.333A10.338,10.338,0,0,0,0,3.558c2.184,3.529,7.846,3.021,10.156.686A5.165,5.165,0,0,0,11.35.79,9.351,9.351,0,0,0,5.129.333Z" transform="translate(48.744 66.082)" fill="#f9d2dd"/><g transform="translate(35.672 50.329)"><path d="M5.459,6.7C2.444,6.7,0,5.2,0,3.352S2.444,0,5.459,0s5.459,1.5,5.459,3.352S8.474,6.7,5.459,6.7Z" transform="translate(22.907 2.274) rotate(-12.022)" fill="#c43d28"/><path d="M5.459,6.7C2.444,6.7,0,5.2,0,3.352S2.444,0,5.459,0s5.459,1.5,5.459,3.352S8.474,6.7,5.459,6.7Z" transform="translate(0 7.989) rotate(-12.022)" fill="#c43d28"/></g><path d="M.214,1.309A.388.388,0,0,1,.062.751.417.417,0,0,1,.621.573C.646.6,2.6,1.589,7.527,1.132A12.153,12.153,0,0,0,11.462.04a.427.427,0,0,1,.559.2.427.427,0,0,1-.2.559A12.442,12.442,0,0,1,7.6,1.97c-.965.076-1.828.127-2.564.127C1.687,2.1.291,1.36.214,1.309Z" transform="translate(45.889 77.065)" fill="#1f1f39"/><path d="M4.45,21.049c-4.469.559-5.891,6.729-2.793,11.2S12.3,36.156,12.3,36.156A96.474,96.474,0,0,1,14.53,51.568c.559,8.684-1.117,4.189-1.117,4.189s5.332,4.189,14.854,2.234,11.2-6.449,11.2-6.449-1.4,1.676-2.514-1.955a56.781,56.781,0,0,1-1.676-7.566A17.912,17.912,0,0,0,45.913,23.537,69.7,69.7,0,0,0,40.022,0H36.95s-.279,4.189-3.631,5.332-7.846-1.955-7.846-1.955a9.041,9.041,0,0,1-5.611,7.008A18.13,18.13,0,0,1,10.62,11.5s1.98,9.268-.559,12.061C10.062,23.562,8.944,20.49,4.45,21.049Z" transform="translate(22.229 35.007)" fill="none"/><path d="M3.021,3.707C1.353,3.707,0,2.877,0,1.854S1.353,0,3.021,0,6.043.83,6.043,1.854,4.69,3.707,3.021,3.707Z" transform="translate(38.395 47.506) rotate(-30.001)" fill="#fff"/><path d="M1.854,6.043C.83,6.043,0,4.69,0,3.021S.83,0,1.854,0,3.707,1.353,3.707,3.021,2.877,6.043,1.854,6.043Z" transform="translate(55.06 44.248) rotate(-86.901)" fill="#fff"/></g><path d="M33.9,37.578H30.849V37.07c.513.012,1.014.019,1.533.019s1-.006,1.514-.019v.507Zm3.072-.076h0l-.025-.507.181,0c.929-.024,1.889-.05,2.867-.1l.025.508c-1,.048-1.974.074-2.921.1l-.126,0ZM27.8,37.477h0c-1-.027-2.052-.08-3.046-.153l.025-.508.626.031c.81.04,1.648.081,2.42.121l-.025.508Zm15.259-.229h0l-.025-.508c.466-.024.947-.054,1.412-.083.533-.033,1.083-.068,1.634-.094l.026.508c-.955.07-1.893.119-2.8.165l-.246.013Zm-21.353-.1h0c-1.235-.091-2.174-.161-3.046-.229l.05-.508c1.01.077,2.007.152,3.047.229l-.051.507Zm27.447-.279h0l-.05-.508c1-.071,2.056-.149,3.047-.254l.05.508c-.4.031-.795.067-1.216.1-.591.052-1.2.106-1.83.151Zm-33.541-.178h0c-.435-.042-.866-.079-1.282-.115-.621-.054-1.206-.1-1.763-.164l.05-.508c.68.055,1.4.123,2.161.2l.887.084-.051.507Zm39.61-.355h0l-.051-.507c.728-.062,1.393-.134,1.979-.2.373-.04.725-.078,1.042-.108l.051.508c-.743.1-1.731.194-3.02.3Zm-45.7-.229h0c-.625-.066-1.169-.125-1.611-.173-.751-.082-1.2-.131-1.282-.131h-.1v-.508h.153c.011,0,1.144.13,2.92.305l-.076.507Zm51.8-.381h0l-.076-.507a6.025,6.025,0,0,0,2.691-1.067l.305.406a6.207,6.207,0,0,1-2.919,1.168Zm-57.84-.736h0a6.627,6.627,0,0,1-2.335-2.107l.431-.279a6.35,6.35,0,0,0,2.158,1.955l-.253.431Zm62.816-2.767h0l-.456-.228a6.037,6.037,0,0,0,.686-2.819h.508A6.7,6.7,0,0,1,66.3,32.22ZM.05,29.961h0c-.024-.245-.05-.528-.05-.786v-.025l.33-2.26.508.076L.508,29.2a6.544,6.544,0,0,0,.051.711l-.508.05ZM66.4,28.285h0l-.432-3.02.508-.076.431,3.021-.507.076ZM1.27,23.918h0l-.508-.076.432-3.021L1.7,20.9,1.27,23.917Zm64.237-1.651h0l-.431-3.02.508-.076.432,3.021-.507.076ZM2.158,17.9h0l-.507-.075L2.082,14.8l.509.076L2.158,17.9Zm62.461-1.676h0l-.432-3.02.508-.076.431,3.021-.507.075ZM3.047,11.883h0l-.507-.076.432-3.021.508.076-.432,3.02Zm60.684-1.676h0L63.3,7.186l.508-.076.432,3.022-.507.075ZM3.859,5.84h0l-.507-.076a6.441,6.441,0,0,1,1.142-2.92l.407.279A6.255,6.255,0,0,0,3.859,5.839ZM62.74,4.266h0A6.248,6.248,0,0,0,61.014,1.93l.33-.381A6.721,6.721,0,0,1,63.2,4.063l-.456.2ZM34.2,2.285h-.736c-.749,0-1.524,0-2.31-.025V1.752c1.041.025,2.061.025,3.046.025v.507Zm3.073-.05h0V1.726c.888-.022,1.993-.048,3.047-.1l.026.508c-.956.046-1.908.071-2.829.1l-.243.006Zm-9.167-.076h0c-.961-.049-1.995-.1-3.045-.152l.025-.508c.371.018.743.039,1.1.06.672.039,1.307.076,1.945.092l-.026.507Zm15.26-.177h0l-.025-.507c.979-.049,1.975-.123,2.938-.194l.109-.008.05.508-.3.022c-.955.07-1.855.135-2.771.182ZM22.014,1.8h0L21.92,1.8c-.968-.073-1.968-.148-2.953-.247l.051-.508c.979.1,1.975.173,2.938.246l.109.008-.05.507Zm27.421-.3h0L49.385.99c1.046-.1,2.063-.2,3.021-.329l.051.508c-.94.127-2,.23-3.021.33ZM15.92,1.244h0C14.858,1.138,13.784,1,12.873.888l.051-.508c.522.067,1.061.128,1.582.187.471.053.958.108,1.439.169l-.025.507ZM7.084,1.219h0L6.855.761A6.719,6.719,0,0,1,9.9,0V.508H9.9a6.036,6.036,0,0,0-2.811.71ZM55.5.761h0L55.427.254C56.464.1,57.022,0,57.028,0h.05a6.778,6.778,0,0,1,1.447.152l-.1.509A5.837,5.837,0,0,0,57.1.508c-.088.022-.63.123-1.6.254Z" transform="translate(83.535 158.641)" fill="#eaeaff"/><path d="M28.057,32.805c-7.64,0-18.758-1.155-21.983-1.509l-.131-.014A5.993,5.993,0,0,1,0,25.289v-.076L2.819,5.942A5.992,5.992,0,0,1,8.81,0h.076A160.461,160.461,0,0,0,28.971,1.524,124.705,124.705,0,0,0,49.131,0h.1a6.008,6.008,0,0,1,5.992,5.942l2.818,19.3v.025A5.993,5.993,0,0,1,52.1,31.256,230.979,230.979,0,0,1,28.057,32.805ZM8.785,1.04h0A4.989,4.989,0,0,0,3.859,6.017v.076L1.015,25.339a4.991,4.991,0,0,0,4.977,4.926h.05c.074.015,13.327,1.524,22.014,1.524A235.792,235.792,0,0,0,52,30.265h.05a4.99,4.99,0,0,0,4.977-4.926l-2.819-19.3V6.017a4.989,4.989,0,0,0-4.926-4.976A129.349,129.349,0,0,1,28.971,2.564,164.659,164.659,0,0,1,8.785,1.041Z" transform="translate(88.029 161.027)" fill="#eaeaff"/></g></svg>