<svg xmlns="http://www.w3.org/2000/svg" xmlns:xlink="http://www.w3.org/1999/xlink" width="260" height="260" viewBox="0 0 260 260"><defs><clipPath id="a"><rect width="260" height="260" fill="none"/></clipPath></defs><rect width="260" height="260" fill="none"/><g clip-path="url(#a)"><path d="M200,0a60,60,0,0,1,60,60V200a60,60,0,0,1-60,60H60A60,60,0,0,1,0,200V60A60,60,0,0,1,60,0Z" fill="#fff"/><g transform="translate(74.492 25)"><path d="M109.789,77.7h-2.971a.508.508,0,1,1,0-1.015h3.021a.464.464,0,0,1,.37.174.375.375,0,0,1,.062.334.452.452,0,0,1-.118.349A.494.494,0,0,1,109.789,77.7Zm-5.992,0h-3.021a.508.508,0,1,1,0-1.015H103.8a.508.508,0,1,1,0,1.015Zm-6.069,0H94.707a.508.508,0,0,1,0-1.015h3.021a.508.508,0,0,1,0,1.015Zm-6.068,0H88.638a.508.508,0,0,1,0-1.015h3.022a.508.508,0,0,1,0,1.015Zm-6.069,0H82.571a.508.508,0,1,1,0-1.015h3.021a.508.508,0,1,1,0,1.015Zm-6.043,0H76.527a.508.508,0,0,1,0-1.015h3.022a.508.508,0,0,1,0,1.015Zm-6.069,0H70.459a.508.508,0,0,1,0-1.015H73.48a.508.508,0,0,1,0,1.015Zm-6.069,0H64.391a.508.508,0,1,1,0-1.015h3.021a.508.508,0,1,1,0,1.015Zm-6.068,0H58.323a.508.508,0,1,1,0-1.015h3.021a.508.508,0,0,1,0,1.015Zm-6.044,0H52.279a.508.508,0,1,1,0-1.015H55.3a.508.508,0,1,1,0,1.015Zm-6.068,0H46.21a.508.508,0,0,1,0-1.015h3.022a.508.508,0,0,1,0,1.015Zm-6.069,0H40.143a.508.508,0,0,1,0-1.015h3.021a.508.508,0,0,1,0,1.015Zm-6.069,0H34.074a.508.508,0,1,1,0-1.015H37.1a.508.508,0,1,1,0,1.015Zm-6.043,0H28.031a.508.508,0,0,1,0-1.015h3.021a.524.524,0,0,1,.508.508A.508.508,0,0,1,31.053,77.7Zm-6.069,0H21.963a.508.508,0,0,1,0-1.015h3.021a.508.508,0,1,1,0,1.015Zm-6.068,0H15.895a.508.508,0,1,1,0-1.015h3.021a.508.508,0,0,1,0,1.015Zm-6.2,0H10.639c-.127-.013-.262-.019-.393-.025s-.268-.013-.394-.025H9.826a.512.512,0,0,1-.457-.559.521.521,0,0,1,.45-.454H9.811l-.035,0h.068l-.025,0c.276.023.6.048.9.048h2.006a.508.508,0,0,1,0,1.015Zm99.963-.431a.489.489,0,0,1-.482-.355.476.476,0,0,1,.33-.635,9.192,9.192,0,0,0,2.488-1.142.582.582,0,0,1,.28-.077.263.263,0,0,1,.226.085.329.329,0,0,1,0,.3.5.5,0,0,1-.153.686c-.077.052-.163.1-.245.155s-.163.1-.237.15h-.1a10.23,10.23,0,0,1-1.956.812A.314.314,0,0,1,112.684,77.264ZM6.043,76.273a.433.433,0,0,1-.177-.025,8.891,8.891,0,0,1-1.219-.559h-.1l-.025-.025-.026-.025a1.342,1.342,0,0,0-.216-.17l-.012-.008a.524.524,0,0,1-.205-.349.487.487,0,0,1,.1-.362.527.527,0,0,1,.406-.2h.022c.019,0,.038,0,.042-.011s-.017-.052-.234-.214a9.4,9.4,0,0,0,1.846.961.514.514,0,0,1,.279.661A.547.547,0,0,1,6.043,76.273ZM4.366,74.3c-.17-.114-.34-.236-.507-.362.249.173.4.281.508.361Zm113.116-.134a.532.532,0,0,1-.33-.127.461.461,0,0,1-.176-.324.515.515,0,0,1,.126-.387,10.04,10.04,0,0,0,1.524-2.285.507.507,0,0,1,.456-.28.688.688,0,0,1,.115.013.686.686,0,0,0,.114.013.508.508,0,0,1,.229.685,12.078,12.078,0,0,1-1.676,2.514A.459.459,0,0,1,117.482,74.166ZM1.371,71.474a.529.529,0,0,1-.406-.2.025.025,0,0,1-.025-.026l-.025-.025L.888,71.2v-.076a3.873,3.873,0,0,1-.2-.482.539.539,0,0,1,.3-.66.439.439,0,0,1,.178-.025h.071a.134.134,0,0,0,.049-.007,10.158,10.158,0,0,1-.831-1.7c.76,1.273.89,1.576.859,1.668a.046.046,0,0,1-.028.029c.15.244.315.485.489.715a.489.489,0,0,1,.1.375.526.526,0,0,1-.2.336A.484.484,0,0,1,1.371,71.474Zm118.575-2.437h-.076a.517.517,0,0,1-.406-.584,11.715,11.715,0,0,0,.127-1.625V65.584a.508.508,0,0,1,.508-.508.413.413,0,0,1,.306.127.932.932,0,0,1,.176.686v1.346a8.3,8.3,0,0,1-.127,1.371A.515.515,0,0,1,119.946,69.037ZM.584,67.59H.533a.52.52,0,0,1-.508-.457A.7.7,0,0,1,0,66.9V64.67a.508.508,0,0,1,.508-.508.908.908,0,0,1,.264.05.571.571,0,0,0,.146.032c.069,0,.1-.047.1-.158V66.27a7.722,7.722,0,0,0,.026.787A.492.492,0,0,1,.584,67.59ZM120.1,63.07a.508.508,0,0,1-.508-.508V59.541a.508.508,0,1,1,1.015,0v3.021A.508.508,0,0,1,120.1,63.07ZM.508,62.131A.508.508,0,0,1,0,61.623V58.6a.508.508,0,0,1,1.015,0v3.021A.508.508,0,0,1,.508,62.131ZM120.1,57a.509.509,0,0,1-.508-.509V53.473a.508.508,0,1,1,1.015,0v3.021A.509.509,0,0,1,120.1,57ZM.508,56.063A.509.509,0,0,1,0,55.554V52.533a.508.508,0,1,1,1.015,0v3.021A.509.509,0,0,1,.508,56.063ZM120.1,50.934a.508.508,0,0,1-.508-.508V47.4a.508.508,0,1,1,1.015,0v3.022A.508.508,0,0,1,120.1,50.934ZM.508,50.019A.508.508,0,0,1,0,49.512V46.49a.508.508,0,0,1,.508-.508.5.5,0,0,1,.508.482v3.046A.508.508,0,0,1,.508,50.019ZM120.1,44.865a.508.508,0,0,1-.508-.508V41.336a.508.508,0,1,1,1.015,0v3.021A.508.508,0,0,1,120.1,44.865ZM.508,43.951A.509.509,0,0,1,0,43.443V40.422a.508.508,0,0,1,1.015,0v3.021A.509.509,0,0,1,.508,43.951ZM120.1,38.822a.508.508,0,0,1-.508-.508V35.293a.508.508,0,1,1,1.015,0v3.022A.508.508,0,0,1,120.1,38.822ZM.508,37.883A.508.508,0,0,1,0,37.375V34.354a.508.508,0,1,1,1.015,0v3.021A.508.508,0,0,1,.508,37.883ZM120.1,32.754a.508.508,0,0,1-.508-.508V29.225a.508.508,0,1,1,1.015,0v3.021A.508.508,0,0,1,120.1,32.754ZM.508,31.814A.508.508,0,0,1,0,31.306V28.285a.508.508,0,1,1,1.015,0v3.021A.508.508,0,0,1,.508,31.814ZM120.1,26.686a.509.509,0,0,1-.508-.508V23.156a.508.508,0,1,1,1.015,0v3.021A.509.509,0,0,1,120.1,26.686ZM.508,25.771A.508.508,0,0,1,0,25.264V22.243a.509.509,0,0,1,.508-.509.491.491,0,0,1,.508.509v3.021A.508.508,0,0,1,.508,25.771ZM120.1,20.617a.508.508,0,0,1-.508-.508V17.088a.508.508,0,1,1,1.015,0V20.11A.508.508,0,0,1,120.1,20.617ZM.508,19.7A.508.508,0,0,1,0,19.2V16.174a.508.508,0,0,1,1.015,0V19.2A.508.508,0,0,1,.508,19.7ZM120.1,14.575a.509.509,0,0,1-.508-.509V11.045a.508.508,0,1,1,1.015,0v3.021A.509.509,0,0,1,120.1,14.575ZM.533,13.406A.508.508,0,0,1,.025,12.9V10.08a.52.52,0,0,1,.508-.457s.027,0,.076-.229a.509.509,0,0,1,.457.534,6.273,6.273,0,0,0-.025.686V12.9A.509.509,0,0,1,.533,13.406ZM119.742,8.683a.488.488,0,0,1-.482-.381,10,10,0,0,0-1.092-2.514.525.525,0,0,1,.177-.685.425.425,0,0,1,.254-.076c.161,0,.343.055.584.457v.05a11.325,11.325,0,0,1,.838,1.777c.025.025.025.025.025.05V7.49a3.633,3.633,0,0,1,.147.45l.031.108a.47.47,0,0,1-.041.366.507.507,0,0,1-.314.243A.232.232,0,0,1,119.742,8.683ZM1.524,7.287a.439.439,0,0,1-.178-.025.547.547,0,0,1-.285-.273A.481.481,0,0,1,1.041,6.6l.043-.117A4.865,4.865,0,0,1,1.3,5.967v-.28a14.273,14.273,0,0,1,.787-1.219.53.53,0,0,1,.407-.2h.055c.1,0,.255-.053.656-.434a.517.517,0,0,1,.1.711,9.552,9.552,0,0,0-1.3,2.412A.523.523,0,0,1,1.524,7.287ZM116.8,3.784a.47.47,0,0,1-.356-.128,9.093,9.093,0,0,0-2.234-1.574.508.508,0,0,1-.229-.685.536.536,0,0,1,.457-.28c.077,0,.159.031,1.294.762l.077.038.076.037h.127l.025.026.025.025.025.025.026.025.025.025a10.334,10.334,0,0,1,1.015.838.467.467,0,0,1,.155.325.535.535,0,0,1-.13.386A.56.56,0,0,1,116.8,3.784ZM4.52,3.225a.53.53,0,0,1-.407-.2A.5.5,0,0,1,4.19,2.31,10.357,10.357,0,0,1,6.8.787.419.419,0,0,1,6.982.761a.506.506,0,0,1,.482.33.514.514,0,0,1-.006.387.5.5,0,0,1-.273.273A9.906,9.906,0,0,0,4.824,3.123.449.449,0,0,1,4.52,3.225ZM111.694,1.193h-.1a9.009,9.009,0,0,0-1.854-.178h-3.021a.508.508,0,0,1,0-1.015h3.021c.026,0,.026,0,.305.025h.177A10.578,10.578,0,0,1,111.8.2a.5.5,0,0,1,.406.584A.543.543,0,0,1,111.694,1.193ZM10.435,1.041h-.05A.522.522,0,0,1,9.877.584a.511.511,0,0,1,.457-.559.705.705,0,0,0,.114-.013A.707.707,0,0,1,10.562,0h2.183a1.157,1.157,0,0,1,.52.189,6.2,6.2,0,0,0,.623.294.508.508,0,0,1-.508.508h-1.9C11.115.99,10.75,1.016,10.435,1.041Zm93.26-.026h-3.021a.508.508,0,1,1,0-1.015H103.7a.508.508,0,0,1,0,1.015Zm-6.069,0H94.605a.508.508,0,0,1,0-1.015h3.021a.508.508,0,1,1,0,1.015Zm-6.068,0H88.537a.508.508,0,1,1,0-1.015h3.021a.508.508,0,0,1,0,1.015Zm-6.069,0H82.469a.508.508,0,1,1,0-1.015H85.49a.508.508,0,1,1,0,1.015Zm-6.043,0H76.426a.508.508,0,1,1,0-1.015h3.021a.524.524,0,0,1,.508.508A.508.508,0,0,1,79.448,1.015Zm-6.069,0H70.332a.508.508,0,1,1,0-1.015h3.047a.508.508,0,0,1,0,1.015Zm-6.069,0H64.289a.508.508,0,1,1,0-1.015H67.31a.508.508,0,1,1,0,1.015Zm-6.068,0H58.221a.508.508,0,1,1,0-1.015h3.021a.508.508,0,0,1,0,1.015Zm-6.044,0H52.178a.508.508,0,1,1,0-1.015H55.2a.526.526,0,0,1,.508.508A.509.509,0,0,1,55.2,1.015Zm-6.068,0H46.11A.508.508,0,1,1,46.11,0h3.021a.508.508,0,0,1,0,1.015Zm-6.069,0H40.041a.508.508,0,0,1,0-1.015h3.021a.508.508,0,0,1,0,1.015Zm-6.068,0H33.972a.508.508,0,1,1,0-1.015h3.022a.508.508,0,0,1,0,1.015Zm-6.043,0H27.93A.508.508,0,1,1,27.93,0h3.021a.544.544,0,0,1,.508.508A.508.508,0,0,1,30.951,1.015Zm-6.068,0H21.836a.508.508,0,1,1,0-1.015h3.047a.508.508,0,1,1,0,1.015Zm-6.069,0H15.793a.508.508,0,1,1,0-1.015h3.021a.508.508,0,0,1,0,1.015Z" fill="#eaeaff"/><path d="M120.605,0V.432H0V0Z" transform="translate(0 11.984)" fill="#fff"/><path d="M2.59,43.24A2.6,2.6,0,0,1,0,40.65V2.59A2.6,2.6,0,0,1,2.59,0H3.961a2.6,2.6,0,0,1,2.59,2.59V40.625a2.606,2.606,0,0,1-2.59,2.615Z" transform="translate(8.963 23.537)" fill="#eaeaff"/><path d="M2.133,29.123A2.146,2.146,0,0,1,0,26.99V2.133A2.146,2.146,0,0,1,2.133,0H4.418A2.146,2.146,0,0,1,6.551,2.133V26.99a2.162,2.162,0,0,1-2.133,2.133Z" transform="translate(21.43 37.654)" fill="#eaeaff"/><path d="M2.59,43.24A2.6,2.6,0,0,1,0,40.65V2.59A2.6,2.6,0,0,1,2.59,0H3.961a2.6,2.6,0,0,1,2.59,2.59V40.625a2.606,2.606,0,0,1-2.59,2.615Z" transform="translate(33.871 23.537)" fill="#eaeaff"/><path d="M2.234,32.3A2.238,2.238,0,0,1,0,30.062V2.234A2.238,2.238,0,0,1,2.234,0H4.291A2.238,2.238,0,0,1,6.525,2.234V30.062A2.221,2.221,0,0,1,4.291,32.3Z" transform="translate(47.201 34.48)" fill="#eaeaff"/><path d="M1.854,21.785A1.864,1.864,0,0,1,0,19.932V1.854A1.864,1.864,0,0,1,1.854,0H4.723A1.864,1.864,0,0,1,6.576,1.854V19.932a1.881,1.881,0,0,1-1.854,1.854Z" transform="translate(59.643 44.992)" fill="#eaeaff"/><path d="M2.234,32.3A2.238,2.238,0,0,1,0,30.062V2.234A2.238,2.238,0,0,1,2.234,0H4.291A2.238,2.238,0,0,1,6.525,2.234V30.062A2.221,2.221,0,0,1,4.291,32.3Z" transform="translate(72.109 34.48)" fill="#eaeaff"/><path d="M10.969,0A10.876,10.876,0,0,0,0,10.74v1.447H120.605V10.74A10.876,10.876,0,0,0,109.637,0Z" fill="#eaeaff"/><path d="M1.65,3.2A1.626,1.626,0,0,1,0,1.6,1.626,1.626,0,0,1,1.65,0,1.626,1.626,0,0,1,3.3,1.6,1.626,1.626,0,0,1,1.65,3.2Z" transform="translate(92.396 4.494)" fill="#ff8870"/><path d="M1.65,3.2A1.626,1.626,0,0,1,0,1.6,1.626,1.626,0,0,1,1.65,0,1.626,1.626,0,0,1,3.3,1.6,1.626,1.626,0,0,1,1.65,3.2Z" transform="translate(99.836 4.494)" fill="#ffd301"/><path d="M1.65,3.2A1.626,1.626,0,0,1,0,1.6,1.626,1.626,0,0,1,1.65,0,1.626,1.626,0,0,1,3.3,1.6,1.626,1.626,0,0,1,1.65,3.2Z" transform="translate(107.275 4.494)" fill="#54cda2"/></g><g transform="translate(184.434 67.148)"><path d="M6.449,51.543A6.458,6.458,0,0,1,0,45.094V6.449A6.458,6.458,0,0,1,6.449,0h51.34a6.458,6.458,0,0,1,6.449,6.449V45.094a6.458,6.458,0,0,1-6.449,6.449Z" fill="#eaeaff"/><path d="M64.238,0V.457H0V0Z" transform="translate(0 12.975)" fill="#fff"/><path d="M1.9,3.809a1.9,1.9,0,1,1,1.9-1.9A1.9,1.9,0,0,1,1.9,3.809Z" transform="translate(37.324 4.824)" fill="#ff8870"/><path d="M1.9,3.809a1.9,1.9,0,1,1,1.9-1.9A1.9,1.9,0,0,1,1.9,3.809Z" transform="translate(45.957 4.824)" fill="#ffd301"/><path d="M1.9,3.809a1.9,1.9,0,1,1,1.9-1.9A1.9,1.9,0,0,1,1.9,3.809Z" transform="translate(54.59 4.824)" fill="#54cda2"/><path d="M13.207,11.627a.845.845,0,0,1-.711-1.295L17.7,2.182a.41.41,0,0,0-.127-.584A11.675,11.675,0,0,0,.08,10.256a11.686,11.686,0,1,0,23.283,1.828.472.472,0,0,0-.457-.457Z" transform="translate(22.62 19.604)" fill="#fff"/></g><g transform="translate(44.777 29.578)"><path d="M12.949,41.082C22.648,24.07,33.186,13.025,39.66,8.15A94.592,94.592,0,0,1,52.838,0L47.227,49.715,31.586,99.176,0,99.379S3.25,58.094,12.949,41.082Z" transform="translate(15.979 104.983)" fill="#f9d2dd"/><path d="M33.719,58.068,37.5,46.135,41.107,14.32,36.766,0a2.676,2.676,0,0,0-.279.178c.051,4.215-.432,18.307-8.125,30.316C21.607,41.031,7.516,42.936.584,43.189c-.2.457-.406.939-.584,1.4Z" transform="translate(25.703 108.563)" fill="#f9acc0"/><path d="M5.434,59.97s7.82-4.6,12.137-24.832c2.488-11.68,0-26.178,0-26.178S34.023-.764,51.035.048A128.184,128.184,0,0,1,80.717,4.9s-1.092,8.354-1.092,25.645,7.566,35.9,7.566,35.9l-1.219,38.594H0Z" transform="translate(44.569 99.323)" fill="#3d5cff"/><path d="M3.631,0,0,36.436,46.313,24.172l-25.8-3.936Z" transform="translate(84.533 148.781)" fill="#224bf4"/><g transform="translate(68.614 100.971)"><path d="M.533,0V97.17H0V0Z" transform="translate(0 4.063)" fill="#fff"/><path d="M.533,0V101.232H0V0Z" transform="translate(11.73)" fill="#fff"/><path d="M.533,0V97.17H0V0Z" transform="translate(23.486 4.063)" fill="#fff"/><path d="M.533,0V97.17H0V0Z" transform="translate(35.217 4.063)" fill="#fff"/><path d="M.533,0V100.141H0V0Z" transform="translate(46.947 1.092)" fill="#fff"/></g><path d="M55.761,1.541A6.112,6.112,0,0,0,53.73,6.7,11.161,11.161,0,0,0,43.294,8.371c-3.859,2.92-3.4,7.439-2.92,9.572-5.129-.406-10.537,1.5-12.594,5.586a18.567,18.567,0,0,0-1.65,8.557c-13.152-.965-24.2,7.338-25.848,19.3S4.751,70.2,4.751,70.2l24.908,7.338s10.816.736,16.453-4.393,9.166-17.113,4.926-26.889a20.215,20.215,0,0,0-5.687-7.16,40.8,40.8,0,0,0,4.291-5.053,10.372,10.372,0,0,0,1.193-9.191,14.876,14.876,0,0,0,5.154-1.8c3.656-1.98,4.6-6.119,3.707-9.7a16.023,16.023,0,0,0,3.58-.3c3.529-.762,4.951-5.154,2.59-9.547S58.579-.668,55.761,1.541Z" transform="translate(68.509)" fill="#1f1f39"/><path d="M2.916.835C-1.4,2.714-1.121,11.093,5.074,13.784s9.725.533,9.725.533L9.924.835S7.232-1.044,2.916.835Z" transform="translate(67.856 62.939)" fill="#f9acc0"/><path d="M6.976,10.328,4.894,6.012C2.889,1.848.172.476.146.476A.252.252,0,0,1,.019.146.252.252,0,0,1,.35.019c.127.051,2.92,1.422,5,5.789l2.082,4.316a.252.252,0,0,1-.127.33c-.025,0-.076.025-.1.025A.244.244,0,0,1,6.976,10.328Z" transform="translate(71.133 65.963)" fill="#1f1f39"/><path d="M0,11.176c.127,2.666.762,12.289,3.758,17.367a17.76,17.76,0,0,0,8.176,7.389.687.687,0,0,1,.432.686c-.076,1.9-.381,8.607-1.066,11.35-.609,2.463-1.219,4.443-1.5,5.256a.728.728,0,0,0,.178.736c1.092,1.092,5.281,3.174,12.111,3.174,6.754,0,10.41-1.676,11.705-2.438a.755.755,0,0,0,.355-.762c-.381-1.98-1.8-9.547-1.8-13.279,0-3.555.355-8.557.482-10.232a.727.727,0,0,1,.584-.66c2.209-.406,10.461-2.412,9.979-9.9-.457-7.516-7.262-6.855-9.014-6.551a.723.723,0,0,0-.559.482c-.3.863-1.066,3.047-1.473,4.748a.711.711,0,0,1-1.4-.076,19.018,19.018,0,0,1-.2-2.615,9.148,9.148,0,0,1,.279-2.539.708.708,0,0,0-.533-.863c-1.93-.457-6.881-2.031-9.445-6.322A29.771,29.771,0,0,1,18.308.487a.712.712,0,0,0-1.32-.076,15.382,15.382,0,0,1-6.729,6.8A27.039,27.039,0,0,1,.636,10.44.7.7,0,0,0,0,11.176Z" transform="translate(73.766 50.312)" fill="#f9d2dd"/><path d="M60.734,22.928c6.2,13.762,8.937,42.758,8.354,53.168-.559,9.725-4.062,20.77-15.666,23.207C41.844,101.74,0,99.3,0,99.3V71.525l40.752-2.691L37.527,50.223S33.49,31.865,34.836,17.85C36.156,3.783,37.248,0,37.248,0S52.152,3.885,60.734,22.928Z" transform="translate(87.53 104.246)" fill="#f9d2dd"/><path d="M1.016.292A2.87,2.87,0,0,1,2.539.013,2.762,2.762,0,0,1,3.3.191a1.828,1.828,0,0,1,.686.381A1.541,1.541,0,0,1,4.6,1.917,1.714,1.714,0,0,0,3.783.876,3.494,3.494,0,0,0,2.514.521a3.314,3.314,0,0,0-1.32.152A3.391,3.391,0,0,0,0,1.384,2.225,2.225,0,0,1,1.016.292Z" transform="translate(92.633 60.765)" fill="#1f1f39"/><path d="M.813.619A2.409,2.409,0,0,1,2.234.01a2.081,2.081,0,0,1,.787.076,2.464,2.464,0,0,1,.711.406,1.866,1.866,0,0,1,.584,1.371A2.542,2.542,0,0,0,3.479.8,1.7,1.7,0,0,0,2.895.543c-.1,0-.2-.051-.3-.051h-.3A2.441,2.441,0,0,0,1.066.924,4.176,4.176,0,0,0,0,1.863,2.732,2.732,0,0,1,.813.619Z" transform="translate(78.338 60.565)" fill="#1f1f39"/><path d="M1.18,2.082c-.127.355-.254.686-.355,1.041s-.2.686-.279,1.041a2.7,2.7,0,0,0-.076.99.835.835,0,0,0,.178.406A.517.517,0,0,0,.8,5.738l.076.076.1.076a2.254,2.254,0,0,0,.939.406,7.538,7.538,0,0,0,1.092.152,3.282,3.282,0,0,1-1.117.1,2.579,2.579,0,0,1-1.117-.33,1.556,1.556,0,0,1-.736-.99A3.107,3.107,0,0,1,.088,4.037,8.9,8.9,0,0,1,.85,1.9,11.116,11.116,0,0,1,1.942,0Z" transform="translate(85.842 63.494)" fill="#1f1f39"/><path d="M1.879,4.367A2.049,2.049,0,0,1,0,2.184,2.049,2.049,0,0,1,1.879,0,2.049,2.049,0,0,1,3.758,2.184,2.049,2.049,0,0,1,1.879,4.367Z" transform="translate(79.151 64.586)" fill="#1f1f39"/><path d="M1.879,4.367A2.049,2.049,0,0,1,0,2.184,2.049,2.049,0,0,1,1.879,0,2.049,2.049,0,0,1,3.758,2.184,2.049,2.049,0,0,1,1.879,4.367Z" transform="translate(92.633 64.586)" fill="#1f1f39"/><path d="M0,.66V29.225s9.039.533,19.881.838L10.131,0Z" transform="translate(97.406 174.324)" fill="#f9acc0"/><path d="M1.879,4.367A2.049,2.049,0,0,1,0,2.184,2.049,2.049,0,0,1,1.879,0,2.049,2.049,0,0,1,3.758,2.184,2.049,2.049,0,0,1,1.879,4.367Z" transform="translate(89.408 72.66)" fill="#f95368"/><path d="M15.446,63.654a5.714,5.714,0,0,1-4.926-3.631L.237,3.631C-.5,1.65.541,0,2.547,0H93.293a5.714,5.714,0,0,1,4.926,3.631L108.5,60.023c.736,2.006-.3,3.631-2.311,3.631Z" transform="translate(0 140.453)" fill="#eaeaff"/><path d="M6,12a6,6,0,1,1,6-6A6,6,0,0,1,6,12Z" transform="translate(47.223 164.422)" fill="#fff"/><g transform="translate(73.59 69.893)" opacity="0.635"><path d="M5.637,6.906C2.524,6.906,0,5.36,0,3.453S2.524,0,5.637,0s5.637,1.546,5.637,3.453S8.75,6.906,5.637,6.906Z" transform="translate(19.982)" fill="#f9acc0" opacity="0.635"/><path d="M5.637,6.906C2.524,6.906,0,5.36,0,3.453S2.524,0,5.637,0s5.637,1.546,5.637,3.453S8.75,6.906,5.637,6.906Z" transform="translate(0 0.001)" fill="#f9acc0" opacity="0.635"/></g><path d="M7.211,1.016A51.486,51.486,0,0,1,.635,0,.856.856,0,0,1,.762.432C.711,2.031.482,6.957,0,10.131,2.438,9.623,7.008,8.4,9.674,6.119A31.849,31.849,0,0,0,15.082.432,31.516,31.516,0,0,1,7.211,1.016Z" transform="translate(85.371 86.549)" fill="#f9acc0"/><path d="M.157.487A.233.233,0,0,1,.03.157.233.233,0,0,1,.36.03,19.076,19.076,0,0,0,8.079,1.1,35.355,35.355,0,0,0,15.316.03a.225.225,0,0,1,.3.178.225.225,0,0,1-.178.3A37.011,37.011,0,0,1,8.1,1.6c-.432,0-.838.025-1.244.025A18.87,18.87,0,0,1,.157.487Z" transform="translate(85.9 86.189)" fill="#1f1f39"/><path d="M.55,7.059A8.341,8.341,0,0,0,.423,12.7v-.152a.727.727,0,0,1,.584-.66,19.191,19.191,0,0,0,2.361-.609,16.28,16.28,0,0,1-.457-6.068A17.235,17.235,0,0,1,4.562,0S2.226,1.854.55,7.059Z" transform="translate(106.2 68.268)" fill="#f9acc0"/><path d="M0,10.522A14.224,14.224,0,0,1,1.65,4.733,11.208,11.208,0,0,1,5.814.036a.257.257,0,0,1,.355.1.257.257,0,0,1-.1.355A11.013,11.013,0,0,0,2.133,4.962a13.955,13.955,0,0,0-1.6,5.561.323.323,0,0,1-.279.254A.254.254,0,0,1,0,10.522Z" transform="translate(106.141 67.013)" fill="#1f1f39"/><path d="M10.283,3.682A29.14,29.14,0,0,0,2.717,0S1.625,3.783.279,17.8C-.61,26.965.812,37.984,1.9,44.51A113.565,113.565,0,0,1,4.062,22.953C6.144,12.645,8.633,6.754,10.283,3.682Z" transform="translate(122.036 104.246)" fill="#f9acc0"/><path d="M13.229,7.008,0,0,1.32,7.871Z" transform="translate(126.91 164.981)" fill="#f9acc0"/><path d="M0,1.425c-.025-.127.1-.254.229-.279L12.267,0a.256.256,0,0,1,.279.229c.025.127-.1.254-.229.279L.257,1.654h0A.27.27,0,0,1,0,1.425Z" transform="translate(128.024 171.554)" fill="#1f1f39"/></g><path d="M.237,1C.105,1,0,.778,0,.5S.105,0,.237,0H189.763c.131,0,.237.222.237.5s-.105.5-.237.5Z" transform="translate(34 233.691)" fill="#1f1f39"/></g></svg>